solid OpenSCAD_Model
  facet normal -1 0 0
    outer loop
      vertex 0 0 0
      vertex 0 90.05 10
      vertex 0 90.05 0
    endloop
  endfacet
  facet normal -1 -0 0
    outer loop
      vertex 0 90.05 10
      vertex 0 0 0
      vertex 0 0 10
    endloop
  endfacet
  facet normal -0 0 1
    outer loop
      vertex 53.3674 66.0376 2.5
      vertex 58.56 65.05 2.5
      vertex 53.5851 66.3027 2.5
    endloop
  endfacet
  facet normal 0 0 1
    outer loop
      vertex 58.56 43.5 2.5
      vertex 53.8464 23.1164 2.5
      vertex 53.88 22.775 2.5
    endloop
  endfacet
  facet normal -0 0 1
    outer loop
      vertex 53.1022 65.8199 2.5
      vertex 58.56 65.05 2.5
      vertex 53.3674 66.0376 2.5
    endloop
  endfacet
  facet normal 0 0 1
    outer loop
      vertex 58.56 43.5 2.5
      vertex 53.7468 23.4447 2.5
      vertex 53.8464 23.1164 2.5
    endloop
  endfacet
  facet normal -0 0 1
    outer loop
      vertex 52.7997 65.6582 2.5
      vertex 58.56 65.05 2.5
      vertex 53.1022 65.8199 2.5
    endloop
  endfacet
  facet normal 0 0 1
    outer loop
      vertex 58.56 43.5 2.5
      vertex 53.5851 23.7472 2.5
      vertex 53.7468 23.4447 2.5
    endloop
  endfacet
  facet normal -0 0 1
    outer loop
      vertex 52.4714 65.5586 2.5
      vertex 58.56 65.05 2.5
      vertex 52.7997 65.6582 2.5
    endloop
  endfacet
  facet normal 0 0 1
    outer loop
      vertex 58.56 43.5 2.5
      vertex 53.3674 24.0124 2.5
      vertex 53.5851 23.7472 2.5
    endloop
  endfacet
  facet normal 0 0 1
    outer loop
      vertex 58.56 65.05 2.5
      vertex 52.4714 65.5586 2.5
      vertex 58.56 50.5 2.5
    endloop
  endfacet
  facet normal 0 0 1
    outer loop
      vertex 58.56 43.5 2.5
      vertex 53.1022 24.2301 2.5
      vertex 53.3674 24.0124 2.5
    endloop
  endfacet
  facet normal -0 0 1
    outer loop
      vertex 52.13 65.525 2.5
      vertex 58.56 50.5 2.5
      vertex 52.4714 65.5586 2.5
    endloop
  endfacet
  facet normal 0 0 1
    outer loop
      vertex 58.56 43.5 2.5
      vertex 52.7997 24.3918 2.5
      vertex 53.1022 24.2301 2.5
    endloop
  endfacet
  facet normal 0 0 1
    outer loop
      vertex 51.7886 65.5586 2.5
      vertex 58.56 50.5 2.5
      vertex 52.13 65.525 2.5
    endloop
  endfacet
  facet normal 0 0 1
    outer loop
      vertex 58.56 43.5 2.5
      vertex 52.4714 24.4914 2.5
      vertex 52.7997 24.3918 2.5
    endloop
  endfacet
  facet normal 0 0 1
    outer loop
      vertex 51.4603 65.6582 2.5
      vertex 58.56 50.5 2.5
      vertex 51.7886 65.5586 2.5
    endloop
  endfacet
  facet normal 0 0 1
    outer loop
      vertex 58.56 43.5 2.5
      vertex 52.13 24.525 2.5
      vertex 52.4714 24.4914 2.5
    endloop
  endfacet
  facet normal 0 0 1
    outer loop
      vertex 51.1578 65.8199 2.5
      vertex 58.56 50.5 2.5
      vertex 51.4603 65.6582 2.5
    endloop
  endfacet
  facet normal 0 0 1
    outer loop
      vertex 58.56 43.5 2.5
      vertex 51.7886 24.4914 2.5
      vertex 52.13 24.525 2.5
    endloop
  endfacet
  facet normal 0 0 1
    outer loop
      vertex 50.8926 66.0376 2.5
      vertex 58.56 50.5 2.5
      vertex 51.1578 65.8199 2.5
    endloop
  endfacet
  facet normal 0 0 1
    outer loop
      vertex 58.56 43.5 2.5
      vertex 51.4603 24.3918 2.5
      vertex 51.7886 24.4914 2.5
    endloop
  endfacet
  facet normal 0 0 1
    outer loop
      vertex 58.56 50.5 2.5
      vertex 50.8926 66.0376 2.5
      vertex 58.56 43.5 2.5
    endloop
  endfacet
  facet normal 0 0 1
    outer loop
      vertex 58.56 43.5 2.5
      vertex 51.1578 24.2301 2.5
      vertex 51.4603 24.3918 2.5
    endloop
  endfacet
  facet normal 0 0 1
    outer loop
      vertex 50.8926 24.0124 2.5
      vertex 58.56 43.5 2.5
      vertex 50.8926 66.0376 2.5
    endloop
  endfacet
  facet normal 0 0 1
    outer loop
      vertex 58.56 43.5 2.5
      vertex 50.8926 24.0124 2.5
      vertex 51.1578 24.2301 2.5
    endloop
  endfacet
  facet normal 0 0 1
    outer loop
      vertex 50.6749 66.3027 2.5
      vertex 50.8926 24.0124 2.5
      vertex 50.8926 66.0376 2.5
    endloop
  endfacet
  facet normal 0 0 1
    outer loop
      vertex 50.6749 66.3027 2.5
      vertex 50.6749 23.7472 2.5
      vertex 50.8926 24.0124 2.5
    endloop
  endfacet
  facet normal 0 0 1
    outer loop
      vertex 50.5132 66.6053 2.5
      vertex 50.6749 23.7472 2.5
      vertex 50.6749 66.3027 2.5
    endloop
  endfacet
  facet normal 0 0 1
    outer loop
      vertex 50.5132 66.6053 2.5
      vertex 50.5132 23.4447 2.5
      vertex 50.6749 23.7472 2.5
    endloop
  endfacet
  facet normal 0 0 1
    outer loop
      vertex 45.53 75.025 2.5
      vertex 50.5132 66.6053 2.5
      vertex 50.4136 66.9336 2.5
    endloop
  endfacet
  facet normal 0 0 1
    outer loop
      vertex 50.5132 66.6053 2.5
      vertex 45.53 75.025 2.5
      vertex 50.5132 23.4447 2.5
    endloop
  endfacet
  facet normal 0 0 1
    outer loop
      vertex 45.53 75.025 2.5
      vertex 50.4136 66.9336 2.5
      vertex 50.38 67.275 2.5
    endloop
  endfacet
  facet normal 0 0 1
    outer loop
      vertex 45.53 15.025 2.5
      vertex 50.5132 23.4447 2.5
      vertex 45.53 75.025 2.5
    endloop
  endfacet
  facet normal -0 0 1
    outer loop
      vertex 53.3674 68.5124 2.5
      vertex 58.56 65.05 2.5
      vertex 58.56 90.05 2.5
    endloop
  endfacet
  facet normal -0 0 1
    outer loop
      vertex 53.8464 66.9336 2.5
      vertex 58.56 65.05 2.5
      vertex 53.88 67.275 2.5
    endloop
  endfacet
  facet normal -0 0 1
    outer loop
      vertex 53.7468 66.6053 2.5
      vertex 58.56 65.05 2.5
      vertex 53.8464 66.9336 2.5
    endloop
  endfacet
  facet normal -0 0 1
    outer loop
      vertex 53.5851 66.3027 2.5
      vertex 58.56 65.05 2.5
      vertex 53.7468 66.6053 2.5
    endloop
  endfacet
  facet normal 0 0 1
    outer loop
      vertex 58.56 43.5 2.5
      vertex 53.88 22.775 2.5
      vertex 58.56 23.8 2.5
    endloop
  endfacet
  facet normal 0 0 1
    outer loop
      vertex 53.8464 22.4336 2.5
      vertex 58.56 23.8 2.5
      vertex 53.88 22.775 2.5
    endloop
  endfacet
  facet normal 0 0 1
    outer loop
      vertex 53.7468 22.1053 2.5
      vertex 58.56 23.8 2.5
      vertex 53.8464 22.4336 2.5
    endloop
  endfacet
  facet normal 0 0 1
    outer loop
      vertex 58.56 65.05 2.5
      vertex 53.8464 67.6164 2.5
      vertex 53.88 67.275 2.5
    endloop
  endfacet
  facet normal 0 0 1
    outer loop
      vertex 58.56 65.05 2.5
      vertex 53.7468 67.9447 2.5
      vertex 53.8464 67.6164 2.5
    endloop
  endfacet
  facet normal 0 0 1
    outer loop
      vertex 58.56 65.05 2.5
      vertex 53.5851 68.2472 2.5
      vertex 53.7468 67.9447 2.5
    endloop
  endfacet
  facet normal 0 0 1
    outer loop
      vertex 58.56 65.05 2.5
      vertex 53.3674 68.5124 2.5
      vertex 53.5851 68.2472 2.5
    endloop
  endfacet
  facet normal 0 0 1
    outer loop
      vertex 58.56 90.05 2.5
      vertex 53.1022 68.7301 2.5
      vertex 53.3674 68.5124 2.5
    endloop
  endfacet
  facet normal 0 0 1
    outer loop
      vertex 58.56 90.05 2.5
      vertex 52.7997 68.8918 2.5
      vertex 53.1022 68.7301 2.5
    endloop
  endfacet
  facet normal 0 0 1
    outer loop
      vertex 58.56 90.05 2.5
      vertex 52.4714 68.9914 2.5
      vertex 52.7997 68.8918 2.5
    endloop
  endfacet
  facet normal -0 0 1
    outer loop
      vertex 45.53 75.025 2.5
      vertex 52.4714 68.9914 2.5
      vertex 58.56 90.05 2.5
    endloop
  endfacet
  facet normal 0 0 1
    outer loop
      vertex 52.4714 68.9914 2.5
      vertex 45.53 75.025 2.5
      vertex 52.13 69.025 2.5
    endloop
  endfacet
  facet normal 0 0 1
    outer loop
      vertex 52.13 69.025 2.5
      vertex 45.53 75.025 2.5
      vertex 51.7886 68.9914 2.5
    endloop
  endfacet
  facet normal 0 0 1
    outer loop
      vertex 51.7886 68.9914 2.5
      vertex 45.53 75.025 2.5
      vertex 51.4603 68.8918 2.5
    endloop
  endfacet
  facet normal 0 0 1
    outer loop
      vertex 51.4603 68.8918 2.5
      vertex 45.53 75.025 2.5
      vertex 51.1578 68.7301 2.5
    endloop
  endfacet
  facet normal 0 0 1
    outer loop
      vertex 51.1578 68.7301 2.5
      vertex 45.53 75.025 2.5
      vertex 50.8926 68.5124 2.5
    endloop
  endfacet
  facet normal 0 0 1
    outer loop
      vertex 50.8926 68.5124 2.5
      vertex 45.53 75.025 2.5
      vertex 50.6749 68.2472 2.5
    endloop
  endfacet
  facet normal 0 0 1
    outer loop
      vertex 50.5132 23.4447 2.5
      vertex 45.53 15.025 2.5
      vertex 50.4136 23.1164 2.5
    endloop
  endfacet
  facet normal 0 0 1
    outer loop
      vertex 50.4136 67.6164 2.5
      vertex 45.53 75.025 2.5
      vertex 50.38 67.275 2.5
    endloop
  endfacet
  facet normal 0 0 1
    outer loop
      vertex 50.5132 67.9447 2.5
      vertex 45.53 75.025 2.5
      vertex 50.4136 67.6164 2.5
    endloop
  endfacet
  facet normal 0 0 1
    outer loop
      vertex 50.6749 68.2472 2.5
      vertex 45.53 75.025 2.5
      vertex 50.5132 67.9447 2.5
    endloop
  endfacet
  facet normal 0 0 1
    outer loop
      vertex 58.56 90.05 2.5
      vertex 15.53 75.025 2.5
      vertex 45.53 75.025 2.5
    endloop
  endfacet
  facet normal 0 0 1
    outer loop
      vertex 15.53 75.025 2.5
      vertex 10.68 45.025 2.5
      vertex 15.53 15.025 2.5
    endloop
  endfacet
  facet normal 0 0 1
    outer loop
      vertex 15.53 75.025 2.5
      vertex 10.6464 45.3664 2.5
      vertex 10.68 45.025 2.5
    endloop
  endfacet
  facet normal 0 0 1
    outer loop
      vertex 15.53 75.025 2.5
      vertex 10.5468 45.6947 2.5
      vertex 10.6464 45.3664 2.5
    endloop
  endfacet
  facet normal 0 0 1
    outer loop
      vertex 15.53 75.025 2.5
      vertex 10.3851 45.9972 2.5
      vertex 10.5468 45.6947 2.5
    endloop
  endfacet
  facet normal 0 0 1
    outer loop
      vertex 15.53 75.025 2.5
      vertex 10.1674 46.2624 2.5
      vertex 10.3851 45.9972 2.5
    endloop
  endfacet
  facet normal 0 0 1
    outer loop
      vertex 15.53 75.025 2.5
      vertex 9.90225 46.4801 2.5
      vertex 10.1674 46.2624 2.5
    endloop
  endfacet
  facet normal 0 0 1
    outer loop
      vertex 15.53 75.025 2.5
      vertex 9.5997 46.6418 2.5
      vertex 9.90225 46.4801 2.5
    endloop
  endfacet
  facet normal 0 0 1
    outer loop
      vertex 15.53 75.025 2.5
      vertex 9.27141 46.7414 2.5
      vertex 9.5997 46.6418 2.5
    endloop
  endfacet
  facet normal 0 0 1
    outer loop
      vertex 15.53 75.025 2.5
      vertex 8.93 46.775 2.5
      vertex 9.27141 46.7414 2.5
    endloop
  endfacet
  facet normal 0 0 1
    outer loop
      vertex 15.53 75.025 2.5
      vertex 8.58859 46.7414 2.5
      vertex 8.93 46.775 2.5
    endloop
  endfacet
  facet normal 0 0 1
    outer loop
      vertex 15.53 75.025 2.5
      vertex 8.2603 46.6418 2.5
      vertex 8.58859 46.7414 2.5
    endloop
  endfacet
  facet normal 0 0 1
    outer loop
      vertex 15.53 75.025 2.5
      vertex 7.95775 46.4801 2.5
      vertex 8.2603 46.6418 2.5
    endloop
  endfacet
  facet normal 0 0 1
    outer loop
      vertex 15.53 75.025 2.5
      vertex 7.69256 46.2624 2.5
      vertex 7.95775 46.4801 2.5
    endloop
  endfacet
  facet normal 0 0 1
    outer loop
      vertex 2.5 90.05 2.5
      vertex 7.69256 46.2624 2.5
      vertex 15.53 75.025 2.5
    endloop
  endfacet
  facet normal 0 0 1
    outer loop
      vertex 7.69256 46.2624 2.5
      vertex 2.5 90.05 2.5
      vertex 7.47493 45.9972 2.5
    endloop
  endfacet
  facet normal 0 0 1
    outer loop
      vertex 7.47493 45.9972 2.5
      vertex 2.5 90.05 2.5
      vertex 7.31321 45.6947 2.5
    endloop
  endfacet
  facet normal 0 0 1
    outer loop
      vertex 7.21362 45.3664 2.5
      vertex 2.5 90.05 2.5
      vertex 7.18 45.025 2.5
    endloop
  endfacet
  facet normal 0 0 1
    outer loop
      vertex 7.31321 45.6947 2.5
      vertex 2.5 90.05 2.5
      vertex 7.21362 45.3664 2.5
    endloop
  endfacet
  facet normal -0 0 1
    outer loop
      vertex 2.5 90.05 2.5
      vertex 15.53 75.025 2.5
      vertex 58.56 90.05 2.5
    endloop
  endfacet
  facet normal -0 0 1
    outer loop
      vertex 58.56 65.05 2.5
      vertex 61.06 50.5 2.5
      vertex 61.06 65.05 2.5
    endloop
  endfacet
  facet normal 0 0 1
    outer loop
      vertex 61.06 50.5 2.5
      vertex 58.56 65.05 2.5
      vertex 58.56 50.5 2.5
    endloop
  endfacet
  facet normal -0 0 1
    outer loop
      vertex 58.56 43.5 2.5
      vertex 61.06 23.8 2.5
      vertex 61.06 43.5 2.5
    endloop
  endfacet
  facet normal 0 0 1
    outer loop
      vertex 61.06 23.8 2.5
      vertex 58.56 43.5 2.5
      vertex 58.56 23.8 2.5
    endloop
  endfacet
  facet normal -0 0 1
    outer loop
      vertex 58.56 18.8 2.5
      vertex 61.06 7.5 2.5
      vertex 61.06 18.8 2.5
    endloop
  endfacet
  facet normal 0 0 1
    outer loop
      vertex 61.06 7.5 2.5
      vertex 58.56 18.8 2.5
      vertex 58.56 7.5 2.5
    endloop
  endfacet
  facet normal 0 0 1
    outer loop
      vertex 58.56 23.8 2.5
      vertex 53.7468 22.1053 2.5
      vertex 58.56 18.8 2.5
    endloop
  endfacet
  facet normal -0 0 1
    outer loop
      vertex 53.5851 21.8028 2.5
      vertex 58.56 18.8 2.5
      vertex 53.7468 22.1053 2.5
    endloop
  endfacet
  facet normal -0 0 1
    outer loop
      vertex 53.3674 21.5376 2.5
      vertex 58.56 18.8 2.5
      vertex 53.5851 21.8028 2.5
    endloop
  endfacet
  facet normal -0 0 1
    outer loop
      vertex 53.1022 21.3199 2.5
      vertex 58.56 18.8 2.5
      vertex 53.3674 21.5376 2.5
    endloop
  endfacet
  facet normal -0 0 1
    outer loop
      vertex 52.7997 21.1582 2.5
      vertex 58.56 18.8 2.5
      vertex 53.1022 21.3199 2.5
    endloop
  endfacet
  facet normal -0 0 1
    outer loop
      vertex 52.4714 21.0586 2.5
      vertex 58.56 18.8 2.5
      vertex 52.7997 21.1582 2.5
    endloop
  endfacet
  facet normal 0 0 1
    outer loop
      vertex 45.53 15.025 2.5
      vertex 58.56 18.8 2.5
      vertex 52.4714 21.0586 2.5
    endloop
  endfacet
  facet normal 0 0 1
    outer loop
      vertex 58.56 18.8 2.5
      vertex 45.53 15.025 2.5
      vertex 58.56 7.5 2.5
    endloop
  endfacet
  facet normal 0 0 1
    outer loop
      vertex 45.53 15.025 2.5
      vertex 52.4714 21.0586 2.5
      vertex 52.13 21.025 2.5
    endloop
  endfacet
  facet normal 0 0 1
    outer loop
      vertex 45.53 15.025 2.5
      vertex 52.13 21.025 2.5
      vertex 51.7886 21.0586 2.5
    endloop
  endfacet
  facet normal 0 0 1
    outer loop
      vertex 45.53 15.025 2.5
      vertex 51.7886 21.0586 2.5
      vertex 51.4603 21.1582 2.5
    endloop
  endfacet
  facet normal 0 0 1
    outer loop
      vertex 45.53 15.025 2.5
      vertex 51.4603 21.1582 2.5
      vertex 51.1578 21.3199 2.5
    endloop
  endfacet
  facet normal 0 0 1
    outer loop
      vertex 45.53 15.025 2.5
      vertex 51.1578 21.3199 2.5
      vertex 50.8926 21.5376 2.5
    endloop
  endfacet
  facet normal 0 0 1
    outer loop
      vertex 45.53 15.025 2.5
      vertex 50.8926 21.5376 2.5
      vertex 50.6749 21.8028 2.5
    endloop
  endfacet
  facet normal 0 0 1
    outer loop
      vertex 45.53 15.025 2.5
      vertex 50.6749 21.8028 2.5
      vertex 50.5132 22.1053 2.5
    endloop
  endfacet
  facet normal 0 0 1
    outer loop
      vertex 50.4136 23.1164 2.5
      vertex 45.53 15.025 2.5
      vertex 50.38 22.775 2.5
    endloop
  endfacet
  facet normal 0 0 1
    outer loop
      vertex 45.53 15.025 2.5
      vertex 50.4136 22.4336 2.5
      vertex 50.38 22.775 2.5
    endloop
  endfacet
  facet normal 0 0 1
    outer loop
      vertex 45.53 15.025 2.5
      vertex 50.5132 22.1053 2.5
      vertex 50.4136 22.4336 2.5
    endloop
  endfacet
  facet normal 0 0 1
    outer loop
      vertex 41.06 2.5 2.5
      vertex 58.56 7.5 2.5
      vertex 45.53 15.025 2.5
    endloop
  endfacet
  facet normal 0 0 1
    outer loop
      vertex 58.56 7.5 2.5
      vertex 41.06 2.5 2.5
      vertex 58.56 2.5 2.5
    endloop
  endfacet
  facet normal 0 0 1
    outer loop
      vertex 41.06 2.5 2.5
      vertex 20 2.5 2.5
      vertex 41.06 0 2.5
    endloop
  endfacet
  facet normal 0 0 1
    outer loop
      vertex 45.53 15.025 2.5
      vertex 20 2.5 2.5
      vertex 41.06 2.5 2.5
    endloop
  endfacet
  facet normal -0 0 1
    outer loop
      vertex 15.53 15.025 2.5
      vertex 20 2.5 2.5
      vertex 45.53 15.025 2.5
    endloop
  endfacet
  facet normal -0 0 1
    outer loop
      vertex 10.6464 44.6836 2.5
      vertex 15.53 15.025 2.5
      vertex 10.68 45.025 2.5
    endloop
  endfacet
  facet normal -0 0 1
    outer loop
      vertex 10.5468 44.3553 2.5
      vertex 15.53 15.025 2.5
      vertex 10.6464 44.6836 2.5
    endloop
  endfacet
  facet normal -0 0 1
    outer loop
      vertex 10.3851 44.0527 2.5
      vertex 15.53 15.025 2.5
      vertex 10.5468 44.3553 2.5
    endloop
  endfacet
  facet normal -0 0 1
    outer loop
      vertex 10.1674 43.7876 2.5
      vertex 15.53 15.025 2.5
      vertex 10.3851 44.0527 2.5
    endloop
  endfacet
  facet normal -0 0 1
    outer loop
      vertex 9.90225 43.5699 2.5
      vertex 15.53 15.025 2.5
      vertex 10.1674 43.7876 2.5
    endloop
  endfacet
  facet normal -0 0 1
    outer loop
      vertex 9.5997 43.4082 2.5
      vertex 15.53 15.025 2.5
      vertex 9.90225 43.5699 2.5
    endloop
  endfacet
  facet normal -0 0 1
    outer loop
      vertex 9.27141 43.3086 2.5
      vertex 15.53 15.025 2.5
      vertex 9.5997 43.4082 2.5
    endloop
  endfacet
  facet normal -0 0 1
    outer loop
      vertex 8.93 43.275 2.5
      vertex 15.53 15.025 2.5
      vertex 9.27141 43.3086 2.5
    endloop
  endfacet
  facet normal 0 0 1
    outer loop
      vertex 8.58859 43.3086 2.5
      vertex 15.53 15.025 2.5
      vertex 8.93 43.275 2.5
    endloop
  endfacet
  facet normal 0 0 1
    outer loop
      vertex 8.2603 43.4082 2.5
      vertex 15.53 15.025 2.5
      vertex 8.58859 43.3086 2.5
    endloop
  endfacet
  facet normal 0 0 1
    outer loop
      vertex 7.95775 43.5699 2.5
      vertex 15.53 15.025 2.5
      vertex 8.2603 43.4082 2.5
    endloop
  endfacet
  facet normal 0 0 1
    outer loop
      vertex 2.5 2.5 2.5
      vertex 7.95775 43.5699 2.5
      vertex 7.69256 43.7876 2.5
    endloop
  endfacet
  facet normal 0 0 1
    outer loop
      vertex 2.5 2.5 2.5
      vertex 7.69256 43.7876 2.5
      vertex 7.47493 44.0527 2.5
    endloop
  endfacet
  facet normal 0 0 1
    outer loop
      vertex 2.5 2.5 2.5
      vertex 7.47493 44.0527 2.5
      vertex 7.31321 44.3553 2.5
    endloop
  endfacet
  facet normal 0 0 1
    outer loop
      vertex 2.5 2.5 2.5
      vertex 7.31321 44.3553 2.5
      vertex 7.21362 44.6836 2.5
    endloop
  endfacet
  facet normal 0 0 1
    outer loop
      vertex 2.5 2.5 2.5
      vertex 7.18 45.025 2.5
      vertex 2.5 90.05 2.5
    endloop
  endfacet
  facet normal 0 0 1
    outer loop
      vertex 15.53 15.025 2.5
      vertex 2.5 2.5 2.5
      vertex 20 2.5 2.5
    endloop
  endfacet
  facet normal 0 0 1
    outer loop
      vertex 7.95775 43.5699 2.5
      vertex 2.5 2.5 2.5
      vertex 15.53 15.025 2.5
    endloop
  endfacet
  facet normal 0 0 1
    outer loop
      vertex 7.18 45.025 2.5
      vertex 2.5 2.5 2.5
      vertex 7.21362 44.6836 2.5
    endloop
  endfacet
  facet normal 0 0 1
    outer loop
      vertex 41.06 0 2.5
      vertex 20 2.5 2.5
      vertex 20 0 2.5
    endloop
  endfacet
  facet normal 1 0 0
    outer loop
      vertex 61.06 7.5 10
      vertex 61.06 0 10
      vertex 61.06 7.5 2.5
    endloop
  endfacet
  facet normal 1 0 0
    outer loop
      vertex 61.06 23.8 10
      vertex 61.06 18.8 10
      vertex 61.06 23.8 2.5
    endloop
  endfacet
  facet normal 1 0 0
    outer loop
      vertex 61.06 50.5 10
      vertex 61.06 43.5 10
      vertex 61.06 50.5 2.5
    endloop
  endfacet
  facet normal 1 0 0
    outer loop
      vertex 61.06 65.05 2.5
      vertex 61.06 90.05 10
      vertex 61.06 65.05 10
    endloop
  endfacet
  facet normal 1 0 0
    outer loop
      vertex 61.06 90.05 10
      vertex 61.06 65.05 2.5
      vertex 61.06 90.05 0
    endloop
  endfacet
  facet normal 1 -0 0
    outer loop
      vertex 61.06 50.5 2.5
      vertex 61.06 90.05 0
      vertex 61.06 65.05 2.5
    endloop
  endfacet
  facet normal 1 0 0
    outer loop
      vertex 61.06 43.5 2.5
      vertex 61.06 50.5 2.5
      vertex 61.06 43.5 10
    endloop
  endfacet
  facet normal 1 -0 0
    outer loop
      vertex 61.06 43.5 2.5
      vertex 61.06 90.05 0
      vertex 61.06 50.5 2.5
    endloop
  endfacet
  facet normal 1 0 0
    outer loop
      vertex 61.06 0 0
      vertex 61.06 43.5 2.5
      vertex 61.06 23.8 2.5
    endloop
  endfacet
  facet normal 1 0 0
    outer loop
      vertex 61.06 18.8 2.5
      vertex 61.06 23.8 2.5
      vertex 61.06 18.8 10
    endloop
  endfacet
  facet normal 1 0 0
    outer loop
      vertex 61.06 0 0
      vertex 61.06 23.8 2.5
      vertex 61.06 18.8 2.5
    endloop
  endfacet
  facet normal 1 0 0
    outer loop
      vertex 61.06 0 0
      vertex 61.06 18.8 2.5
      vertex 61.06 7.5 2.5
    endloop
  endfacet
  facet normal 1 0 0
    outer loop
      vertex 61.06 43.5 2.5
      vertex 61.06 0 0
      vertex 61.06 90.05 0
    endloop
  endfacet
  facet normal 1 0 0
    outer loop
      vertex 61.06 0 0
      vertex 61.06 7.5 2.5
      vertex 61.06 0 10
    endloop
  endfacet
  facet normal 0 1 0
    outer loop
      vertex 61.06 90.05 10
      vertex 58.56 90.05 2.5
      vertex 58.56 90.05 10
    endloop
  endfacet
  facet normal 0 1 0
    outer loop
      vertex 58.56 90.05 2.5
      vertex 61.06 90.05 0
      vertex 2.5 90.05 2.5
    endloop
  endfacet
  facet normal 0 1 -0
    outer loop
      vertex 61.06 90.05 0
      vertex 58.56 90.05 2.5
      vertex 61.06 90.05 10
    endloop
  endfacet
  facet normal 0 1 -0
    outer loop
      vertex 2.5 90.05 2.5
      vertex 0 90.05 10
      vertex 2.5 90.05 10
    endloop
  endfacet
  facet normal 0 1 0
    outer loop
      vertex 2.5 90.05 2.5
      vertex 0 90.05 0
      vertex 0 90.05 10
    endloop
  endfacet
  facet normal 0 1 0
    outer loop
      vertex 0 90.05 0
      vertex 2.5 90.05 2.5
      vertex 61.06 90.05 0
    endloop
  endfacet
  facet normal 0 0 -1
    outer loop
      vertex 53.8464 66.9336 0
      vertex 61.06 90.05 0
      vertex 53.8464 23.1164 0
    endloop
  endfacet
  facet normal 0 0 -1
    outer loop
      vertex 61.06 90.05 0
      vertex 53.8464 66.9336 0
      vertex 53.88 67.275 0
    endloop
  endfacet
  facet normal 0 0 -1
    outer loop
      vertex 53.7468 23.4447 0
      vertex 53.8464 66.9336 0
      vertex 53.8464 23.1164 0
    endloop
  endfacet
  facet normal 0 0 -1
    outer loop
      vertex 53.7468 23.4447 0
      vertex 53.7468 66.6053 0
      vertex 53.8464 66.9336 0
    endloop
  endfacet
  facet normal 0 0 -1
    outer loop
      vertex 53.5851 23.7472 0
      vertex 53.7468 66.6053 0
      vertex 53.7468 23.4447 0
    endloop
  endfacet
  facet normal 0 0 -1
    outer loop
      vertex 53.5851 23.7472 0
      vertex 53.5851 66.3027 0
      vertex 53.7468 66.6053 0
    endloop
  endfacet
  facet normal 0 0 -1
    outer loop
      vertex 53.3674 24.0124 0
      vertex 53.5851 66.3027 0
      vertex 53.5851 23.7472 0
    endloop
  endfacet
  facet normal 0 0 -1
    outer loop
      vertex 53.3674 24.0124 0
      vertex 53.3674 66.0376 0
      vertex 53.5851 66.3027 0
    endloop
  endfacet
  facet normal 0 0 -1
    outer loop
      vertex 53.1022 24.2301 0
      vertex 53.3674 66.0376 0
      vertex 53.3674 24.0124 0
    endloop
  endfacet
  facet normal 0 0 -1
    outer loop
      vertex 53.1022 24.2301 0
      vertex 53.1022 65.8199 0
      vertex 53.3674 66.0376 0
    endloop
  endfacet
  facet normal 0 0 -1
    outer loop
      vertex 52.7997 24.3918 0
      vertex 53.1022 65.8199 0
      vertex 53.1022 24.2301 0
    endloop
  endfacet
  facet normal 0 0 -1
    outer loop
      vertex 52.7997 24.3918 0
      vertex 52.7997 65.6582 0
      vertex 53.1022 65.8199 0
    endloop
  endfacet
  facet normal 0 0 -1
    outer loop
      vertex 52.4714 24.4914 0
      vertex 52.7997 65.6582 0
      vertex 52.7997 24.3918 0
    endloop
  endfacet
  facet normal 0 0 -1
    outer loop
      vertex 52.4714 24.4914 0
      vertex 52.4714 65.5586 0
      vertex 52.7997 65.6582 0
    endloop
  endfacet
  facet normal 0 0 -1
    outer loop
      vertex 52.13 24.525 0
      vertex 52.4714 65.5586 0
      vertex 52.4714 24.4914 0
    endloop
  endfacet
  facet normal 0 0 -1
    outer loop
      vertex 52.13 24.525 0
      vertex 52.13 65.525 0
      vertex 52.4714 65.5586 0
    endloop
  endfacet
  facet normal 0 0 -1
    outer loop
      vertex 51.7886 24.4914 0
      vertex 52.13 65.525 0
      vertex 52.13 24.525 0
    endloop
  endfacet
  facet normal 0 0 -1
    outer loop
      vertex 51.7886 24.4914 0
      vertex 51.7886 65.5586 0
      vertex 52.13 65.525 0
    endloop
  endfacet
  facet normal 0 0 -1
    outer loop
      vertex 51.4603 24.3918 0
      vertex 51.7886 65.5586 0
      vertex 51.7886 24.4914 0
    endloop
  endfacet
  facet normal 0 0 -1
    outer loop
      vertex 51.4603 24.3918 0
      vertex 51.4603 65.6582 0
      vertex 51.7886 65.5586 0
    endloop
  endfacet
  facet normal 0 0 -1
    outer loop
      vertex 51.1578 24.2301 0
      vertex 51.4603 65.6582 0
      vertex 51.4603 24.3918 0
    endloop
  endfacet
  facet normal 0 0 -1
    outer loop
      vertex 51.1578 24.2301 0
      vertex 51.1578 65.8199 0
      vertex 51.4603 65.6582 0
    endloop
  endfacet
  facet normal 0 0 -1
    outer loop
      vertex 50.8926 24.0124 0
      vertex 51.1578 65.8199 0
      vertex 51.1578 24.2301 0
    endloop
  endfacet
  facet normal 0 0 -1
    outer loop
      vertex 50.8926 24.0124 0
      vertex 50.8926 66.0376 0
      vertex 51.1578 65.8199 0
    endloop
  endfacet
  facet normal 0 0 -1
    outer loop
      vertex 50.6749 23.7472 0
      vertex 50.8926 66.0376 0
      vertex 50.8926 24.0124 0
    endloop
  endfacet
  facet normal 0 0 -1
    outer loop
      vertex 50.6749 23.7472 0
      vertex 50.6749 66.3027 0
      vertex 50.8926 66.0376 0
    endloop
  endfacet
  facet normal 0 0 -1
    outer loop
      vertex 50.5132 23.4447 0
      vertex 50.6749 66.3027 0
      vertex 50.6749 23.7472 0
    endloop
  endfacet
  facet normal 0 0 -1
    outer loop
      vertex 50.5132 23.4447 0
      vertex 50.5132 66.6053 0
      vertex 50.6749 66.3027 0
    endloop
  endfacet
  facet normal 0 0 -1
    outer loop
      vertex 45.53 15.025 0
      vertex 50.5132 23.4447 0
      vertex 50.4136 23.1164 0
    endloop
  endfacet
  facet normal -0 0 -1
    outer loop
      vertex 50.5132 23.4447 0
      vertex 45.53 15.025 0
      vertex 50.5132 66.6053 0
    endloop
  endfacet
  facet normal 0 0 -1
    outer loop
      vertex 45.53 15.025 0
      vertex 50.4136 23.1164 0
      vertex 50.38 22.775 0
    endloop
  endfacet
  facet normal 0 0 -1
    outer loop
      vertex 45.53 75.025 0
      vertex 50.5132 66.6053 0
      vertex 45.53 15.025 0
    endloop
  endfacet
  facet normal 0 0 -1
    outer loop
      vertex 53.8464 23.1164 0
      vertex 61.06 0 0
      vertex 53.88 22.775 0
    endloop
  endfacet
  facet normal 0 0 -1
    outer loop
      vertex 61.06 0 0
      vertex 53.8464 22.4336 0
      vertex 53.88 22.775 0
    endloop
  endfacet
  facet normal 0 0 -1
    outer loop
      vertex 61.06 0 0
      vertex 53.7468 22.1053 0
      vertex 53.8464 22.4336 0
    endloop
  endfacet
  facet normal 0 0 -1
    outer loop
      vertex 61.06 0 0
      vertex 53.5851 21.8028 0
      vertex 53.7468 22.1053 0
    endloop
  endfacet
  facet normal 0 0 -1
    outer loop
      vertex 61.06 0 0
      vertex 53.3674 21.5376 0
      vertex 53.5851 21.8028 0
    endloop
  endfacet
  facet normal 0 0 -1
    outer loop
      vertex 61.06 0 0
      vertex 53.1022 21.3199 0
      vertex 53.3674 21.5376 0
    endloop
  endfacet
  facet normal 0 0 -1
    outer loop
      vertex 61.06 0 0
      vertex 52.7997 21.1582 0
      vertex 53.1022 21.3199 0
    endloop
  endfacet
  facet normal 0 0 -1
    outer loop
      vertex 61.06 0 0
      vertex 52.4714 21.0586 0
      vertex 52.7997 21.1582 0
    endloop
  endfacet
  facet normal 0 0 -1
    outer loop
      vertex 45.53 15.025 0
      vertex 52.4714 21.0586 0
      vertex 61.06 0 0
    endloop
  endfacet
  facet normal 0 0 -1
    outer loop
      vertex 52.4714 21.0586 0
      vertex 45.53 15.025 0
      vertex 52.13 21.025 0
    endloop
  endfacet
  facet normal -0 0 -1
    outer loop
      vertex 52.13 21.025 0
      vertex 45.53 15.025 0
      vertex 51.7886 21.0586 0
    endloop
  endfacet
  facet normal -0 0 -1
    outer loop
      vertex 51.7886 21.0586 0
      vertex 45.53 15.025 0
      vertex 51.4603 21.1582 0
    endloop
  endfacet
  facet normal -0 0 -1
    outer loop
      vertex 51.4603 21.1582 0
      vertex 45.53 15.025 0
      vertex 51.1578 21.3199 0
    endloop
  endfacet
  facet normal -0 0 -1
    outer loop
      vertex 51.1578 21.3199 0
      vertex 45.53 15.025 0
      vertex 50.8926 21.5376 0
    endloop
  endfacet
  facet normal -0 0 -1
    outer loop
      vertex 50.8926 21.5376 0
      vertex 45.53 15.025 0
      vertex 50.6749 21.8028 0
    endloop
  endfacet
  facet normal 0 0 -1
    outer loop
      vertex 50.5132 66.6053 0
      vertex 45.53 75.025 0
      vertex 50.4136 66.9336 0
    endloop
  endfacet
  facet normal -0 0 -1
    outer loop
      vertex 50.4136 22.4336 0
      vertex 45.53 15.025 0
      vertex 50.38 22.775 0
    endloop
  endfacet
  facet normal -0 0 -1
    outer loop
      vertex 50.5132 22.1053 0
      vertex 45.53 15.025 0
      vertex 50.4136 22.4336 0
    endloop
  endfacet
  facet normal -0 0 -1
    outer loop
      vertex 50.6749 21.8028 0
      vertex 45.53 15.025 0
      vertex 50.5132 22.1053 0
    endloop
  endfacet
  facet normal 0 0 -1
    outer loop
      vertex 61.06 0 0
      vertex 15.53 15.025 0
      vertex 45.53 15.025 0
    endloop
  endfacet
  facet normal 0 0 -1
    outer loop
      vertex 15.53 15.025 0
      vertex 10.68 45.025 0
      vertex 15.53 75.025 0
    endloop
  endfacet
  facet normal 0 0 -1
    outer loop
      vertex 15.53 15.025 0
      vertex 10.6464 44.6836 0
      vertex 10.68 45.025 0
    endloop
  endfacet
  facet normal 0 0 -1
    outer loop
      vertex 15.53 15.025 0
      vertex 10.5468 44.3553 0
      vertex 10.6464 44.6836 0
    endloop
  endfacet
  facet normal 0 0 -1
    outer loop
      vertex 15.53 15.025 0
      vertex 10.3851 44.0527 0
      vertex 10.5468 44.3553 0
    endloop
  endfacet
  facet normal 0 0 -1
    outer loop
      vertex 15.53 15.025 0
      vertex 10.1674 43.7876 0
      vertex 10.3851 44.0527 0
    endloop
  endfacet
  facet normal 0 0 -1
    outer loop
      vertex 15.53 15.025 0
      vertex 9.90225 43.5699 0
      vertex 10.1674 43.7876 0
    endloop
  endfacet
  facet normal 0 0 -1
    outer loop
      vertex 15.53 15.025 0
      vertex 9.5997 43.4082 0
      vertex 9.90225 43.5699 0
    endloop
  endfacet
  facet normal 0 0 -1
    outer loop
      vertex 15.53 15.025 0
      vertex 9.27141 43.3086 0
      vertex 9.5997 43.4082 0
    endloop
  endfacet
  facet normal 0 0 -1
    outer loop
      vertex 15.53 15.025 0
      vertex 8.93 43.275 0
      vertex 9.27141 43.3086 0
    endloop
  endfacet
  facet normal 0 0 -1
    outer loop
      vertex 15.53 15.025 0
      vertex 8.58859 43.3086 0
      vertex 8.93 43.275 0
    endloop
  endfacet
  facet normal 0 0 -1
    outer loop
      vertex 15.53 15.025 0
      vertex 8.2603 43.4082 0
      vertex 8.58859 43.3086 0
    endloop
  endfacet
  facet normal 0 0 -1
    outer loop
      vertex 15.53 15.025 0
      vertex 7.95775 43.5699 0
      vertex 8.2603 43.4082 0
    endloop
  endfacet
  facet normal 0 0 -1
    outer loop
      vertex 15.53 15.025 0
      vertex 7.69256 43.7876 0
      vertex 7.95775 43.5699 0
    endloop
  endfacet
  facet normal 0 0 -1
    outer loop
      vertex 0 0 0
      vertex 7.69256 43.7876 0
      vertex 15.53 15.025 0
    endloop
  endfacet
  facet normal -0 0 -1
    outer loop
      vertex 7.69256 43.7876 0
      vertex 0 0 0
      vertex 7.47493 44.0527 0
    endloop
  endfacet
  facet normal -0 0 -1
    outer loop
      vertex 7.47493 44.0527 0
      vertex 0 0 0
      vertex 7.31321 44.3553 0
    endloop
  endfacet
  facet normal -0 0 -1
    outer loop
      vertex 7.21362 44.6836 0
      vertex 0 0 0
      vertex 7.18 45.025 0
    endloop
  endfacet
  facet normal -0 0 -1
    outer loop
      vertex 7.31321 44.3553 0
      vertex 0 0 0
      vertex 7.21362 44.6836 0
    endloop
  endfacet
  facet normal 0 0 -1
    outer loop
      vertex 0 0 0
      vertex 15.53 15.025 0
      vertex 61.06 0 0
    endloop
  endfacet
  facet normal 0 0 -1
    outer loop
      vertex 61.06 0 0
      vertex 53.8464 23.1164 0
      vertex 61.06 90.05 0
    endloop
  endfacet
  facet normal 0 0 -1
    outer loop
      vertex 53.8464 67.6164 0
      vertex 61.06 90.05 0
      vertex 53.88 67.275 0
    endloop
  endfacet
  facet normal 0 0 -1
    outer loop
      vertex 53.7468 67.9447 0
      vertex 61.06 90.05 0
      vertex 53.8464 67.6164 0
    endloop
  endfacet
  facet normal 0 0 -1
    outer loop
      vertex 53.5851 68.2472 0
      vertex 61.06 90.05 0
      vertex 53.7468 67.9447 0
    endloop
  endfacet
  facet normal 0 0 -1
    outer loop
      vertex 53.3674 68.5124 0
      vertex 61.06 90.05 0
      vertex 53.5851 68.2472 0
    endloop
  endfacet
  facet normal 0 0 -1
    outer loop
      vertex 53.1022 68.7301 0
      vertex 61.06 90.05 0
      vertex 53.3674 68.5124 0
    endloop
  endfacet
  facet normal 0 0 -1
    outer loop
      vertex 52.7997 68.8918 0
      vertex 61.06 90.05 0
      vertex 53.1022 68.7301 0
    endloop
  endfacet
  facet normal 0 0 -1
    outer loop
      vertex 52.4714 68.9914 0
      vertex 61.06 90.05 0
      vertex 52.7997 68.8918 0
    endloop
  endfacet
  facet normal 0 0 -1
    outer loop
      vertex 45.53 75.025 0
      vertex 52.4714 68.9914 0
      vertex 52.13 69.025 0
    endloop
  endfacet
  facet normal 0 0 -1
    outer loop
      vertex 45.53 75.025 0
      vertex 52.13 69.025 0
      vertex 51.7886 68.9914 0
    endloop
  endfacet
  facet normal 0 0 -1
    outer loop
      vertex 45.53 75.025 0
      vertex 51.7886 68.9914 0
      vertex 51.4603 68.8918 0
    endloop
  endfacet
  facet normal 0 0 -1
    outer loop
      vertex 45.53 75.025 0
      vertex 51.4603 68.8918 0
      vertex 51.1578 68.7301 0
    endloop
  endfacet
  facet normal 0 0 -1
    outer loop
      vertex 45.53 75.025 0
      vertex 51.1578 68.7301 0
      vertex 50.8926 68.5124 0
    endloop
  endfacet
  facet normal 0 0 -1
    outer loop
      vertex 45.53 75.025 0
      vertex 50.8926 68.5124 0
      vertex 50.6749 68.2472 0
    endloop
  endfacet
  facet normal 0 0 -1
    outer loop
      vertex 45.53 75.025 0
      vertex 50.6749 68.2472 0
      vertex 50.5132 67.9447 0
    endloop
  endfacet
  facet normal 0 0 -1
    outer loop
      vertex 50.4136 66.9336 0
      vertex 45.53 75.025 0
      vertex 50.38 67.275 0
    endloop
  endfacet
  facet normal 0 0 -1
    outer loop
      vertex 45.53 75.025 0
      vertex 50.4136 67.6164 0
      vertex 50.38 67.275 0
    endloop
  endfacet
  facet normal 0 0 -1
    outer loop
      vertex 45.53 75.025 0
      vertex 50.5132 67.9447 0
      vertex 50.4136 67.6164 0
    endloop
  endfacet
  facet normal 0 0 -1
    outer loop
      vertex 52.4714 68.9914 0
      vertex 45.53 75.025 0
      vertex 61.06 90.05 0
    endloop
  endfacet
  facet normal 0 0 -1
    outer loop
      vertex 15.53 75.025 0
      vertex 61.06 90.05 0
      vertex 45.53 75.025 0
    endloop
  endfacet
  facet normal 0 0 -1
    outer loop
      vertex 10.6464 45.3664 0
      vertex 15.53 75.025 0
      vertex 10.68 45.025 0
    endloop
  endfacet
  facet normal 0 0 -1
    outer loop
      vertex 10.5468 45.6947 0
      vertex 15.53 75.025 0
      vertex 10.6464 45.3664 0
    endloop
  endfacet
  facet normal 0 0 -1
    outer loop
      vertex 10.3851 45.9972 0
      vertex 15.53 75.025 0
      vertex 10.5468 45.6947 0
    endloop
  endfacet
  facet normal 0 0 -1
    outer loop
      vertex 10.1674 46.2624 0
      vertex 15.53 75.025 0
      vertex 10.3851 45.9972 0
    endloop
  endfacet
  facet normal 0 0 -1
    outer loop
      vertex 9.90225 46.4801 0
      vertex 15.53 75.025 0
      vertex 10.1674 46.2624 0
    endloop
  endfacet
  facet normal 0 0 -1
    outer loop
      vertex 9.5997 46.6418 0
      vertex 15.53 75.025 0
      vertex 9.90225 46.4801 0
    endloop
  endfacet
  facet normal 0 0 -1
    outer loop
      vertex 9.27141 46.7414 0
      vertex 15.53 75.025 0
      vertex 9.5997 46.6418 0
    endloop
  endfacet
  facet normal 0 0 -1
    outer loop
      vertex 8.93 46.775 0
      vertex 15.53 75.025 0
      vertex 9.27141 46.7414 0
    endloop
  endfacet
  facet normal 0 0 -1
    outer loop
      vertex 8.58859 46.7414 0
      vertex 15.53 75.025 0
      vertex 8.93 46.775 0
    endloop
  endfacet
  facet normal 0 0 -1
    outer loop
      vertex 8.2603 46.6418 0
      vertex 15.53 75.025 0
      vertex 8.58859 46.7414 0
    endloop
  endfacet
  facet normal 0 0 -1
    outer loop
      vertex 7.95775 46.4801 0
      vertex 15.53 75.025 0
      vertex 8.2603 46.6418 0
    endloop
  endfacet
  facet normal 0 0 -1
    outer loop
      vertex 7.69256 46.2624 0
      vertex 15.53 75.025 0
      vertex 7.95775 46.4801 0
    endloop
  endfacet
  facet normal 0 0 -1
    outer loop
      vertex 0 90.05 0
      vertex 7.69256 46.2624 0
      vertex 7.47493 45.9972 0
    endloop
  endfacet
  facet normal 0 0 -1
    outer loop
      vertex 0 90.05 0
      vertex 7.47493 45.9972 0
      vertex 7.31321 45.6947 0
    endloop
  endfacet
  facet normal 0 0 -1
    outer loop
      vertex 0 90.05 0
      vertex 7.31321 45.6947 0
      vertex 7.21362 45.3664 0
    endloop
  endfacet
  facet normal 0 0 -1
    outer loop
      vertex 0 90.05 0
      vertex 7.18 45.025 0
      vertex 0 0 0
    endloop
  endfacet
  facet normal 0 0 -1
    outer loop
      vertex 15.53 75.025 0
      vertex 0 90.05 0
      vertex 61.06 90.05 0
    endloop
  endfacet
  facet normal 0 0 -1
    outer loop
      vertex 7.69256 46.2624 0
      vertex 0 90.05 0
      vertex 15.53 75.025 0
    endloop
  endfacet
  facet normal 0 0 -1
    outer loop
      vertex 7.18 45.025 0
      vertex 0 90.05 0
      vertex 7.21362 45.3664 0
    endloop
  endfacet
  facet normal 0 -1 0
    outer loop
      vertex 0 0 10
      vertex 20 0 2.5
      vertex 20 0 10
    endloop
  endfacet
  facet normal 0 -1 -0
    outer loop
      vertex 20 0 2.5
      vertex 0 0 0
      vertex 41.06 0 2.5
    endloop
  endfacet
  facet normal 0 -1 0
    outer loop
      vertex 0 0 0
      vertex 20 0 2.5
      vertex 0 0 10
    endloop
  endfacet
  facet normal 0 -1 0
    outer loop
      vertex 41.06 0 2.5
      vertex 61.06 0 10
      vertex 41.06 0 10
    endloop
  endfacet
  facet normal 0 -1 0
    outer loop
      vertex 41.06 0 2.5
      vertex 61.06 0 0
      vertex 61.06 0 10
    endloop
  endfacet
  facet normal 0 -1 0
    outer loop
      vertex 61.06 0 0
      vertex 41.06 0 2.5
      vertex 0 0 0
    endloop
  endfacet
  facet normal -0.881921 -0.471398 0
    outer loop
      vertex 10.5468 45.6947 0
      vertex 10.3851 45.9972 2.5
      vertex 10.3851 45.9972 0
    endloop
  endfacet
  facet normal -0.881921 -0.471398 0
    outer loop
      vertex 10.3851 45.9972 2.5
      vertex 10.5468 45.6947 0
      vertex 10.5468 45.6947 2.5
    endloop
  endfacet
  facet normal 0.995185 -0.0980168 0
    outer loop
      vertex 7.18 45.025 2.5
      vertex 7.21362 45.3664 0
      vertex 7.21362 45.3664 2.5
    endloop
  endfacet
  facet normal 0.995185 -0.0980168 0
    outer loop
      vertex 7.21362 45.3664 0
      vertex 7.18 45.025 2.5
      vertex 7.18 45.025 0
    endloop
  endfacet
  facet normal -0.773012 -0.634392 0
    outer loop
      vertex 10.3851 45.9972 0
      vertex 10.1674 46.2624 2.5
      vertex 10.1674 46.2624 0
    endloop
  endfacet
  facet normal -0.773012 -0.634392 0
    outer loop
      vertex 10.1674 46.2624 2.5
      vertex 10.3851 45.9972 0
      vertex 10.3851 45.9972 2.5
    endloop
  endfacet
  facet normal -0.290288 -0.956939 0
    outer loop
      vertex 9.27141 46.7414 0
      vertex 9.5997 46.6418 2.5
      vertex 9.27141 46.7414 2.5
    endloop
  endfacet
  facet normal -0.290288 -0.956939 -0
    outer loop
      vertex 9.5997 46.6418 2.5
      vertex 9.27141 46.7414 0
      vertex 9.5997 46.6418 0
    endloop
  endfacet
  facet normal 0.471394 -0.881923 0
    outer loop
      vertex 7.95775 46.4801 0
      vertex 8.2603 46.6418 2.5
      vertex 7.95775 46.4801 2.5
    endloop
  endfacet
  facet normal 0.471394 -0.881923 0
    outer loop
      vertex 8.2603 46.6418 2.5
      vertex 7.95775 46.4801 0
      vertex 8.2603 46.6418 0
    endloop
  endfacet
  facet normal 0.956939 -0.290288 0
    outer loop
      vertex 7.21362 45.3664 2.5
      vertex 7.31321 45.6947 0
      vertex 7.31321 45.6947 2.5
    endloop
  endfacet
  facet normal 0.956939 -0.290288 0
    outer loop
      vertex 7.31321 45.6947 0
      vertex 7.21362 45.3664 2.5
      vertex 7.21362 45.3664 0
    endloop
  endfacet
  facet normal -0.995185 0.0980168 0
    outer loop
      vertex 10.6464 44.6836 0
      vertex 10.68 45.025 2.5
      vertex 10.68 45.025 0
    endloop
  endfacet
  facet normal -0.995185 0.0980168 0
    outer loop
      vertex 10.68 45.025 2.5
      vertex 10.6464 44.6836 0
      vertex 10.6464 44.6836 2.5
    endloop
  endfacet
  facet normal -0.290288 0.956939 0
    outer loop
      vertex 9.5997 43.4082 0
      vertex 9.27141 43.3086 2.5
      vertex 9.5997 43.4082 2.5
    endloop
  endfacet
  facet normal -0.290288 0.956939 0
    outer loop
      vertex 9.27141 43.3086 2.5
      vertex 9.5997 43.4082 0
      vertex 9.27141 43.3086 0
    endloop
  endfacet
  facet normal -0.95694 -0.290286 0
    outer loop
      vertex 10.6464 45.3664 0
      vertex 10.5468 45.6947 2.5
      vertex 10.5468 45.6947 0
    endloop
  endfacet
  facet normal -0.95694 -0.290286 0
    outer loop
      vertex 10.5468 45.6947 2.5
      vertex 10.6464 45.3664 0
      vertex 10.6464 45.3664 2.5
    endloop
  endfacet
  facet normal -0.634395 -0.773009 0
    outer loop
      vertex 9.90225 46.4801 0
      vertex 10.1674 46.2624 2.5
      vertex 9.90225 46.4801 2.5
    endloop
  endfacet
  facet normal -0.634395 -0.773009 -0
    outer loop
      vertex 10.1674 46.2624 2.5
      vertex 9.90225 46.4801 0
      vertex 10.1674 46.2624 0
    endloop
  endfacet
  facet normal 0.0980195 -0.995184 0
    outer loop
      vertex 8.58859 46.7414 0
      vertex 8.93 46.775 2.5
      vertex 8.58859 46.7414 2.5
    endloop
  endfacet
  facet normal 0.0980195 -0.995184 0
    outer loop
      vertex 8.93 46.775 2.5
      vertex 8.58859 46.7414 0
      vertex 8.93 46.775 0
    endloop
  endfacet
  facet normal -0.471394 -0.881923 0
    outer loop
      vertex 9.5997 46.6418 0
      vertex 9.90225 46.4801 2.5
      vertex 9.5997 46.6418 2.5
    endloop
  endfacet
  facet normal -0.471394 -0.881923 -0
    outer loop
      vertex 9.90225 46.4801 2.5
      vertex 9.5997 46.6418 0
      vertex 9.90225 46.4801 0
    endloop
  endfacet
  facet normal 0.881921 -0.471398 0
    outer loop
      vertex 7.31321 45.6947 2.5
      vertex 7.47493 45.9972 0
      vertex 7.47493 45.9972 2.5
    endloop
  endfacet
  facet normal 0.881921 -0.471398 0
    outer loop
      vertex 7.47493 45.9972 0
      vertex 7.31321 45.6947 2.5
      vertex 7.31321 45.6947 0
    endloop
  endfacet
  facet normal 0.634396 -0.773008 0
    outer loop
      vertex 7.69256 46.2624 0
      vertex 7.95775 46.4801 2.5
      vertex 7.69256 46.2624 2.5
    endloop
  endfacet
  facet normal 0.634396 -0.773008 0
    outer loop
      vertex 7.95775 46.4801 2.5
      vertex 7.69256 46.2624 0
      vertex 7.95775 46.4801 0
    endloop
  endfacet
  facet normal 0.290288 -0.956939 0
    outer loop
      vertex 8.2603 46.6418 0
      vertex 8.58859 46.7414 2.5
      vertex 8.2603 46.6418 2.5
    endloop
  endfacet
  facet normal 0.290288 -0.956939 0
    outer loop
      vertex 8.58859 46.7414 2.5
      vertex 8.2603 46.6418 0
      vertex 8.58859 46.7414 0
    endloop
  endfacet
  facet normal 0.773012 -0.634392 0
    outer loop
      vertex 7.47493 45.9972 2.5
      vertex 7.69256 46.2624 0
      vertex 7.69256 46.2624 2.5
    endloop
  endfacet
  facet normal 0.773012 -0.634392 0
    outer loop
      vertex 7.69256 46.2624 0
      vertex 7.47493 45.9972 2.5
      vertex 7.47493 45.9972 0
    endloop
  endfacet
  facet normal -0.995185 -0.0980168 0
    outer loop
      vertex 10.68 45.025 0
      vertex 10.6464 45.3664 2.5
      vertex 10.6464 45.3664 0
    endloop
  endfacet
  facet normal -0.995185 -0.0980168 0
    outer loop
      vertex 10.6464 45.3664 2.5
      vertex 10.68 45.025 0
      vertex 10.68 45.025 2.5
    endloop
  endfacet
  facet normal -0.634395 0.773009 0
    outer loop
      vertex 10.1674 43.7876 0
      vertex 9.90225 43.5699 2.5
      vertex 10.1674 43.7876 2.5
    endloop
  endfacet
  facet normal -0.634395 0.773009 0
    outer loop
      vertex 9.90225 43.5699 2.5
      vertex 10.1674 43.7876 0
      vertex 9.90225 43.5699 0
    endloop
  endfacet
  facet normal -0.956941 0.290283 0
    outer loop
      vertex 10.5468 44.3553 0
      vertex 10.6464 44.6836 2.5
      vertex 10.6464 44.6836 0
    endloop
  endfacet
  facet normal -0.956941 0.290283 0
    outer loop
      vertex 10.6464 44.6836 2.5
      vertex 10.5468 44.3553 0
      vertex 10.5468 44.3553 2.5
    endloop
  endfacet
  facet normal 0.634396 0.773008 -0
    outer loop
      vertex 7.95775 43.5699 0
      vertex 7.69256 43.7876 2.5
      vertex 7.95775 43.5699 2.5
    endloop
  endfacet
  facet normal 0.634396 0.773008 0
    outer loop
      vertex 7.69256 43.7876 2.5
      vertex 7.95775 43.5699 0
      vertex 7.69256 43.7876 0
    endloop
  endfacet
  facet normal 0.881923 0.471393 0
    outer loop
      vertex 7.47493 44.0527 2.5
      vertex 7.31321 44.3553 0
      vertex 7.31321 44.3553 2.5
    endloop
  endfacet
  facet normal 0.881923 0.471393 0
    outer loop
      vertex 7.31321 44.3553 0
      vertex 7.47493 44.0527 2.5
      vertex 7.47493 44.0527 0
    endloop
  endfacet
  facet normal -0.0980195 -0.995184 0
    outer loop
      vertex 8.93 46.775 0
      vertex 9.27141 46.7414 2.5
      vertex 8.93 46.775 2.5
    endloop
  endfacet
  facet normal -0.0980195 -0.995184 -0
    outer loop
      vertex 9.27141 46.7414 2.5
      vertex 8.93 46.775 0
      vertex 9.27141 46.7414 0
    endloop
  endfacet
  facet normal 0.995185 0.0980168 0
    outer loop
      vertex 7.21362 44.6836 2.5
      vertex 7.18 45.025 0
      vertex 7.18 45.025 2.5
    endloop
  endfacet
  facet normal 0.995185 0.0980168 0
    outer loop
      vertex 7.18 45.025 0
      vertex 7.21362 44.6836 2.5
      vertex 7.21362 44.6836 0
    endloop
  endfacet
  facet normal 0.773007 0.634397 0
    outer loop
      vertex 7.69256 43.7876 2.5
      vertex 7.47493 44.0527 0
      vertex 7.47493 44.0527 2.5
    endloop
  endfacet
  facet normal 0.773007 0.634397 0
    outer loop
      vertex 7.47493 44.0527 0
      vertex 7.69256 43.7876 2.5
      vertex 7.69256 43.7876 0
    endloop
  endfacet
  facet normal -0.471394 0.881923 0
    outer loop
      vertex 9.90225 43.5699 0
      vertex 9.5997 43.4082 2.5
      vertex 9.90225 43.5699 2.5
    endloop
  endfacet
  facet normal -0.471394 0.881923 0
    outer loop
      vertex 9.5997 43.4082 2.5
      vertex 9.90225 43.5699 0
      vertex 9.5997 43.4082 0
    endloop
  endfacet
  facet normal -0.773007 0.634397 0
    outer loop
      vertex 10.1674 43.7876 0
      vertex 10.3851 44.0527 2.5
      vertex 10.3851 44.0527 0
    endloop
  endfacet
  facet normal -0.773007 0.634397 0
    outer loop
      vertex 10.3851 44.0527 2.5
      vertex 10.1674 43.7876 0
      vertex 10.1674 43.7876 2.5
    endloop
  endfacet
  facet normal -0.881923 0.471393 0
    outer loop
      vertex 10.3851 44.0527 0
      vertex 10.5468 44.3553 2.5
      vertex 10.5468 44.3553 0
    endloop
  endfacet
  facet normal -0.881923 0.471393 0
    outer loop
      vertex 10.5468 44.3553 2.5
      vertex 10.3851 44.0527 0
      vertex 10.3851 44.0527 2.5
    endloop
  endfacet
  facet normal -0.0980085 0.995186 0
    outer loop
      vertex 9.27141 43.3086 0
      vertex 8.93 43.275 2.5
      vertex 9.27141 43.3086 2.5
    endloop
  endfacet
  facet normal -0.0980085 0.995186 0
    outer loop
      vertex 8.93 43.275 2.5
      vertex 9.27141 43.3086 0
      vertex 8.93 43.275 0
    endloop
  endfacet
  facet normal 0.0980085 0.995186 -0
    outer loop
      vertex 8.93 43.275 0
      vertex 8.58859 43.3086 2.5
      vertex 8.93 43.275 2.5
    endloop
  endfacet
  facet normal 0.0980085 0.995186 0
    outer loop
      vertex 8.58859 43.3086 2.5
      vertex 8.93 43.275 0
      vertex 8.58859 43.3086 0
    endloop
  endfacet
  facet normal 0.95694 0.290285 0
    outer loop
      vertex 7.31321 44.3553 2.5
      vertex 7.21362 44.6836 0
      vertex 7.21362 44.6836 2.5
    endloop
  endfacet
  facet normal 0.95694 0.290285 0
    outer loop
      vertex 7.21362 44.6836 0
      vertex 7.31321 44.3553 2.5
      vertex 7.31321 44.3553 0
    endloop
  endfacet
  facet normal 0.471394 0.881923 -0
    outer loop
      vertex 8.2603 43.4082 0
      vertex 7.95775 43.5699 2.5
      vertex 8.2603 43.4082 2.5
    endloop
  endfacet
  facet normal 0.471394 0.881923 0
    outer loop
      vertex 7.95775 43.5699 2.5
      vertex 8.2603 43.4082 0
      vertex 7.95775 43.5699 0
    endloop
  endfacet
  facet normal 0.290288 0.956939 -0
    outer loop
      vertex 8.58859 43.3086 0
      vertex 8.2603 43.4082 2.5
      vertex 8.58859 43.3086 2.5
    endloop
  endfacet
  facet normal 0.290288 0.956939 0
    outer loop
      vertex 8.2603 43.4082 2.5
      vertex 8.58859 43.3086 0
      vertex 8.2603 43.4082 0
    endloop
  endfacet
  facet normal -0.881922 -0.471395 0
    outer loop
      vertex 53.7468 67.9447 0
      vertex 53.5851 68.2472 2.5
      vertex 53.5851 68.2472 0
    endloop
  endfacet
  facet normal -0.881922 -0.471395 0
    outer loop
      vertex 53.5851 68.2472 2.5
      vertex 53.7468 67.9447 0
      vertex 53.7468 67.9447 2.5
    endloop
  endfacet
  facet normal 0.956942 -0.290281 0
    outer loop
      vertex 50.4136 67.6164 2.5
      vertex 50.5132 67.9447 0
      vertex 50.5132 67.9447 2.5
    endloop
  endfacet
  facet normal 0.956942 -0.290281 0
    outer loop
      vertex 50.5132 67.9447 0
      vertex 50.4136 67.6164 2.5
      vertex 50.4136 67.6164 0
    endloop
  endfacet
  facet normal -0.77301 -0.634394 0
    outer loop
      vertex 53.5851 68.2472 0
      vertex 53.3674 68.5124 2.5
      vertex 53.3674 68.5124 0
    endloop
  endfacet
  facet normal -0.77301 -0.634394 0
    outer loop
      vertex 53.3674 68.5124 2.5
      vertex 53.5851 68.2472 0
      vertex 53.5851 68.2472 2.5
    endloop
  endfacet
  facet normal -0.0980295 -0.995184 0
    outer loop
      vertex 52.13 69.025 0
      vertex 52.4714 68.9914 2.5
      vertex 52.13 69.025 2.5
    endloop
  endfacet
  facet normal -0.0980295 -0.995184 -0
    outer loop
      vertex 52.4714 68.9914 2.5
      vertex 52.13 69.025 0
      vertex 52.4714 68.9914 0
    endloop
  endfacet
  facet normal -0.290288 -0.956939 0
    outer loop
      vertex 52.4714 68.9914 0
      vertex 52.7997 68.8918 2.5
      vertex 52.4714 68.9914 2.5
    endloop
  endfacet
  facet normal -0.290288 -0.956939 -0
    outer loop
      vertex 52.7997 68.8918 2.5
      vertex 52.4714 68.9914 0
      vertex 52.7997 68.8918 0
    endloop
  endfacet
  facet normal 0.471387 -0.881927 0
    outer loop
      vertex 51.1578 68.7301 0
      vertex 51.4603 68.8918 2.5
      vertex 51.1578 68.7301 2.5
    endloop
  endfacet
  facet normal 0.471387 -0.881927 0
    outer loop
      vertex 51.4603 68.8918 2.5
      vertex 51.1578 68.7301 0
      vertex 51.4603 68.8918 0
    endloop
  endfacet
  facet normal 0.881922 -0.471395 0
    outer loop
      vertex 50.5132 67.9447 2.5
      vertex 50.6749 68.2472 0
      vertex 50.6749 68.2472 2.5
    endloop
  endfacet
  facet normal 0.881922 -0.471395 0
    outer loop
      vertex 50.6749 68.2472 0
      vertex 50.5132 67.9447 2.5
      vertex 50.5132 67.9447 0
    endloop
  endfacet
  facet normal -0.995186 0.0980085 0
    outer loop
      vertex 53.8464 66.9336 0
      vertex 53.88 67.275 2.5
      vertex 53.88 67.275 0
    endloop
  endfacet
  facet normal -0.995186 0.0980085 0
    outer loop
      vertex 53.88 67.275 2.5
      vertex 53.8464 66.9336 0
      vertex 53.8464 66.9336 2.5
    endloop
  endfacet
  facet normal -0.290288 0.956939 0
    outer loop
      vertex 52.7997 65.6582 0
      vertex 52.4714 65.5586 2.5
      vertex 52.7997 65.6582 2.5
    endloop
  endfacet
  facet normal -0.290288 0.956939 0
    outer loop
      vertex 52.4714 65.5586 2.5
      vertex 52.7997 65.6582 0
      vertex 52.4714 65.5586 0
    endloop
  endfacet
  facet normal -0.956939 -0.290291 0
    outer loop
      vertex 53.8464 67.6164 0
      vertex 53.7468 67.9447 2.5
      vertex 53.7468 67.9447 0
    endloop
  endfacet
  facet normal -0.956939 -0.290291 0
    outer loop
      vertex 53.7468 67.9447 2.5
      vertex 53.8464 67.6164 0
      vertex 53.8464 67.6164 2.5
    endloop
  endfacet
  facet normal -0.634399 -0.773006 0
    outer loop
      vertex 53.1022 68.7301 0
      vertex 53.3674 68.5124 2.5
      vertex 53.1022 68.7301 2.5
    endloop
  endfacet
  facet normal -0.634399 -0.773006 -0
    outer loop
      vertex 53.3674 68.5124 2.5
      vertex 53.1022 68.7301 0
      vertex 53.3674 68.5124 0
    endloop
  endfacet
  facet normal 0.0980305 -0.995183 0
    outer loop
      vertex 51.7886 68.9914 0
      vertex 52.13 69.025 2.5
      vertex 51.7886 68.9914 2.5
    endloop
  endfacet
  facet normal 0.0980305 -0.995183 0
    outer loop
      vertex 52.13 69.025 2.5
      vertex 51.7886 68.9914 0
      vertex 52.13 69.025 0
    endloop
  endfacet
  facet normal -0.471387 -0.881927 0
    outer loop
      vertex 52.7997 68.8918 0
      vertex 53.1022 68.7301 2.5
      vertex 52.7997 68.8918 2.5
    endloop
  endfacet
  facet normal -0.471387 -0.881927 -0
    outer loop
      vertex 53.1022 68.7301 2.5
      vertex 52.7997 68.8918 0
      vertex 53.1022 68.7301 0
    endloop
  endfacet
  facet normal 0.995183 -0.0980305 0
    outer loop
      vertex 50.38 67.275 2.5
      vertex 50.4136 67.6164 0
      vertex 50.4136 67.6164 2.5
    endloop
  endfacet
  facet normal 0.995183 -0.0980305 0
    outer loop
      vertex 50.4136 67.6164 0
      vertex 50.38 67.275 2.5
      vertex 50.38 67.275 0
    endloop
  endfacet
  facet normal 0.634394 -0.77301 0
    outer loop
      vertex 50.8926 68.5124 0
      vertex 51.1578 68.7301 2.5
      vertex 50.8926 68.5124 2.5
    endloop
  endfacet
  facet normal 0.634394 -0.77301 0
    outer loop
      vertex 51.1578 68.7301 2.5
      vertex 50.8926 68.5124 0
      vertex 51.1578 68.7301 0
    endloop
  endfacet
  facet normal 0.290291 -0.956939 0
    outer loop
      vertex 51.4603 68.8918 0
      vertex 51.7886 68.9914 2.5
      vertex 51.4603 68.8918 2.5
    endloop
  endfacet
  facet normal 0.290291 -0.956939 0
    outer loop
      vertex 51.7886 68.9914 2.5
      vertex 51.4603 68.8918 0
      vertex 51.7886 68.9914 0
    endloop
  endfacet
  facet normal 0.77301 -0.634394 0
    outer loop
      vertex 50.6749 68.2472 2.5
      vertex 50.8926 68.5124 0
      vertex 50.8926 68.5124 2.5
    endloop
  endfacet
  facet normal 0.77301 -0.634394 0
    outer loop
      vertex 50.8926 68.5124 0
      vertex 50.6749 68.2472 2.5
      vertex 50.6749 68.2472 0
    endloop
  endfacet
  facet normal -0.995186 -0.0980085 0
    outer loop
      vertex 53.88 67.275 0
      vertex 53.8464 67.6164 2.5
      vertex 53.8464 67.6164 0
    endloop
  endfacet
  facet normal -0.995186 -0.0980085 0
    outer loop
      vertex 53.8464 67.6164 2.5
      vertex 53.88 67.275 0
      vertex 53.88 67.275 2.5
    endloop
  endfacet
  facet normal -0.634386 0.773017 0
    outer loop
      vertex 53.3674 66.0376 0
      vertex 53.1022 65.8199 2.5
      vertex 53.3674 66.0376 2.5
    endloop
  endfacet
  facet normal -0.634386 0.773017 0
    outer loop
      vertex 53.1022 65.8199 2.5
      vertex 53.3674 66.0376 0
      vertex 53.1022 65.8199 0
    endloop
  endfacet
  facet normal -0.95694 0.290285 0
    outer loop
      vertex 53.7468 66.6053 0
      vertex 53.8464 66.9336 2.5
      vertex 53.8464 66.9336 0
    endloop
  endfacet
  facet normal -0.95694 0.290285 0
    outer loop
      vertex 53.8464 66.9336 2.5
      vertex 53.7468 66.6053 0
      vertex 53.7468 66.6053 2.5
    endloop
  endfacet
  facet normal 0.63438 0.773021 -0
    outer loop
      vertex 51.1578 65.8199 0
      vertex 50.8926 66.0376 2.5
      vertex 51.1578 65.8199 2.5
    endloop
  endfacet
  facet normal 0.63438 0.773021 0
    outer loop
      vertex 50.8926 66.0376 2.5
      vertex 51.1578 65.8199 0
      vertex 50.8926 66.0376 0
    endloop
  endfacet
  facet normal 0.881922 0.471395 0
    outer loop
      vertex 50.6749 66.3027 2.5
      vertex 50.5132 66.6053 0
      vertex 50.5132 66.6053 2.5
    endloop
  endfacet
  facet normal 0.881922 0.471395 0
    outer loop
      vertex 50.5132 66.6053 0
      vertex 50.6749 66.3027 2.5
      vertex 50.6749 66.3027 0
    endloop
  endfacet
  facet normal -0.0980074 0.995186 0
    outer loop
      vertex 52.4714 65.5586 0
      vertex 52.13 65.525 2.5
      vertex 52.4714 65.5586 2.5
    endloop
  endfacet
  facet normal -0.0980074 0.995186 0
    outer loop
      vertex 52.13 65.525 2.5
      vertex 52.4714 65.5586 0
      vertex 52.13 65.525 0
    endloop
  endfacet
  facet normal 0.77301 0.634394 0
    outer loop
      vertex 50.8926 66.0376 2.5
      vertex 50.6749 66.3027 0
      vertex 50.6749 66.3027 2.5
    endloop
  endfacet
  facet normal 0.77301 0.634394 0
    outer loop
      vertex 50.6749 66.3027 0
      vertex 50.8926 66.0376 2.5
      vertex 50.8926 66.0376 0
    endloop
  endfacet
  facet normal -0.471404 0.881917 0
    outer loop
      vertex 53.1022 65.8199 0
      vertex 52.7997 65.6582 2.5
      vertex 53.1022 65.8199 2.5
    endloop
  endfacet
  facet normal -0.471404 0.881917 0
    outer loop
      vertex 52.7997 65.6582 2.5
      vertex 53.1022 65.8199 0
      vertex 52.7997 65.6582 0
    endloop
  endfacet
  facet normal -0.77301 0.634394 0
    outer loop
      vertex 53.3674 66.0376 0
      vertex 53.5851 66.3027 2.5
      vertex 53.5851 66.3027 0
    endloop
  endfacet
  facet normal -0.77301 0.634394 0
    outer loop
      vertex 53.5851 66.3027 2.5
      vertex 53.3674 66.0376 0
      vertex 53.3674 66.0376 2.5
    endloop
  endfacet
  facet normal -0.881922 0.471395 0
    outer loop
      vertex 53.5851 66.3027 0
      vertex 53.7468 66.6053 2.5
      vertex 53.7468 66.6053 0
    endloop
  endfacet
  facet normal -0.881922 0.471395 0
    outer loop
      vertex 53.7468 66.6053 2.5
      vertex 53.5851 66.3027 0
      vertex 53.5851 66.3027 2.5
    endloop
  endfacet
  facet normal 0.956943 0.290274 0
    outer loop
      vertex 50.5132 66.6053 2.5
      vertex 50.4136 66.9336 0
      vertex 50.4136 66.9336 2.5
    endloop
  endfacet
  facet normal 0.956943 0.290274 0
    outer loop
      vertex 50.4136 66.9336 0
      vertex 50.5132 66.6053 2.5
      vertex 50.5132 66.6053 0
    endloop
  endfacet
  facet normal 0.995183 0.0980305 0
    outer loop
      vertex 50.4136 66.9336 2.5
      vertex 50.38 67.275 0
      vertex 50.38 67.275 2.5
    endloop
  endfacet
  facet normal 0.995183 0.0980305 0
    outer loop
      vertex 50.38 67.275 0
      vertex 50.4136 66.9336 2.5
      vertex 50.4136 66.9336 0
    endloop
  endfacet
  facet normal 0.290291 0.956939 -0
    outer loop
      vertex 51.7886 65.5586 0
      vertex 51.4603 65.6582 2.5
      vertex 51.7886 65.5586 2.5
    endloop
  endfacet
  facet normal 0.290291 0.956939 0
    outer loop
      vertex 51.4603 65.6582 2.5
      vertex 51.7886 65.5586 0
      vertex 51.4603 65.6582 0
    endloop
  endfacet
  facet normal 0.471404 0.881917 -0
    outer loop
      vertex 51.4603 65.6582 0
      vertex 51.1578 65.8199 2.5
      vertex 51.4603 65.6582 2.5
    endloop
  endfacet
  facet normal 0.471404 0.881917 0
    outer loop
      vertex 51.1578 65.8199 2.5
      vertex 51.4603 65.6582 0
      vertex 51.1578 65.8199 0
    endloop
  endfacet
  facet normal 0.0980085 0.995186 -0
    outer loop
      vertex 52.13 65.525 0
      vertex 51.7886 65.5586 2.5
      vertex 52.13 65.525 2.5
    endloop
  endfacet
  facet normal 0.0980085 0.995186 0
    outer loop
      vertex 51.7886 65.5586 2.5
      vertex 52.13 65.525 0
      vertex 51.7886 65.5586 0
    endloop
  endfacet
  facet normal -0.881923 -0.471393 0
    outer loop
      vertex 53.7468 23.4447 0
      vertex 53.5851 23.7472 2.5
      vertex 53.5851 23.7472 0
    endloop
  endfacet
  facet normal -0.881923 -0.471393 0
    outer loop
      vertex 53.5851 23.7472 2.5
      vertex 53.7468 23.4447 0
      vertex 53.7468 23.4447 2.5
    endloop
  endfacet
  facet normal -0.773008 -0.634396 0
    outer loop
      vertex 53.5851 23.7472 0
      vertex 53.3674 24.0124 2.5
      vertex 53.3674 24.0124 0
    endloop
  endfacet
  facet normal -0.773008 -0.634396 0
    outer loop
      vertex 53.3674 24.0124 2.5
      vertex 53.5851 23.7472 0
      vertex 53.5851 23.7472 2.5
    endloop
  endfacet
  facet normal -0.0980129 -0.995185 0
    outer loop
      vertex 52.13 24.525 0
      vertex 52.4714 24.4914 2.5
      vertex 52.13 24.525 2.5
    endloop
  endfacet
  facet normal -0.0980129 -0.995185 -0
    outer loop
      vertex 52.4714 24.4914 2.5
      vertex 52.13 24.525 0
      vertex 52.4714 24.4914 0
    endloop
  endfacet
  facet normal -0.290288 -0.956939 0
    outer loop
      vertex 52.4714 24.4914 0
      vertex 52.7997 24.3918 2.5
      vertex 52.4714 24.4914 2.5
    endloop
  endfacet
  facet normal -0.290288 -0.956939 -0
    outer loop
      vertex 52.7997 24.3918 2.5
      vertex 52.4714 24.4914 0
      vertex 52.7997 24.3918 0
    endloop
  endfacet
  facet normal 0.471395 -0.881922 0
    outer loop
      vertex 51.1578 24.2301 0
      vertex 51.4603 24.3918 2.5
      vertex 51.1578 24.2301 2.5
    endloop
  endfacet
  facet normal 0.471395 -0.881922 0
    outer loop
      vertex 51.4603 24.3918 2.5
      vertex 51.1578 24.2301 0
      vertex 51.4603 24.3918 0
    endloop
  endfacet
  facet normal -0.995186 0.0980085 0
    outer loop
      vertex 53.8464 22.4336 0
      vertex 53.88 22.775 2.5
      vertex 53.88 22.775 0
    endloop
  endfacet
  facet normal -0.995186 0.0980085 0
    outer loop
      vertex 53.88 22.775 2.5
      vertex 53.8464 22.4336 0
      vertex 53.8464 22.4336 2.5
    endloop
  endfacet
  facet normal -0.290288 0.956939 0
    outer loop
      vertex 52.7997 21.1582 0
      vertex 52.4714 21.0586 2.5
      vertex 52.7997 21.1582 2.5
    endloop
  endfacet
  facet normal -0.290288 0.956939 0
    outer loop
      vertex 52.4714 21.0586 2.5
      vertex 52.7997 21.1582 0
      vertex 52.4714 21.0586 0
    endloop
  endfacet
  facet normal -0.634399 -0.773006 0
    outer loop
      vertex 53.1022 24.2301 0
      vertex 53.3674 24.0124 2.5
      vertex 53.1022 24.2301 2.5
    endloop
  endfacet
  facet normal -0.634399 -0.773006 -0
    outer loop
      vertex 53.3674 24.0124 2.5
      vertex 53.1022 24.2301 0
      vertex 53.3674 24.0124 0
    endloop
  endfacet
  facet normal 0.098014 -0.995185 0
    outer loop
      vertex 51.7886 24.4914 0
      vertex 52.13 24.525 2.5
      vertex 51.7886 24.4914 2.5
    endloop
  endfacet
  facet normal 0.098014 -0.995185 0
    outer loop
      vertex 52.13 24.525 2.5
      vertex 51.7886 24.4914 0
      vertex 52.13 24.525 0
    endloop
  endfacet
  facet normal -0.471395 -0.881922 0
    outer loop
      vertex 52.7997 24.3918 0
      vertex 53.1022 24.2301 2.5
      vertex 52.7997 24.3918 2.5
    endloop
  endfacet
  facet normal -0.471395 -0.881922 -0
    outer loop
      vertex 53.1022 24.2301 2.5
      vertex 52.7997 24.3918 0
      vertex 53.1022 24.2301 0
    endloop
  endfacet
  facet normal 0.995183 -0.0980305 0
    outer loop
      vertex 50.38 22.775 2.5
      vertex 50.4136 23.1164 0
      vertex 50.4136 23.1164 2.5
    endloop
  endfacet
  facet normal 0.995183 -0.0980305 0
    outer loop
      vertex 50.4136 23.1164 0
      vertex 50.38 22.775 2.5
      vertex 50.38 22.775 0
    endloop
  endfacet
  facet normal 0.881923 -0.471393 0
    outer loop
      vertex 50.5132 23.4447 2.5
      vertex 50.6749 23.7472 0
      vertex 50.6749 23.7472 2.5
    endloop
  endfacet
  facet normal 0.881923 -0.471393 0
    outer loop
      vertex 50.6749 23.7472 0
      vertex 50.5132 23.4447 2.5
      vertex 50.5132 23.4447 0
    endloop
  endfacet
  facet normal 0.634394 -0.77301 0
    outer loop
      vertex 50.8926 24.0124 0
      vertex 51.1578 24.2301 2.5
      vertex 50.8926 24.0124 2.5
    endloop
  endfacet
  facet normal 0.634394 -0.77301 0
    outer loop
      vertex 51.1578 24.2301 2.5
      vertex 50.8926 24.0124 0
      vertex 51.1578 24.2301 0
    endloop
  endfacet
  facet normal 0.290291 -0.956939 0
    outer loop
      vertex 51.4603 24.3918 0
      vertex 51.7886 24.4914 2.5
      vertex 51.4603 24.3918 2.5
    endloop
  endfacet
  facet normal 0.290291 -0.956939 0
    outer loop
      vertex 51.7886 24.4914 2.5
      vertex 51.4603 24.3918 0
      vertex 51.7886 24.4914 0
    endloop
  endfacet
  facet normal 0.773008 -0.634396 0
    outer loop
      vertex 50.6749 23.7472 2.5
      vertex 50.8926 24.0124 0
      vertex 50.8926 24.0124 2.5
    endloop
  endfacet
  facet normal 0.773008 -0.634396 0
    outer loop
      vertex 50.8926 24.0124 0
      vertex 50.6749 23.7472 2.5
      vertex 50.6749 23.7472 0
    endloop
  endfacet
  facet normal -0.995186 -0.0980085 0
    outer loop
      vertex 53.88 22.775 0
      vertex 53.8464 23.1164 2.5
      vertex 53.8464 23.1164 0
    endloop
  endfacet
  facet normal -0.995186 -0.0980085 0
    outer loop
      vertex 53.8464 23.1164 2.5
      vertex 53.88 22.775 0
      vertex 53.88 22.775 2.5
    endloop
  endfacet
  facet normal -0.634399 0.773006 0
    outer loop
      vertex 53.3674 21.5376 0
      vertex 53.1022 21.3199 2.5
      vertex 53.3674 21.5376 2.5
    endloop
  endfacet
  facet normal -0.634399 0.773006 0
    outer loop
      vertex 53.1022 21.3199 2.5
      vertex 53.3674 21.5376 0
      vertex 53.1022 21.3199 0
    endloop
  endfacet
  facet normal -0.956939 0.290289 0
    outer loop
      vertex 53.7468 22.1053 0
      vertex 53.8464 22.4336 2.5
      vertex 53.8464 22.4336 0
    endloop
  endfacet
  facet normal -0.956939 0.290289 0
    outer loop
      vertex 53.8464 22.4336 2.5
      vertex 53.7468 22.1053 0
      vertex 53.7468 22.1053 2.5
    endloop
  endfacet
  facet normal 0.634394 0.77301 -0
    outer loop
      vertex 51.1578 21.3199 0
      vertex 50.8926 21.5376 2.5
      vertex 51.1578 21.3199 2.5
    endloop
  endfacet
  facet normal 0.634394 0.77301 0
    outer loop
      vertex 50.8926 21.5376 2.5
      vertex 51.1578 21.3199 0
      vertex 50.8926 21.5376 0
    endloop
  endfacet
  facet normal 0.881923 0.471393 0
    outer loop
      vertex 50.6749 21.8028 2.5
      vertex 50.5132 22.1053 0
      vertex 50.5132 22.1053 2.5
    endloop
  endfacet
  facet normal 0.881923 0.471393 0
    outer loop
      vertex 50.5132 22.1053 0
      vertex 50.6749 21.8028 2.5
      vertex 50.6749 21.8028 0
    endloop
  endfacet
  facet normal -0.956939 -0.290289 0
    outer loop
      vertex 53.8464 23.1164 0
      vertex 53.7468 23.4447 2.5
      vertex 53.7468 23.4447 0
    endloop
  endfacet
  facet normal -0.956939 -0.290289 0
    outer loop
      vertex 53.7468 23.4447 2.5
      vertex 53.8464 23.1164 0
      vertex 53.8464 23.1164 2.5
    endloop
  endfacet
  facet normal 0.956942 -0.290279 0
    outer loop
      vertex 50.4136 23.1164 2.5
      vertex 50.5132 23.4447 0
      vertex 50.5132 23.4447 2.5
    endloop
  endfacet
  facet normal 0.956942 -0.290279 0
    outer loop
      vertex 50.5132 23.4447 0
      vertex 50.4136 23.1164 2.5
      vertex 50.4136 23.1164 0
    endloop
  endfacet
  facet normal -0.881923 0.471393 0
    outer loop
      vertex 53.5851 21.8028 0
      vertex 53.7468 22.1053 2.5
      vertex 53.7468 22.1053 0
    endloop
  endfacet
  facet normal -0.881923 0.471393 0
    outer loop
      vertex 53.7468 22.1053 2.5
      vertex 53.5851 21.8028 0
      vertex 53.5851 21.8028 2.5
    endloop
  endfacet
  facet normal -0.0980129 0.995185 0
    outer loop
      vertex 52.4714 21.0586 0
      vertex 52.13 21.025 2.5
      vertex 52.4714 21.0586 2.5
    endloop
  endfacet
  facet normal -0.0980129 0.995185 0
    outer loop
      vertex 52.13 21.025 2.5
      vertex 52.4714 21.0586 0
      vertex 52.13 21.025 0
    endloop
  endfacet
  facet normal 0.773008 0.634396 0
    outer loop
      vertex 50.8926 21.5376 2.5
      vertex 50.6749 21.8028 0
      vertex 50.6749 21.8028 2.5
    endloop
  endfacet
  facet normal 0.773008 0.634396 0
    outer loop
      vertex 50.6749 21.8028 0
      vertex 50.8926 21.5376 2.5
      vertex 50.8926 21.5376 0
    endloop
  endfacet
  facet normal -0.471395 0.881922 0
    outer loop
      vertex 53.1022 21.3199 0
      vertex 52.7997 21.1582 2.5
      vertex 53.1022 21.3199 2.5
    endloop
  endfacet
  facet normal -0.471395 0.881922 0
    outer loop
      vertex 52.7997 21.1582 2.5
      vertex 53.1022 21.3199 0
      vertex 52.7997 21.1582 0
    endloop
  endfacet
  facet normal -0.773008 0.634396 0
    outer loop
      vertex 53.3674 21.5376 0
      vertex 53.5851 21.8028 2.5
      vertex 53.5851 21.8028 0
    endloop
  endfacet
  facet normal -0.773008 0.634396 0
    outer loop
      vertex 53.5851 21.8028 2.5
      vertex 53.3674 21.5376 0
      vertex 53.3674 21.5376 2.5
    endloop
  endfacet
  facet normal 0.956942 0.290279 0
    outer loop
      vertex 50.5132 22.1053 2.5
      vertex 50.4136 22.4336 0
      vertex 50.4136 22.4336 2.5
    endloop
  endfacet
  facet normal 0.956942 0.290279 0
    outer loop
      vertex 50.4136 22.4336 0
      vertex 50.5132 22.1053 2.5
      vertex 50.5132 22.1053 0
    endloop
  endfacet
  facet normal 0.995183 0.0980305 0
    outer loop
      vertex 50.4136 22.4336 2.5
      vertex 50.38 22.775 0
      vertex 50.38 22.775 2.5
    endloop
  endfacet
  facet normal 0.995183 0.0980305 0
    outer loop
      vertex 50.38 22.775 0
      vertex 50.4136 22.4336 2.5
      vertex 50.4136 22.4336 0
    endloop
  endfacet
  facet normal 0.290291 0.956939 -0
    outer loop
      vertex 51.7886 21.0586 0
      vertex 51.4603 21.1582 2.5
      vertex 51.7886 21.0586 2.5
    endloop
  endfacet
  facet normal 0.290291 0.956939 0
    outer loop
      vertex 51.4603 21.1582 2.5
      vertex 51.7886 21.0586 0
      vertex 51.4603 21.1582 0
    endloop
  endfacet
  facet normal 0.471395 0.881922 -0
    outer loop
      vertex 51.4603 21.1582 0
      vertex 51.1578 21.3199 2.5
      vertex 51.4603 21.1582 2.5
    endloop
  endfacet
  facet normal 0.471395 0.881922 0
    outer loop
      vertex 51.1578 21.3199 2.5
      vertex 51.4603 21.1582 0
      vertex 51.1578 21.3199 0
    endloop
  endfacet
  facet normal 0.098014 0.995185 -0
    outer loop
      vertex 52.13 21.025 0
      vertex 51.7886 21.0586 2.5
      vertex 52.13 21.025 2.5
    endloop
  endfacet
  facet normal 0.098014 0.995185 0
    outer loop
      vertex 51.7886 21.0586 2.5
      vertex 52.13 21.025 0
      vertex 51.7886 21.0586 0
    endloop
  endfacet
  facet normal 1 -0 0
    outer loop
      vertex 15.53 15.025 2.5
      vertex 15.53 75.025 0
      vertex 15.53 75.025 2.5
    endloop
  endfacet
  facet normal 1 0 0
    outer loop
      vertex 15.53 75.025 0
      vertex 15.53 15.025 2.5
      vertex 15.53 15.025 0
    endloop
  endfacet
  facet normal -1 0 0
    outer loop
      vertex 45.53 15.025 0
      vertex 45.53 75.025 2.5
      vertex 45.53 75.025 0
    endloop
  endfacet
  facet normal -1 -0 0
    outer loop
      vertex 45.53 75.025 2.5
      vertex 45.53 15.025 0
      vertex 45.53 15.025 2.5
    endloop
  endfacet
  facet normal 0 -1 0
    outer loop
      vertex 15.53 75.025 0
      vertex 45.53 75.025 2.5
      vertex 15.53 75.025 2.5
    endloop
  endfacet
  facet normal 0 -1 -0
    outer loop
      vertex 45.53 75.025 2.5
      vertex 15.53 75.025 0
      vertex 45.53 75.025 0
    endloop
  endfacet
  facet normal 0 1 -0
    outer loop
      vertex 45.53 15.025 0
      vertex 15.53 15.025 2.5
      vertex 45.53 15.025 2.5
    endloop
  endfacet
  facet normal 0 1 0
    outer loop
      vertex 15.53 15.025 2.5
      vertex 45.53 15.025 0
      vertex 15.53 15.025 0
    endloop
  endfacet
  facet normal 0 0 1
    outer loop
      vertex 2.5 90.05 10
      vertex 0 90.05 10
      vertex 2.5 2.5 10
    endloop
  endfacet
  facet normal -0 0 1
    outer loop
      vertex 2.5 2.5 10
      vertex 20 0 10
      vertex 20 2.5 10
    endloop
  endfacet
  facet normal 0 0 1
    outer loop
      vertex 2.5 2.5 10
      vertex 0 0 10
      vertex 20 0 10
    endloop
  endfacet
  facet normal 0 0 1
    outer loop
      vertex 0 0 10
      vertex 2.5 2.5 10
      vertex 0 90.05 10
    endloop
  endfacet
  facet normal 1 -0 0
    outer loop
      vertex 2.5 2.5 10
      vertex 2.5 90.05 2.5
      vertex 2.5 90.05 10
    endloop
  endfacet
  facet normal 1 0 0
    outer loop
      vertex 2.5 90.05 2.5
      vertex 2.5 2.5 10
      vertex 2.5 2.5 2.5
    endloop
  endfacet
  facet normal 1 -0 0
    outer loop
      vertex 20 0 10
      vertex 20 2.5 2.5
      vertex 20 2.5 10
    endloop
  endfacet
  facet normal 1 0 0
    outer loop
      vertex 20 2.5 2.5
      vertex 20 0 10
      vertex 20 0 2.5
    endloop
  endfacet
  facet normal 0 1 -0
    outer loop
      vertex 20 2.5 2.5
      vertex 2.5 2.5 10
      vertex 20 2.5 10
    endloop
  endfacet
  facet normal 0 1 0
    outer loop
      vertex 2.5 2.5 10
      vertex 20 2.5 2.5
      vertex 2.5 2.5 2.5
    endloop
  endfacet
  facet normal -1 0 0
    outer loop
      vertex 41.06 0 2.5
      vertex 41.06 2.5 10
      vertex 41.06 2.5 2.5
    endloop
  endfacet
  facet normal -1 -0 0
    outer loop
      vertex 41.06 2.5 10
      vertex 41.06 0 2.5
      vertex 41.06 0 10
    endloop
  endfacet
  facet normal 0 0 1
    outer loop
      vertex 58.56 2.5 10
      vertex 61.06 7.5 10
      vertex 58.56 7.5 10
    endloop
  endfacet
  facet normal 0 0 1
    outer loop
      vertex 61.06 7.5 10
      vertex 58.56 2.5 10
      vertex 61.06 0 10
    endloop
  endfacet
  facet normal 0 0 1
    outer loop
      vertex 41.06 0 10
      vertex 58.56 2.5 10
      vertex 41.06 2.5 10
    endloop
  endfacet
  facet normal 0 0 1
    outer loop
      vertex 58.56 2.5 10
      vertex 41.06 0 10
      vertex 61.06 0 10
    endloop
  endfacet
  facet normal 0 1 -0
    outer loop
      vertex 58.56 2.5 2.5
      vertex 41.06 2.5 10
      vertex 58.56 2.5 10
    endloop
  endfacet
  facet normal 0 1 0
    outer loop
      vertex 41.06 2.5 10
      vertex 58.56 2.5 2.5
      vertex 41.06 2.5 2.5
    endloop
  endfacet
  facet normal -1 0 0
    outer loop
      vertex 58.56 2.5 2.5
      vertex 58.56 7.5 10
      vertex 58.56 7.5 2.5
    endloop
  endfacet
  facet normal -1 -0 0
    outer loop
      vertex 58.56 7.5 10
      vertex 58.56 2.5 2.5
      vertex 58.56 2.5 10
    endloop
  endfacet
  facet normal 0 1 -0
    outer loop
      vertex 61.06 7.5 2.5
      vertex 58.56 7.5 10
      vertex 61.06 7.5 10
    endloop
  endfacet
  facet normal 0 1 0
    outer loop
      vertex 58.56 7.5 10
      vertex 61.06 7.5 2.5
      vertex 58.56 7.5 2.5
    endloop
  endfacet
  facet normal -1 0 0
    outer loop
      vertex 58.56 18.8 2.5
      vertex 58.56 23.8 10
      vertex 58.56 23.8 2.5
    endloop
  endfacet
  facet normal -1 -0 0
    outer loop
      vertex 58.56 23.8 10
      vertex 58.56 18.8 2.5
      vertex 58.56 18.8 10
    endloop
  endfacet
  facet normal -0 0 1
    outer loop
      vertex 58.56 23.8 10
      vertex 61.06 18.8 10
      vertex 61.06 23.8 10
    endloop
  endfacet
  facet normal 0 0 1
    outer loop
      vertex 61.06 18.8 10
      vertex 58.56 23.8 10
      vertex 58.56 18.8 10
    endloop
  endfacet
  facet normal 0 -1 0
    outer loop
      vertex 58.56 18.8 2.5
      vertex 61.06 18.8 10
      vertex 58.56 18.8 10
    endloop
  endfacet
  facet normal 0 -1 -0
    outer loop
      vertex 61.06 18.8 10
      vertex 58.56 18.8 2.5
      vertex 61.06 18.8 2.5
    endloop
  endfacet
  facet normal 0 1 -0
    outer loop
      vertex 61.06 23.8 2.5
      vertex 58.56 23.8 10
      vertex 61.06 23.8 10
    endloop
  endfacet
  facet normal 0 1 0
    outer loop
      vertex 58.56 23.8 10
      vertex 61.06 23.8 2.5
      vertex 58.56 23.8 2.5
    endloop
  endfacet
  facet normal -1 0 0
    outer loop
      vertex 58.56 43.5 2.5
      vertex 58.56 50.5 10
      vertex 58.56 50.5 2.5
    endloop
  endfacet
  facet normal -1 -0 0
    outer loop
      vertex 58.56 50.5 10
      vertex 58.56 43.5 2.5
      vertex 58.56 43.5 10
    endloop
  endfacet
  facet normal -0 0 1
    outer loop
      vertex 58.56 50.5 10
      vertex 61.06 43.5 10
      vertex 61.06 50.5 10
    endloop
  endfacet
  facet normal 0 0 1
    outer loop
      vertex 61.06 43.5 10
      vertex 58.56 50.5 10
      vertex 58.56 43.5 10
    endloop
  endfacet
  facet normal 0 1 -0
    outer loop
      vertex 61.06 50.5 2.5
      vertex 58.56 50.5 10
      vertex 61.06 50.5 10
    endloop
  endfacet
  facet normal 0 1 0
    outer loop
      vertex 58.56 50.5 10
      vertex 61.06 50.5 2.5
      vertex 58.56 50.5 2.5
    endloop
  endfacet
  facet normal 0 -1 0
    outer loop
      vertex 58.56 43.5 2.5
      vertex 61.06 43.5 10
      vertex 58.56 43.5 10
    endloop
  endfacet
  facet normal 0 -1 -0
    outer loop
      vertex 61.06 43.5 10
      vertex 58.56 43.5 2.5
      vertex 61.06 43.5 2.5
    endloop
  endfacet
  facet normal -1 0 0
    outer loop
      vertex 58.56 65.05 2.5
      vertex 58.56 90.05 10
      vertex 58.56 90.05 2.5
    endloop
  endfacet
  facet normal -1 -0 0
    outer loop
      vertex 58.56 90.05 10
      vertex 58.56 65.05 2.5
      vertex 58.56 65.05 10
    endloop
  endfacet
  facet normal -0 0 1
    outer loop
      vertex 58.56 90.05 10
      vertex 61.06 65.05 10
      vertex 61.06 90.05 10
    endloop
  endfacet
  facet normal 0 0 1
    outer loop
      vertex 61.06 65.05 10
      vertex 58.56 90.05 10
      vertex 58.56 65.05 10
    endloop
  endfacet
  facet normal 0 -1 0
    outer loop
      vertex 58.56 65.05 2.5
      vertex 61.06 65.05 10
      vertex 58.56 65.05 10
    endloop
  endfacet
  facet normal 0 -1 -0
    outer loop
      vertex 61.06 65.05 10
      vertex 58.56 65.05 2.5
      vertex 61.06 65.05 2.5
    endloop
  endfacet
endsolid OpenSCAD_Model
