solid OpenSCAD_Model
  facet normal -0.866025 -0.500001 0
    outer loop
      vertex 28.14 66.525 -3
      vertex 27.265 68.0405 0
      vertex 27.265 68.0405 -3
    endloop
  endfacet
  facet normal -0.866025 -0.500001 0
    outer loop
      vertex 27.265 68.0405 0
      vertex 28.14 66.525 -3
      vertex 28.14 66.525 0
    endloop
  endfacet
  facet normal 0.866025 -0.500001 0
    outer loop
      vertex 24.64 66.525 0
      vertex 25.515 68.0405 -3
      vertex 25.515 68.0405 0
    endloop
  endfacet
  facet normal 0.866025 -0.500001 0
    outer loop
      vertex 25.515 68.0405 -3
      vertex 24.64 66.525 0
      vertex 24.64 66.525 -3
    endloop
  endfacet
  facet normal 0 -1 0
    outer loop
      vertex 25.515 68.0405 -3
      vertex 27.265 68.0405 0
      vertex 25.515 68.0405 0
    endloop
  endfacet
  facet normal 0 -1 -0
    outer loop
      vertex 27.265 68.0405 0
      vertex 25.515 68.0405 -3
      vertex 27.265 68.0405 -3
    endloop
  endfacet
  facet normal -0.866026 0.499999 0
    outer loop
      vertex 27.265 65.0095 -3
      vertex 28.14 66.525 0
      vertex 28.14 66.525 -3
    endloop
  endfacet
  facet normal -0.866026 0.499999 0
    outer loop
      vertex 28.14 66.525 0
      vertex 27.265 65.0095 -3
      vertex 27.265 65.0095 0
    endloop
  endfacet
  facet normal 0 1 -0
    outer loop
      vertex 27.265 65.0095 -3
      vertex 25.515 65.0095 0
      vertex 27.265 65.0095 0
    endloop
  endfacet
  facet normal 0 1 0
    outer loop
      vertex 25.515 65.0095 0
      vertex 27.265 65.0095 -3
      vertex 25.515 65.0095 -3
    endloop
  endfacet
  facet normal 0.866026 0.499999 0
    outer loop
      vertex 25.515 65.0095 0
      vertex 24.64 66.525 -3
      vertex 24.64 66.525 0
    endloop
  endfacet
  facet normal 0.866026 0.499999 0
    outer loop
      vertex 24.64 66.525 -3
      vertex 25.515 65.0095 0
      vertex 25.515 65.0095 -3
    endloop
  endfacet
  facet normal -0.866025 -0.5 0
    outer loop
      vertex 28.14 12.675 -3
      vertex 27.265 14.1905 0
      vertex 27.265 14.1905 -3
    endloop
  endfacet
  facet normal -0.866025 -0.5 0
    outer loop
      vertex 27.265 14.1905 0
      vertex 28.14 12.675 -3
      vertex 28.14 12.675 0
    endloop
  endfacet
  facet normal 0 1 -0
    outer loop
      vertex 27.265 11.1595 -3
      vertex 25.515 11.1595 0
      vertex 27.265 11.1595 0
    endloop
  endfacet
  facet normal 0 1 0
    outer loop
      vertex 25.515 11.1595 0
      vertex 27.265 11.1595 -3
      vertex 25.515 11.1595 -3
    endloop
  endfacet
  facet normal 0.866025 -0.5 0
    outer loop
      vertex 24.64 12.675 0
      vertex 25.515 14.1905 -3
      vertex 25.515 14.1905 0
    endloop
  endfacet
  facet normal 0.866025 -0.5 0
    outer loop
      vertex 25.515 14.1905 -3
      vertex 24.64 12.675 0
      vertex 24.64 12.675 -3
    endloop
  endfacet
  facet normal 0 -1 0
    outer loop
      vertex 25.515 14.1905 -3
      vertex 27.265 14.1905 0
      vertex 25.515 14.1905 0
    endloop
  endfacet
  facet normal 0 -1 -0
    outer loop
      vertex 27.265 14.1905 0
      vertex 25.515 14.1905 -3
      vertex 27.265 14.1905 -3
    endloop
  endfacet
  facet normal 0.866025 0.5 0
    outer loop
      vertex 25.515 11.1595 0
      vertex 24.64 12.675 -3
      vertex 24.64 12.675 0
    endloop
  endfacet
  facet normal 0.866025 0.5 0
    outer loop
      vertex 24.64 12.675 -3
      vertex 25.515 11.1595 0
      vertex 25.515 11.1595 -3
    endloop
  endfacet
  facet normal -0.866025 0.5 0
    outer loop
      vertex 27.265 11.1595 -3
      vertex 28.14 12.675 0
      vertex 28.14 12.675 -3
    endloop
  endfacet
  facet normal -0.866025 0.5 0
    outer loop
      vertex 28.14 12.675 0
      vertex 27.265 11.1595 -3
      vertex 27.265 11.1595 0
    endloop
  endfacet
  facet normal -0.866025 -0.500001 0
    outer loop
      vertex 93.89 63.11 -3
      vertex 93.015 64.6255 0
      vertex 93.015 64.6255 -3
    endloop
  endfacet
  facet normal -0.866025 -0.500001 0
    outer loop
      vertex 93.015 64.6255 0
      vertex 93.89 63.11 -3
      vertex 93.89 63.11 0
    endloop
  endfacet
  facet normal 0.866025 -0.500001 0
    outer loop
      vertex 90.39 63.11 0
      vertex 91.265 64.6255 -3
      vertex 91.265 64.6255 0
    endloop
  endfacet
  facet normal 0.866025 -0.500001 0
    outer loop
      vertex 91.265 64.6255 -3
      vertex 90.39 63.11 0
      vertex 90.39 63.11 -3
    endloop
  endfacet
  facet normal 0 -1 0
    outer loop
      vertex 91.265 64.6255 -3
      vertex 93.015 64.6255 0
      vertex 91.265 64.6255 0
    endloop
  endfacet
  facet normal 0 -1 -0
    outer loop
      vertex 93.015 64.6255 0
      vertex 91.265 64.6255 -3
      vertex 93.015 64.6255 -3
    endloop
  endfacet
  facet normal -0.866025 0.5 0
    outer loop
      vertex 93.015 61.5945 -3
      vertex 93.89 63.11 0
      vertex 93.89 63.11 -3
    endloop
  endfacet
  facet normal -0.866025 0.5 0
    outer loop
      vertex 93.89 63.11 0
      vertex 93.015 61.5945 -3
      vertex 93.015 61.5945 0
    endloop
  endfacet
  facet normal 0 1 -0
    outer loop
      vertex 93.015 61.5945 -3
      vertex 91.265 61.5945 0
      vertex 93.015 61.5945 0
    endloop
  endfacet
  facet normal 0 1 0
    outer loop
      vertex 91.265 61.5945 0
      vertex 93.015 61.5945 -3
      vertex 91.265 61.5945 -3
    endloop
  endfacet
  facet normal 0.866025 0.5 0
    outer loop
      vertex 91.265 61.5945 0
      vertex 90.39 63.11 -3
      vertex 90.39 63.11 0
    endloop
  endfacet
  facet normal 0.866025 0.5 0
    outer loop
      vertex 90.39 63.11 -3
      vertex 91.265 61.5945 0
      vertex 91.265 61.5945 -3
    endloop
  endfacet
  facet normal -0.866025 -0.5 0
    outer loop
      vertex 93.89 16.09 -3
      vertex 93.015 17.6055 0
      vertex 93.015 17.6055 -3
    endloop
  endfacet
  facet normal -0.866025 -0.5 0
    outer loop
      vertex 93.015 17.6055 0
      vertex 93.89 16.09 -3
      vertex 93.89 16.09 0
    endloop
  endfacet
  facet normal 0 1 -0
    outer loop
      vertex 93.015 14.5745 -3
      vertex 91.265 14.5745 0
      vertex 93.015 14.5745 0
    endloop
  endfacet
  facet normal 0 1 0
    outer loop
      vertex 91.265 14.5745 0
      vertex 93.015 14.5745 -3
      vertex 91.265 14.5745 -3
    endloop
  endfacet
  facet normal 0.866025 -0.5 0
    outer loop
      vertex 90.39 16.09 0
      vertex 91.265 17.6055 -3
      vertex 91.265 17.6055 0
    endloop
  endfacet
  facet normal 0.866025 -0.5 0
    outer loop
      vertex 91.265 17.6055 -3
      vertex 90.39 16.09 0
      vertex 90.39 16.09 -3
    endloop
  endfacet
  facet normal 0 -1 0
    outer loop
      vertex 91.265 17.6055 -3
      vertex 93.015 17.6055 0
      vertex 91.265 17.6055 0
    endloop
  endfacet
  facet normal 0 -1 -0
    outer loop
      vertex 93.015 17.6055 0
      vertex 91.265 17.6055 -3
      vertex 93.015 17.6055 -3
    endloop
  endfacet
  facet normal 0.866025 0.5 0
    outer loop
      vertex 91.265 14.5745 0
      vertex 90.39 16.09 -3
      vertex 90.39 16.09 0
    endloop
  endfacet
  facet normal 0.866025 0.5 0
    outer loop
      vertex 90.39 16.09 -3
      vertex 91.265 14.5745 0
      vertex 91.265 14.5745 -3
    endloop
  endfacet
  facet normal -0.866025 0.5 0
    outer loop
      vertex 93.015 14.5745 -3
      vertex 93.89 16.09 0
      vertex 93.89 16.09 -3
    endloop
  endfacet
  facet normal -0.866025 0.5 0
    outer loop
      vertex 93.89 16.09 0
      vertex 93.015 14.5745 -3
      vertex 93.015 14.5745 0
    endloop
  endfacet
  facet normal -1 0 0
    outer loop
      vertex -3 74.2 -3
      vertex -3 47.1 0
      vertex -3 74.2 0
    endloop
  endfacet
  facet normal -1 0 0
    outer loop
      vertex -3 47.1 0
      vertex -3 32.1 0
      vertex -3 47.1 5
    endloop
  endfacet
  facet normal -1 0 0
    outer loop
      vertex -3 74.2 -3
      vertex -3 32.1 0
      vertex -3 47.1 0
    endloop
  endfacet
  facet normal -1 0 0
    outer loop
      vertex -3 -3 -3
      vertex -3 32.1 0
      vertex -3 74.2 -3
    endloop
  endfacet
  facet normal -1 0 0
    outer loop
      vertex -3 0.0273905 4.47736
      vertex -3 0 5
      vertex -3 0.0273905 5
    endloop
  endfacet
  facet normal -1 -0 0
    outer loop
      vertex -3 32.1 0
      vertex -3 -3 -3
      vertex -3 5 0
    endloop
  endfacet
  facet normal -1 0 0
    outer loop
      vertex -3 -3 -3
      vertex -3 3.96044 0.109262
      vertex -3 5 0
    endloop
  endfacet
  facet normal -1 0 0
    outer loop
      vertex -3 -3 -3
      vertex -3 2.96632 0.432272
      vertex -3 3.96044 0.109262
    endloop
  endfacet
  facet normal -1 0 0
    outer loop
      vertex -3 -3 -3
      vertex -3 2.06107 0.954914
      vertex -3 2.96632 0.432272
    endloop
  endfacet
  facet normal -1 0 0
    outer loop
      vertex -3 -3 -3
      vertex -3 1.28428 1.65435
      vertex -3 2.06107 0.954914
    endloop
  endfacet
  facet normal -1 0 0
    outer loop
      vertex -3 -3 -3
      vertex -3 0.669872 2.5
      vertex -3 1.28428 1.65435
    endloop
  endfacet
  facet normal -1 0 0
    outer loop
      vertex -3 -3 -3
      vertex -3 0.244717 3.45491
      vertex -3 0.669872 2.5
    endloop
  endfacet
  facet normal -1 0 0
    outer loop
      vertex -3 -3 -3
      vertex -3 0.0273905 4.47736
      vertex -3 0.244717 3.45491
    endloop
  endfacet
  facet normal -1 0 0
    outer loop
      vertex -3 -3 -3
      vertex -3 0 5
      vertex -3 0.0273905 4.47736
    endloop
  endfacet
  facet normal -1 0 0
    outer loop
      vertex -3 -3 24.25
      vertex -3 0 5
      vertex -3 -3 -3
    endloop
  endfacet
  facet normal -1 0 0
    outer loop
      vertex -3 0 5
      vertex -3 -3 24.25
      vertex -3 0 24.25
    endloop
  endfacet
  facet normal -1 -0 0
    outer loop
      vertex -3 47.1 5
      vertex -3 32.1 0
      vertex -3 32.1 5
    endloop
  endfacet
  facet normal 0 0 1
    outer loop
      vertex 113.14 74.2 0
      vertex 110.14 47.1 0
      vertex 113.14 47.1 0
    endloop
  endfacet
  facet normal 0 0 1
    outer loop
      vertex 113.14 74.2 0
      vertex 93.89 63.11 0
      vertex 110.14 47.1 0
    endloop
  endfacet
  facet normal 0 0 1
    outer loop
      vertex 93.89 63.11 0
      vertex 113.14 74.2 0
      vertex 98.14 74.2 0
    endloop
  endfacet
  facet normal -0 0 1
    outer loop
      vertex 110.14 32.1 0
      vertex 113.14 5 0
      vertex 113.14 32.1 0
    endloop
  endfacet
  facet normal -0 0 1
    outer loop
      vertex 93.015 61.5945 0
      vertex 110.14 47.1 0
      vertex 93.89 63.11 0
    endloop
  endfacet
  facet normal 0 0 1
    outer loop
      vertex 84.4144 45.8373 0
      vertex 110.14 47.1 0
      vertex 93.015 61.5945 0
    endloop
  endfacet
  facet normal 0 0 1
    outer loop
      vertex 25.07 39.6 0
      vertex 0 32.1 0
      vertex 25.7256 33.3626 0
    endloop
  endfacet
  facet normal -0 0 1
    outer loop
      vertex -3 74.2 0
      vertex 0 47.1 0
      vertex 12 74.2 0
    endloop
  endfacet
  facet normal 0 0 1
    outer loop
      vertex 0 47.1 0
      vertex -3 74.2 0
      vertex -3 47.1 0
    endloop
  endfacet
  facet normal 0 0 1
    outer loop
      vertex 25.7256 33.3626 0
      vertex 0 32.1 0
      vertex 12 5 0
    endloop
  endfacet
  facet normal 0 0 1
    outer loop
      vertex -3 5 0
      vertex 0 32.1 0
      vertex -3 32.1 0
    endloop
  endfacet
  facet normal 0 0 1
    outer loop
      vertex 0 32.1 0
      vertex -3 5 0
      vertex 12 5 0
    endloop
  endfacet
  facet normal 0 0 1
    outer loop
      vertex 25.515 14.1905 0
      vertex 30.7995 21.9664 0
      vertex 27.6636 27.3979 0
    endloop
  endfacet
  facet normal 0 0 1
    outer loop
      vertex 30.7995 21.9664 0
      vertex 27.265 14.1905 0
      vertex 28.14 12.675 0
    endloop
  endfacet
  facet normal 0 0 1
    outer loop
      vertex 12 5 0
      vertex 27.6636 27.3979 0
      vertex 25.7256 33.3626 0
    endloop
  endfacet
  facet normal 0 0 1
    outer loop
      vertex 30.7995 21.9664 0
      vertex 25.515 14.1905 0
      vertex 27.265 14.1905 0
    endloop
  endfacet
  facet normal 0 0 1
    outer loop
      vertex 0 32.1 0
      vertex 25.07 39.6 0
      vertex 0 47.1 0
    endloop
  endfacet
  facet normal 0 0 1
    outer loop
      vertex 27.6636 27.3979 0
      vertex 12 5 0
      vertex 25.515 14.1905 0
    endloop
  endfacet
  facet normal 0 0 1
    outer loop
      vertex 27.6636 51.8021 0
      vertex 0 47.1 0
      vertex 25.7256 45.8373 0
    endloop
  endfacet
  facet normal 0 0 1
    outer loop
      vertex 27.265 68.0405 0
      vertex 47.57 74.2 0
      vertex 47.57 82.2 0
    endloop
  endfacet
  facet normal 0 0 1
    outer loop
      vertex 47.57 74.2 0
      vertex 40.07 65.5808 0
      vertex 45.7995 68.1317 0
    endloop
  endfacet
  facet normal 0 0 1
    outer loop
      vertex 47.57 74.2 0
      vertex 27.265 68.0405 0
      vertex 40.07 65.5808 0
    endloop
  endfacet
  facet normal -0 -0 1
    outer loop
      vertex 28.14 66.525 0
      vertex 40.07 65.5808 0
      vertex 27.265 68.0405 0
    endloop
  endfacet
  facet normal -0 0 1
    outer loop
      vertex 27.265 65.0095 0
      vertex 34.9961 61.8943 0
      vertex 28.14 66.525 0
    endloop
  endfacet
  facet normal 0 0 1
    outer loop
      vertex 40.07 65.5808 0
      vertex 28.14 66.525 0
      vertex 34.9961 61.8943 0
    endloop
  endfacet
  facet normal -0 0 1
    outer loop
      vertex 12 82.2 0
      vertex 27.265 68.0405 0
      vertex 47.57 82.2 0
    endloop
  endfacet
  facet normal 0 0 1
    outer loop
      vertex 25.515 68.0405 0
      vertex 12 74.2 0
      vertex 24.64 66.525 0
    endloop
  endfacet
  facet normal -0 0 1
    outer loop
      vertex 12 74.2 0
      vertex 25.515 68.0405 0
      vertex 12 82.2 0
    endloop
  endfacet
  facet normal 0 0 1
    outer loop
      vertex 27.265 68.0405 0
      vertex 12 82.2 0
      vertex 25.515 68.0405 0
    endloop
  endfacet
  facet normal -0 0 1
    outer loop
      vertex 58.2059 9.76434 0
      vertex 62.57 5 0
      vertex 64.3405 11.0683 0
    endloop
  endfacet
  facet normal -0 0 1
    outer loop
      vertex 51.9341 9.76434 0
      vertex 62.57 5 0
      vertex 58.2059 9.76434 0
    endloop
  endfacet
  facet normal 0 0 1
    outer loop
      vertex 51.9341 9.76434 0
      vertex 47.57 5 0
      vertex 62.57 5 0
    endloop
  endfacet
  facet normal 0 0 1
    outer loop
      vertex 45.7995 11.0683 0
      vertex 47.57 5 0
      vertex 51.9341 9.76434 0
    endloop
  endfacet
  facet normal 0 0 1
    outer loop
      vertex 40.07 13.6192 0
      vertex 47.57 5 0
      vertex 45.7995 11.0683 0
    endloop
  endfacet
  facet normal -0 0 1
    outer loop
      vertex 27.265 11.1595 0
      vertex 47.57 5 0
      vertex 40.07 13.6192 0
    endloop
  endfacet
  facet normal 0 0 1
    outer loop
      vertex 28.14 12.675 0
      vertex 40.07 13.6192 0
      vertex 34.9961 17.3057 0
    endloop
  endfacet
  facet normal 0 0 1
    outer loop
      vertex 28.14 12.675 0
      vertex 34.9961 17.3057 0
      vertex 30.7995 21.9664 0
    endloop
  endfacet
  facet normal 0 0 1
    outer loop
      vertex 40.07 13.6192 0
      vertex 28.14 12.675 0
      vertex 27.265 11.1595 0
    endloop
  endfacet
  facet normal 0 0 1
    outer loop
      vertex 47.57 5 0
      vertex 27.265 11.1595 0
      vertex 47.57 -3 0
    endloop
  endfacet
  facet normal 0 0 1
    outer loop
      vertex 12 -3 0
      vertex 27.265 11.1595 0
      vertex 25.515 11.1595 0
    endloop
  endfacet
  facet normal 0 0 1
    outer loop
      vertex 25.7256 45.8373 0
      vertex 0 47.1 0
      vertex 25.07 39.6 0
    endloop
  endfacet
  facet normal 0 0 1
    outer loop
      vertex 25.515 14.1905 0
      vertex 12 5 0
      vertex 24.64 12.675 0
    endloop
  endfacet
  facet normal 0 0 1
    outer loop
      vertex 12 5 0
      vertex 25.515 11.1595 0
      vertex 24.64 12.675 0
    endloop
  endfacet
  facet normal 0 0 1
    outer loop
      vertex 12 -3 0
      vertex 25.515 11.1595 0
      vertex 12 5 0
    endloop
  endfacet
  facet normal 0 0 1
    outer loop
      vertex 27.265 11.1595 0
      vertex 12 -3 0
      vertex 47.57 -3 0
    endloop
  endfacet
  facet normal 0 -0 1
    outer loop
      vertex 93.89 16.09 0
      vertex 110.14 32.1 0
      vertex 93.015 17.6055 0
    endloop
  endfacet
  facet normal 0 0 1
    outer loop
      vertex 110.14 32.1 0
      vertex 93.89 16.09 0
      vertex 113.14 5 0
    endloop
  endfacet
  facet normal 0 0 1
    outer loop
      vertex 82.4764 51.8021 0
      vertex 93.015 61.5945 0
      vertex 91.265 61.5945 0
    endloop
  endfacet
  facet normal -0 0 1
    outer loop
      vertex 84.4144 33.3626 0
      vertex 110.14 32.1 0
      vertex 85.07 39.6 0
    endloop
  endfacet
  facet normal 0 0 1
    outer loop
      vertex 79.3405 57.2336 0
      vertex 91.265 61.5945 0
      vertex 90.39 63.11 0
    endloop
  endfacet
  facet normal 0 0 1
    outer loop
      vertex 110.14 32.1 0
      vertex 84.4144 33.3626 0
      vertex 93.015 17.6055 0
    endloop
  endfacet
  facet normal 0 0 1
    outer loop
      vertex 91.265 64.6255 0
      vertex 98.14 74.2 0
      vertex 98.14 82.2 0
    endloop
  endfacet
  facet normal 0 -0 1
    outer loop
      vertex 85.07 39.6 0
      vertex 110.14 47.1 0
      vertex 84.4144 45.8373 0
    endloop
  endfacet
  facet normal 0 0 1
    outer loop
      vertex 113.14 5 0
      vertex 93.89 16.09 0
      vertex 98.14 5 0
    endloop
  endfacet
  facet normal 0 0 1
    outer loop
      vertex 98.14 74.2 0
      vertex 93.015 64.6255 0
      vertex 93.89 63.11 0
    endloop
  endfacet
  facet normal 0 0 1
    outer loop
      vertex 98.14 74.2 0
      vertex 91.265 64.6255 0
      vertex 93.015 64.6255 0
    endloop
  endfacet
  facet normal -0 0 1
    outer loop
      vertex 70.07 65.5808 0
      vertex 91.265 64.6255 0
      vertex 98.14 82.2 0
    endloop
  endfacet
  facet normal -0 0 1
    outer loop
      vertex 82.4764 27.3979 0
      vertex 93.015 17.6055 0
      vertex 84.4144 33.3626 0
    endloop
  endfacet
  facet normal 0 0 1
    outer loop
      vertex 110.14 47.1 0
      vertex 85.07 39.6 0
      vertex 110.14 32.1 0
    endloop
  endfacet
  facet normal 0 0 1
    outer loop
      vertex 93.015 61.5945 0
      vertex 82.4764 51.8021 0
      vertex 84.4144 45.8373 0
    endloop
  endfacet
  facet normal 0 -0 1
    outer loop
      vertex 75.1439 61.8943 0
      vertex 91.265 64.6255 0
      vertex 70.07 65.5808 0
    endloop
  endfacet
  facet normal 0 0 1
    outer loop
      vertex 91.265 61.5945 0
      vertex 79.3405 57.2336 0
      vertex 82.4764 51.8021 0
    endloop
  endfacet
  facet normal 0 0 1
    outer loop
      vertex 90.39 63.11 0
      vertex 75.1439 61.8943 0
      vertex 79.3405 57.2336 0
    endloop
  endfacet
  facet normal 0 0 1
    outer loop
      vertex 91.265 64.6255 0
      vertex 75.1439 61.8943 0
      vertex 90.39 63.11 0
    endloop
  endfacet
  facet normal -0 0 1
    outer loop
      vertex 62.57 82.2 0
      vertex 70.07 65.5808 0
      vertex 98.14 82.2 0
    endloop
  endfacet
  facet normal 0 0 1
    outer loop
      vertex 70.07 65.5808 0
      vertex 62.57 82.2 0
      vertex 62.57 74.2 0
    endloop
  endfacet
  facet normal 0 0 1
    outer loop
      vertex 70.07 65.5808 0
      vertex 62.57 74.2 0
      vertex 64.3405 68.1317 0
    endloop
  endfacet
  facet normal 0 0 1
    outer loop
      vertex 62.57 74.2 0
      vertex 58.2059 69.4357 0
      vertex 64.3405 68.1317 0
    endloop
  endfacet
  facet normal 0 0 1
    outer loop
      vertex 62.57 74.2 0
      vertex 51.9341 69.4357 0
      vertex 58.2059 69.4357 0
    endloop
  endfacet
  facet normal -0 0 1
    outer loop
      vertex 47.57 74.2 0
      vertex 51.9341 69.4357 0
      vertex 62.57 74.2 0
    endloop
  endfacet
  facet normal 0 0 1
    outer loop
      vertex 51.9341 69.4357 0
      vertex 47.57 74.2 0
      vertex 45.7995 68.1317 0
    endloop
  endfacet
  facet normal -0 0 1
    outer loop
      vertex 93.015 14.5745 0
      vertex 98.14 5 0
      vertex 93.89 16.09 0
    endloop
  endfacet
  facet normal -0 0 1
    outer loop
      vertex 91.265 14.5745 0
      vertex 98.14 5 0
      vertex 93.015 14.5745 0
    endloop
  endfacet
  facet normal 0 0 1
    outer loop
      vertex 98.14 5 0
      vertex 91.265 14.5745 0
      vertex 98.14 -3 0
    endloop
  endfacet
  facet normal 0 0 1
    outer loop
      vertex 75.1439 17.3057 0
      vertex 91.265 14.5745 0
      vertex 90.39 16.09 0
    endloop
  endfacet
  facet normal 0 0 1
    outer loop
      vertex 93.015 17.6055 0
      vertex 82.4764 27.3979 0
      vertex 91.265 17.6055 0
    endloop
  endfacet
  facet normal -0 0 1
    outer loop
      vertex 79.3405 21.9664 0
      vertex 91.265 17.6055 0
      vertex 82.4764 27.3979 0
    endloop
  endfacet
  facet normal 0 0 1
    outer loop
      vertex 91.265 17.6055 0
      vertex 79.3405 21.9664 0
      vertex 90.39 16.09 0
    endloop
  endfacet
  facet normal -0 0 1
    outer loop
      vertex 75.1439 17.3057 0
      vertex 90.39 16.09 0
      vertex 79.3405 21.9664 0
    endloop
  endfacet
  facet normal 0 0 1
    outer loop
      vertex 91.265 14.5745 0
      vertex 75.1439 17.3057 0
      vertex 70.07 13.6192 0
    endloop
  endfacet
  facet normal 0 0 1
    outer loop
      vertex 91.265 14.5745 0
      vertex 70.07 13.6192 0
      vertex 98.14 -3 0
    endloop
  endfacet
  facet normal 0 0 1
    outer loop
      vertex 62.57 5 0
      vertex 70.07 13.6192 0
      vertex 64.3405 11.0683 0
    endloop
  endfacet
  facet normal 0 0 1
    outer loop
      vertex 62.57 -3 0
      vertex 70.07 13.6192 0
      vertex 62.57 5 0
    endloop
  endfacet
  facet normal 0 0 1
    outer loop
      vertex 70.07 13.6192 0
      vertex 62.57 -3 0
      vertex 98.14 -3 0
    endloop
  endfacet
  facet normal 0 0 1
    outer loop
      vertex 34.9961 61.8943 0
      vertex 27.265 65.0095 0
      vertex 30.7995 57.2336 0
    endloop
  endfacet
  facet normal -0 0 1
    outer loop
      vertex 25.515 65.0095 0
      vertex 30.7995 57.2336 0
      vertex 27.265 65.0095 0
    endloop
  endfacet
  facet normal 0 0 1
    outer loop
      vertex 30.7995 57.2336 0
      vertex 25.515 65.0095 0
      vertex 27.6636 51.8021 0
    endloop
  endfacet
  facet normal 0 0 1
    outer loop
      vertex 24.64 66.525 0
      vertex 0 47.1 0
      vertex 25.515 65.0095 0
    endloop
  endfacet
  facet normal 0 0 1
    outer loop
      vertex 0 47.1 0
      vertex 24.64 66.525 0
      vertex 12 74.2 0
    endloop
  endfacet
  facet normal 0 0 1
    outer loop
      vertex 25.515 65.0095 0
      vertex 0 47.1 0
      vertex 27.6636 51.8021 0
    endloop
  endfacet
  facet normal 1 0 0
    outer loop
      vertex 113.14 47.1 10.625
      vertex 113.14 32.1 10.625
      vertex 113.14 47.1 0
    endloop
  endfacet
  facet normal 1 -0 0
    outer loop
      vertex 113.14 47.1 0
      vertex 113.14 74.2 -3
      vertex 113.14 74.2 0
    endloop
  endfacet
  facet normal 1 0 0
    outer loop
      vertex 113.14 32.1 0
      vertex 113.14 47.1 0
      vertex 113.14 32.1 10.625
    endloop
  endfacet
  facet normal 1 -0 0
    outer loop
      vertex 113.14 32.1 0
      vertex 113.14 74.2 -3
      vertex 113.14 47.1 0
    endloop
  endfacet
  facet normal 1 0 0
    outer loop
      vertex 113.14 5 -3
      vertex 113.14 32.1 0
      vertex 113.14 5 0
    endloop
  endfacet
  facet normal 1 0 0
    outer loop
      vertex 113.14 32.1 0
      vertex 113.14 5 -3
      vertex 113.14 74.2 -3
    endloop
  endfacet
  facet normal 0 1 -0
    outer loop
      vertex 47.57 82.2 -3
      vertex 12 82.2 0
      vertex 47.57 82.2 0
    endloop
  endfacet
  facet normal 0 1 0
    outer loop
      vertex 12 82.2 0
      vertex 47.57 82.2 -3
      vertex 12 82.2 -3
    endloop
  endfacet
  facet normal 0 1 -0
    outer loop
      vertex 98.14 82.2 -3
      vertex 62.57 82.2 0
      vertex 98.14 82.2 0
    endloop
  endfacet
  facet normal 0 1 0
    outer loop
      vertex 62.57 82.2 0
      vertex 98.14 82.2 -3
      vertex 62.57 82.2 -3
    endloop
  endfacet
  facet normal 0 0 -1
    outer loop
      vertex 25.515 65.0095 -3
      vertex 30.7995 57.2336 -3
      vertex 27.6636 51.8021 -3
    endloop
  endfacet
  facet normal 0 0 -1
    outer loop
      vertex 30.7995 57.2336 -3
      vertex 27.265 65.0095 -3
      vertex 28.14 66.525 -3
    endloop
  endfacet
  facet normal 0 0 -1
    outer loop
      vertex 25.515 65.0095 -3
      vertex 27.6636 51.8021 -3
      vertex 25.7256 45.8373 -3
    endloop
  endfacet
  facet normal 0 0 -1
    outer loop
      vertex 30.7995 57.2336 -3
      vertex 25.515 65.0095 -3
      vertex 27.265 65.0095 -3
    endloop
  endfacet
  facet normal 0 0 -1
    outer loop
      vertex -3 74.2 -3
      vertex 25.7256 45.8373 -3
      vertex 25.07 39.6 -3
    endloop
  endfacet
  facet normal 0 0 -1
    outer loop
      vertex 25.7256 45.8373 -3
      vertex -3 74.2 -3
      vertex 25.515 65.0095 -3
    endloop
  endfacet
  facet normal -0 0 -1
    outer loop
      vertex 25.7256 33.3626 -3
      vertex -3 -3 -3
      vertex 25.07 39.6 -3
    endloop
  endfacet
  facet normal 0 0 -1
    outer loop
      vertex 93.015 61.5945 -3
      vertex 113.14 74.2 -3
      vertex 93.015 17.6055 -3
    endloop
  endfacet
  facet normal 0 0 -1
    outer loop
      vertex 113.14 74.2 -3
      vertex 93.015 61.5945 -3
      vertex 93.89 63.11 -3
    endloop
  endfacet
  facet normal 0 0 -1
    outer loop
      vertex 82.4764 27.3979 -3
      vertex 93.015 17.6055 -3
      vertex 91.265 17.6055 -3
    endloop
  endfacet
  facet normal 0 0 -1
    outer loop
      vertex 93.015 17.6055 -3
      vertex 85.07 39.6 -3
      vertex 93.015 61.5945 -3
    endloop
  endfacet
  facet normal 0 0 -1
    outer loop
      vertex 79.3405 21.9664 -3
      vertex 91.265 17.6055 -3
      vertex 90.39 16.09 -3
    endloop
  endfacet
  facet normal 0 0 -1
    outer loop
      vertex 84.4144 45.8373 -3
      vertex 93.015 61.5945 -3
      vertex 85.07 39.6 -3
    endloop
  endfacet
  facet normal 0 0 -1
    outer loop
      vertex 93.015 14.5745 -3
      vertex 113.14 5 -3
      vertex 113.14 -3 -3
    endloop
  endfacet
  facet normal 0 0 -1
    outer loop
      vertex 93.015 17.6055 -3
      vertex 113.14 5 -3
      vertex 93.89 16.09 -3
    endloop
  endfacet
  facet normal 0 0 -1
    outer loop
      vertex 93.015 64.6255 -3
      vertex 113.14 74.2 -3
      vertex 93.89 63.11 -3
    endloop
  endfacet
  facet normal 0 0 -1
    outer loop
      vertex 113.14 5 -3
      vertex 93.015 17.6055 -3
      vertex 113.14 74.2 -3
    endloop
  endfacet
  facet normal 0 0 -1
    outer loop
      vertex 113.14 5 -3
      vertex 93.015 14.5745 -3
      vertex 93.89 16.09 -3
    endloop
  endfacet
  facet normal 0 0 -1
    outer loop
      vertex 113.14 -3 -3
      vertex 91.265 14.5745 -3
      vertex 93.015 14.5745 -3
    endloop
  endfacet
  facet normal 0 0 -1
    outer loop
      vertex 82.4764 51.8021 -3
      vertex 93.015 61.5945 -3
      vertex 84.4144 45.8373 -3
    endloop
  endfacet
  facet normal 0 0 -1
    outer loop
      vertex 93.015 17.6055 -3
      vertex 84.4144 33.3626 -3
      vertex 85.07 39.6 -3
    endloop
  endfacet
  facet normal 0 0 -1
    outer loop
      vertex 93.015 17.6055 -3
      vertex 82.4764 27.3979 -3
      vertex 84.4144 33.3626 -3
    endloop
  endfacet
  facet normal 0 0 -1
    outer loop
      vertex 75.1439 17.3057 -3
      vertex 90.39 16.09 -3
      vertex 91.265 14.5745 -3
    endloop
  endfacet
  facet normal 0 0 -1
    outer loop
      vertex 91.265 17.6055 -3
      vertex 79.3405 21.9664 -3
      vertex 82.4764 27.3979 -3
    endloop
  endfacet
  facet normal 0 0 -1
    outer loop
      vertex 70.07 13.6192 -3
      vertex 91.265 14.5745 -3
      vertex 113.14 -3 -3
    endloop
  endfacet
  facet normal 0 0 -1
    outer loop
      vertex 90.39 16.09 -3
      vertex 75.1439 17.3057 -3
      vertex 79.3405 21.9664 -3
    endloop
  endfacet
  facet normal -0 0 -1
    outer loop
      vertex 91.265 14.5745 -3
      vertex 70.07 13.6192 -3
      vertex 75.1439 17.3057 -3
    endloop
  endfacet
  facet normal 0 0 -1
    outer loop
      vertex 113.14 -3 -3
      vertex 64.3405 11.0683 -3
      vertex 70.07 13.6192 -3
    endloop
  endfacet
  facet normal 0 0 -1
    outer loop
      vertex 113.14 -3 -3
      vertex 58.2059 9.76434 -3
      vertex 64.3405 11.0683 -3
    endloop
  endfacet
  facet normal 0 0 -1
    outer loop
      vertex 113.14 -3 -3
      vertex 51.9341 9.76434 -3
      vertex 58.2059 9.76434 -3
    endloop
  endfacet
  facet normal 0 0 -1
    outer loop
      vertex 27.265 14.1905 -3
      vertex 34.9961 17.3057 -3
      vertex 28.14 12.675 -3
    endloop
  endfacet
  facet normal -0 0 -1
    outer loop
      vertex 40.07 13.6192 -3
      vertex 28.14 12.675 -3
      vertex 34.9961 17.3057 -3
    endloop
  endfacet
  facet normal 0 0 -1
    outer loop
      vertex 27.265 11.1595 -3
      vertex 40.07 13.6192 -3
      vertex 45.7995 11.0683 -3
    endloop
  endfacet
  facet normal 0 0 -1
    outer loop
      vertex 27.265 11.1595 -3
      vertex 45.7995 11.0683 -3
      vertex 51.9341 9.76434 -3
    endloop
  endfacet
  facet normal 0 0 -1
    outer loop
      vertex -3 -3 -3
      vertex 51.9341 9.76434 -3
      vertex 113.14 -3 -3
    endloop
  endfacet
  facet normal 0 0 -1
    outer loop
      vertex 40.07 13.6192 -3
      vertex 27.265 11.1595 -3
      vertex 28.14 12.675 -3
    endloop
  endfacet
  facet normal -0 0 -1
    outer loop
      vertex 51.9341 9.76434 -3
      vertex -3 -3 -3
      vertex 27.265 11.1595 -3
    endloop
  endfacet
  facet normal 0 0 -1
    outer loop
      vertex 25.515 65.0095 -3
      vertex -3 74.2 -3
      vertex 24.64 66.525 -3
    endloop
  endfacet
  facet normal -0 0 -1
    outer loop
      vertex 27.265 11.1595 -3
      vertex -3 -3 -3
      vertex 25.515 11.1595 -3
    endloop
  endfacet
  facet normal 0 0 -1
    outer loop
      vertex -3 -3 -3
      vertex 24.64 12.675 -3
      vertex 25.515 11.1595 -3
    endloop
  endfacet
  facet normal -0 0 -1
    outer loop
      vertex 25.07 39.6 -3
      vertex -3 -3 -3
      vertex -3 74.2 -3
    endloop
  endfacet
  facet normal 0 0 -1
    outer loop
      vertex 24.64 66.525 -3
      vertex -3 74.2 -3
      vertex 12 82.2 -3
    endloop
  endfacet
  facet normal -0 0 -1
    outer loop
      vertex 12 82.2 -3
      vertex -3 74.2 -3
      vertex -3 82.2 -3
    endloop
  endfacet
  facet normal 0 0 -1
    outer loop
      vertex 113.14 74.2 -3
      vertex 98.14 82.2 -3
      vertex 113.14 82.2 -3
    endloop
  endfacet
  facet normal -0 0 -1
    outer loop
      vertex 113.14 74.2 -3
      vertex 93.015 64.6255 -3
      vertex 98.14 82.2 -3
    endloop
  endfacet
  facet normal 0 0 -1
    outer loop
      vertex 91.265 64.6255 -3
      vertex 98.14 82.2 -3
      vertex 93.015 64.6255 -3
    endloop
  endfacet
  facet normal 0 0 -1
    outer loop
      vertex 75.1439 61.8943 -3
      vertex 91.265 64.6255 -3
      vertex 90.39 63.11 -3
    endloop
  endfacet
  facet normal -0 0 -1
    outer loop
      vertex 93.015 61.5945 -3
      vertex 82.4764 51.8021 -3
      vertex 91.265 61.5945 -3
    endloop
  endfacet
  facet normal 0 0 -1
    outer loop
      vertex 79.3405 57.2336 -3
      vertex 91.265 61.5945 -3
      vertex 82.4764 51.8021 -3
    endloop
  endfacet
  facet normal -0 0 -1
    outer loop
      vertex 91.265 61.5945 -3
      vertex 79.3405 57.2336 -3
      vertex 90.39 63.11 -3
    endloop
  endfacet
  facet normal 0 0 -1
    outer loop
      vertex 75.1439 61.8943 -3
      vertex 90.39 63.11 -3
      vertex 79.3405 57.2336 -3
    endloop
  endfacet
  facet normal -0 0 -1
    outer loop
      vertex 91.265 64.6255 -3
      vertex 75.1439 61.8943 -3
      vertex 70.07 65.5808 -3
    endloop
  endfacet
  facet normal 0 0 -1
    outer loop
      vertex 91.265 64.6255 -3
      vertex 70.07 65.5808 -3
      vertex 98.14 82.2 -3
    endloop
  endfacet
  facet normal 0 0 -1
    outer loop
      vertex 62.57 82.2 -3
      vertex 70.07 65.5808 -3
      vertex 64.3405 68.1317 -3
    endloop
  endfacet
  facet normal 0 0 -1
    outer loop
      vertex 70.07 65.5808 -3
      vertex 62.57 82.2 -3
      vertex 98.14 82.2 -3
    endloop
  endfacet
  facet normal 0 0 -1
    outer loop
      vertex 58.2059 69.4357 -3
      vertex 62.57 82.2 -3
      vertex 64.3405 68.1317 -3
    endloop
  endfacet
  facet normal 0 0 -1
    outer loop
      vertex 51.9341 69.4357 -3
      vertex 62.57 82.2 -3
      vertex 58.2059 69.4357 -3
    endloop
  endfacet
  facet normal 0 0 -1
    outer loop
      vertex 51.9341 69.4357 -3
      vertex 47.57 82.2 -3
      vertex 62.57 82.2 -3
    endloop
  endfacet
  facet normal 0 0 -1
    outer loop
      vertex 45.7995 68.1317 -3
      vertex 47.57 82.2 -3
      vertex 51.9341 69.4357 -3
    endloop
  endfacet
  facet normal 0 0 -1
    outer loop
      vertex 40.07 65.5808 -3
      vertex 47.57 82.2 -3
      vertex 45.7995 68.1317 -3
    endloop
  endfacet
  facet normal 0 0 -1
    outer loop
      vertex 28.14 66.525 -3
      vertex 40.07 65.5808 -3
      vertex 34.9961 61.8943 -3
    endloop
  endfacet
  facet normal 0 0 -1
    outer loop
      vertex 28.14 66.525 -3
      vertex 34.9961 61.8943 -3
      vertex 30.7995 57.2336 -3
    endloop
  endfacet
  facet normal 0 0 -1
    outer loop
      vertex 40.07 65.5808 -3
      vertex 28.14 66.525 -3
      vertex 27.265 68.0405 -3
    endloop
  endfacet
  facet normal 0 0 -1
    outer loop
      vertex 40.07 65.5808 -3
      vertex 27.265 68.0405 -3
      vertex 47.57 82.2 -3
    endloop
  endfacet
  facet normal 0 0 -1
    outer loop
      vertex 12 82.2 -3
      vertex 27.265 68.0405 -3
      vertex 25.515 68.0405 -3
    endloop
  endfacet
  facet normal 0 0 -1
    outer loop
      vertex 27.265 68.0405 -3
      vertex 12 82.2 -3
      vertex 47.57 82.2 -3
    endloop
  endfacet
  facet normal 0 0 -1
    outer loop
      vertex 12 82.2 -3
      vertex 25.515 68.0405 -3
      vertex 24.64 66.525 -3
    endloop
  endfacet
  facet normal -0 0 -1
    outer loop
      vertex 34.9961 17.3057 -3
      vertex 27.265 14.1905 -3
      vertex 30.7995 21.9664 -3
    endloop
  endfacet
  facet normal 0 0 -1
    outer loop
      vertex 25.515 14.1905 -3
      vertex 30.7995 21.9664 -3
      vertex 27.265 14.1905 -3
    endloop
  endfacet
  facet normal -0 0 -1
    outer loop
      vertex 30.7995 21.9664 -3
      vertex 25.515 14.1905 -3
      vertex 27.6636 27.3979 -3
    endloop
  endfacet
  facet normal -0 0 -1
    outer loop
      vertex 27.6636 27.3979 -3
      vertex 25.515 14.1905 -3
      vertex 25.7256 33.3626 -3
    endloop
  endfacet
  facet normal 0 0 -1
    outer loop
      vertex 24.64 12.675 -3
      vertex 25.7256 33.3626 -3
      vertex 25.515 14.1905 -3
    endloop
  endfacet
  facet normal 0 0 -1
    outer loop
      vertex -3 -3 -3
      vertex 25.7256 33.3626 -3
      vertex 24.64 12.675 -3
    endloop
  endfacet
  facet normal 0 -1 0
    outer loop
      vertex -3 -3 24.25
      vertex 12 -3 0
      vertex 12 -3 24.25
    endloop
  endfacet
  facet normal 0 -1 0
    outer loop
      vertex -3 -3 -3
      vertex 47.57 -3 0
      vertex 12 -3 0
    endloop
  endfacet
  facet normal 0 -1 -0
    outer loop
      vertex 47.57 -3 0
      vertex -3 -3 -3
      vertex 62.57 -3 0
    endloop
  endfacet
  facet normal 0 -1 0
    outer loop
      vertex 113.14 -3 -3
      vertex 62.57 -3 0
      vertex -3 -3 -3
    endloop
  endfacet
  facet normal 0 -1 0
    outer loop
      vertex -3 -3 -3
      vertex 12 -3 0
      vertex -3 -3 24.25
    endloop
  endfacet
  facet normal 0 -1 0
    outer loop
      vertex 47.57 -3 0
      vertex 62.57 -3 24.25
      vertex 47.57 -3 24.25
    endloop
  endfacet
  facet normal 0 -1 -0
    outer loop
      vertex 62.57 -3 24.25
      vertex 47.57 -3 0
      vertex 62.57 -3 0
    endloop
  endfacet
  facet normal 0 -1 0
    outer loop
      vertex 98.14 -3 0
      vertex 113.14 -3 24.25
      vertex 98.14 -3 24.25
    endloop
  endfacet
  facet normal 0 -1 0
    outer loop
      vertex 98.14 -3 0
      vertex 113.14 -3 -3
      vertex 113.14 -3 24.25
    endloop
  endfacet
  facet normal 0 -1 0
    outer loop
      vertex 62.57 -3 0
      vertex 113.14 -3 -3
      vertex 98.14 -3 0
    endloop
  endfacet
  facet normal -0.866025 -0.5 0
    outer loop
      vertex 82.4764 51.8021 -3
      vertex 79.3405 57.2336 0
      vertex 79.3405 57.2336 -3
    endloop
  endfacet
  facet normal -0.866025 -0.5 0
    outer loop
      vertex 79.3405 57.2336 0
      vertex 82.4764 51.8021 -3
      vertex 82.4764 51.8021 0
    endloop
  endfacet
  facet normal 0 -1 0
    outer loop
      vertex 51.9341 69.4357 -3
      vertex 58.2059 69.4357 0
      vertex 51.9341 69.4357 0
    endloop
  endfacet
  facet normal 0 -1 -0
    outer loop
      vertex 58.2059 69.4357 0
      vertex 51.9341 69.4357 -3
      vertex 58.2059 69.4357 -3
    endloop
  endfacet
  facet normal -0.743145 -0.66913 0
    outer loop
      vertex 79.3405 57.2336 -3
      vertex 75.1439 61.8943 0
      vertex 75.1439 61.8943 -3
    endloop
  endfacet
  facet normal -0.743145 -0.66913 0
    outer loop
      vertex 75.1439 61.8943 0
      vertex 79.3405 57.2336 -3
      vertex 79.3405 57.2336 0
    endloop
  endfacet
  facet normal -0.207911 -0.978148 0
    outer loop
      vertex 58.2059 69.4357 -3
      vertex 64.3405 68.1317 0
      vertex 58.2059 69.4357 0
    endloop
  endfacet
  facet normal -0.207911 -0.978148 -0
    outer loop
      vertex 64.3405 68.1317 0
      vertex 58.2059 69.4357 -3
      vertex 64.3405 68.1317 -3
    endloop
  endfacet
  facet normal 0.406737 -0.913545 0
    outer loop
      vertex 40.07 65.5808 -3
      vertex 45.7995 68.1317 0
      vertex 40.07 65.5808 0
    endloop
  endfacet
  facet normal 0.406737 -0.913545 0
    outer loop
      vertex 45.7995 68.1317 0
      vertex 40.07 65.5808 -3
      vertex 45.7995 68.1317 -3
    endloop
  endfacet
  facet normal 0.866025 -0.5 0
    outer loop
      vertex 27.6636 51.8021 0
      vertex 30.7995 57.2336 -3
      vertex 30.7995 57.2336 0
    endloop
  endfacet
  facet normal 0.866025 -0.5 0
    outer loop
      vertex 30.7995 57.2336 -3
      vertex 27.6636 51.8021 0
      vertex 27.6636 51.8021 -3
    endloop
  endfacet
  facet normal 0.587786 -0.809017 0
    outer loop
      vertex 34.9961 61.8943 -3
      vertex 40.07 65.5808 0
      vertex 34.9961 61.8943 0
    endloop
  endfacet
  facet normal 0.587786 -0.809017 0
    outer loop
      vertex 40.07 65.5808 0
      vertex 34.9961 61.8943 -3
      vertex 40.07 65.5808 -3
    endloop
  endfacet
  facet normal -0.994522 0.104528 0
    outer loop
      vertex 84.4144 33.3626 -3
      vertex 85.07 39.6 0
      vertex 85.07 39.6 -3
    endloop
  endfacet
  facet normal -0.994522 0.104528 0
    outer loop
      vertex 85.07 39.6 0
      vertex 84.4144 33.3626 -3
      vertex 84.4144 33.3626 0
    endloop
  endfacet
  facet normal -0.207912 0.978148 0
    outer loop
      vertex 64.3405 11.0683 -3
      vertex 58.2059 9.76434 0
      vertex 64.3405 11.0683 0
    endloop
  endfacet
  facet normal -0.207912 0.978148 0
    outer loop
      vertex 58.2059 9.76434 0
      vertex 64.3405 11.0683 -3
      vertex 58.2059 9.76434 -3
    endloop
  endfacet
  facet normal -0.951057 -0.309017 0
    outer loop
      vertex 84.4144 45.8373 -3
      vertex 82.4764 51.8021 0
      vertex 82.4764 51.8021 -3
    endloop
  endfacet
  facet normal -0.951057 -0.309017 0
    outer loop
      vertex 82.4764 51.8021 0
      vertex 84.4144 45.8373 -3
      vertex 84.4144 45.8373 0
    endloop
  endfacet
  facet normal -0.587785 -0.809017 0
    outer loop
      vertex 70.07 65.5808 -3
      vertex 75.1439 61.8943 0
      vertex 70.07 65.5808 0
    endloop
  endfacet
  facet normal -0.587785 -0.809017 -0
    outer loop
      vertex 75.1439 61.8943 0
      vertex 70.07 65.5808 -3
      vertex 75.1439 61.8943 -3
    endloop
  endfacet
  facet normal -0.406737 -0.913545 0
    outer loop
      vertex 64.3405 68.1317 -3
      vertex 70.07 65.5808 0
      vertex 64.3405 68.1317 0
    endloop
  endfacet
  facet normal -0.406737 -0.913545 -0
    outer loop
      vertex 70.07 65.5808 0
      vertex 64.3405 68.1317 -3
      vertex 70.07 65.5808 -3
    endloop
  endfacet
  facet normal 0.994522 -0.104528 0
    outer loop
      vertex 25.07 39.6 0
      vertex 25.7256 45.8373 -3
      vertex 25.7256 45.8373 0
    endloop
  endfacet
  facet normal 0.994522 -0.104528 0
    outer loop
      vertex 25.7256 45.8373 -3
      vertex 25.07 39.6 0
      vertex 25.07 39.6 -3
    endloop
  endfacet
  facet normal 0.743145 -0.669131 0
    outer loop
      vertex 30.7995 57.2336 0
      vertex 34.9961 61.8943 -3
      vertex 34.9961 61.8943 0
    endloop
  endfacet
  facet normal 0.743145 -0.669131 0
    outer loop
      vertex 34.9961 61.8943 -3
      vertex 30.7995 57.2336 0
      vertex 30.7995 57.2336 -3
    endloop
  endfacet
  facet normal 0.207911 -0.978148 0
    outer loop
      vertex 45.7995 68.1317 -3
      vertex 51.9341 69.4357 0
      vertex 45.7995 68.1317 0
    endloop
  endfacet
  facet normal 0.207911 -0.978148 0
    outer loop
      vertex 51.9341 69.4357 0
      vertex 45.7995 68.1317 -3
      vertex 51.9341 69.4357 -3
    endloop
  endfacet
  facet normal -0.994522 -0.104528 0
    outer loop
      vertex 85.07 39.6 -3
      vertex 84.4144 45.8373 0
      vertex 84.4144 45.8373 -3
    endloop
  endfacet
  facet normal -0.994522 -0.104528 0
    outer loop
      vertex 84.4144 45.8373 0
      vertex 85.07 39.6 -3
      vertex 85.07 39.6 0
    endloop
  endfacet
  facet normal 0.587785 0.809017 -0
    outer loop
      vertex 40.07 13.6192 -3
      vertex 34.9961 17.3057 0
      vertex 40.07 13.6192 0
    endloop
  endfacet
  facet normal 0.587785 0.809017 0
    outer loop
      vertex 34.9961 17.3057 0
      vertex 40.07 13.6192 -3
      vertex 34.9961 17.3057 -3
    endloop
  endfacet
  facet normal 0.866025 0.5 0
    outer loop
      vertex 30.7995 21.9664 0
      vertex 27.6636 27.3979 -3
      vertex 27.6636 27.3979 0
    endloop
  endfacet
  facet normal 0.866025 0.5 0
    outer loop
      vertex 27.6636 27.3979 -3
      vertex 30.7995 21.9664 0
      vertex 30.7995 21.9664 -3
    endloop
  endfacet
  facet normal -0.587785 0.809017 0
    outer loop
      vertex 75.1439 17.3057 -3
      vertex 70.07 13.6192 0
      vertex 75.1439 17.3057 0
    endloop
  endfacet
  facet normal -0.587785 0.809017 0
    outer loop
      vertex 70.07 13.6192 0
      vertex 75.1439 17.3057 -3
      vertex 70.07 13.6192 -3
    endloop
  endfacet
  facet normal 0.951057 -0.309017 0
    outer loop
      vertex 25.7256 45.8373 0
      vertex 27.6636 51.8021 -3
      vertex 27.6636 51.8021 0
    endloop
  endfacet
  facet normal 0.951057 -0.309017 0
    outer loop
      vertex 27.6636 51.8021 -3
      vertex 25.7256 45.8373 0
      vertex 25.7256 45.8373 -3
    endloop
  endfacet
  facet normal -0.866025 0.5 0
    outer loop
      vertex 79.3405 21.9664 -3
      vertex 82.4764 27.3979 0
      vertex 82.4764 27.3979 -3
    endloop
  endfacet
  facet normal -0.866025 0.5 0
    outer loop
      vertex 82.4764 27.3979 0
      vertex 79.3405 21.9664 -3
      vertex 79.3405 21.9664 0
    endloop
  endfacet
  facet normal 0.994522 0.104528 0
    outer loop
      vertex 25.7256 33.3626 0
      vertex 25.07 39.6 -3
      vertex 25.07 39.6 0
    endloop
  endfacet
  facet normal 0.994522 0.104528 0
    outer loop
      vertex 25.07 39.6 -3
      vertex 25.7256 33.3626 0
      vertex 25.7256 33.3626 -3
    endloop
  endfacet
  facet normal 0.743145 0.669131 0
    outer loop
      vertex 34.9961 17.3057 0
      vertex 30.7995 21.9664 -3
      vertex 30.7995 21.9664 0
    endloop
  endfacet
  facet normal 0.743145 0.669131 0
    outer loop
      vertex 30.7995 21.9664 -3
      vertex 34.9961 17.3057 0
      vertex 34.9961 17.3057 -3
    endloop
  endfacet
  facet normal -0.406736 0.913546 0
    outer loop
      vertex 70.07 13.6192 -3
      vertex 64.3405 11.0683 0
      vertex 70.07 13.6192 0
    endloop
  endfacet
  facet normal -0.406736 0.913546 0
    outer loop
      vertex 64.3405 11.0683 0
      vertex 70.07 13.6192 -3
      vertex 64.3405 11.0683 -3
    endloop
  endfacet
  facet normal -0.951057 0.309017 0
    outer loop
      vertex 82.4764 27.3979 -3
      vertex 84.4144 33.3626 0
      vertex 84.4144 33.3626 -3
    endloop
  endfacet
  facet normal -0.951057 0.309017 0
    outer loop
      vertex 84.4144 33.3626 0
      vertex 82.4764 27.3979 -3
      vertex 82.4764 27.3979 0
    endloop
  endfacet
  facet normal 0.406736 0.913546 -0
    outer loop
      vertex 45.7995 11.0683 -3
      vertex 40.07 13.6192 0
      vertex 45.7995 11.0683 0
    endloop
  endfacet
  facet normal 0.406736 0.913546 0
    outer loop
      vertex 40.07 13.6192 0
      vertex 45.7995 11.0683 -3
      vertex 40.07 13.6192 -3
    endloop
  endfacet
  facet normal 0 1 -0
    outer loop
      vertex 58.2059 9.76434 -3
      vertex 51.9341 9.76434 0
      vertex 58.2059 9.76434 0
    endloop
  endfacet
  facet normal 0 1 0
    outer loop
      vertex 51.9341 9.76434 0
      vertex 58.2059 9.76434 -3
      vertex 51.9341 9.76434 -3
    endloop
  endfacet
  facet normal 0.951057 0.309017 0
    outer loop
      vertex 27.6636 27.3979 0
      vertex 25.7256 33.3626 -3
      vertex 25.7256 33.3626 0
    endloop
  endfacet
  facet normal 0.951057 0.309017 0
    outer loop
      vertex 25.7256 33.3626 -3
      vertex 27.6636 27.3979 0
      vertex 27.6636 27.3979 -3
    endloop
  endfacet
  facet normal -0.743145 0.66913 0
    outer loop
      vertex 75.1439 17.3057 -3
      vertex 79.3405 21.9664 0
      vertex 79.3405 21.9664 -3
    endloop
  endfacet
  facet normal -0.743145 0.66913 0
    outer loop
      vertex 79.3405 21.9664 0
      vertex 75.1439 17.3057 -3
      vertex 75.1439 17.3057 0
    endloop
  endfacet
  facet normal 0.207912 0.978148 -0
    outer loop
      vertex 51.9341 9.76434 -3
      vertex 45.7995 11.0683 0
      vertex 51.9341 9.76434 0
    endloop
  endfacet
  facet normal 0.207912 0.978148 0
    outer loop
      vertex 45.7995 11.0683 0
      vertex 51.9341 9.76434 -3
      vertex 45.7995 11.0683 -3
    endloop
  endfacet
  facet normal -0 0 1
    outer loop
      vertex -3 0.0273905 5
      vertex 12 0 5
      vertex 12 0.0273905 5
    endloop
  endfacet
  facet normal 0 0 1
    outer loop
      vertex 12 0 5
      vertex -3 0.0273905 5
      vertex -3 0 5
    endloop
  endfacet
  facet normal 1 0 0
    outer loop
      vertex 12 0 24.25
      vertex 12 -3 24.25
      vertex 12 0 5
    endloop
  endfacet
  facet normal 1 0 0
    outer loop
      vertex 12 0.0273905 5
      vertex 12 0 5
      vertex 12 0.0273905 4.47736
    endloop
  endfacet
  facet normal 1 0 0
    outer loop
      vertex 12 -3 0
      vertex 12 0 5
      vertex 12 -3 24.25
    endloop
  endfacet
  facet normal 1 0 0
    outer loop
      vertex 12 3.96044 0.109262
      vertex 12 -3 0
      vertex 12 5 0
    endloop
  endfacet
  facet normal 1 0 0
    outer loop
      vertex 12 2.96632 0.432272
      vertex 12 -3 0
      vertex 12 3.96044 0.109262
    endloop
  endfacet
  facet normal 1 0 0
    outer loop
      vertex 12 2.06107 0.954914
      vertex 12 -3 0
      vertex 12 2.96632 0.432272
    endloop
  endfacet
  facet normal 1 0 0
    outer loop
      vertex 12 1.28428 1.65435
      vertex 12 -3 0
      vertex 12 2.06107 0.954914
    endloop
  endfacet
  facet normal 1 0 0
    outer loop
      vertex 12 0.669872 2.5
      vertex 12 -3 0
      vertex 12 1.28428 1.65435
    endloop
  endfacet
  facet normal 1 0 0
    outer loop
      vertex 12 0.244717 3.45491
      vertex 12 -3 0
      vertex 12 0.669872 2.5
    endloop
  endfacet
  facet normal 1 0 0
    outer loop
      vertex 12 0.0273905 4.47736
      vertex 12 -3 0
      vertex 12 0.244717 3.45491
    endloop
  endfacet
  facet normal 1 0 0
    outer loop
      vertex 12 0 5
      vertex 12 -3 0
      vertex 12 0.0273905 4.47736
    endloop
  endfacet
  facet normal 0 1 -0
    outer loop
      vertex 12 0.0273905 4.47736
      vertex -3 0.0273905 5
      vertex 12 0.0273905 5
    endloop
  endfacet
  facet normal 0 1 0
    outer loop
      vertex -3 0.0273905 5
      vertex 12 0.0273905 4.47736
      vertex -3 0.0273905 4.47736
    endloop
  endfacet
  facet normal 0 0.913545 0.406737
    outer loop
      vertex 12 0.669872 2.5
      vertex -3 0.244717 3.45491
      vertex 12 0.244717 3.45491
    endloop
  endfacet
  facet normal 0 0.913545 0.406737
    outer loop
      vertex -3 0.244717 3.45491
      vertex 12 0.669872 2.5
      vertex -3 0.669872 2.5
    endloop
  endfacet
  facet normal -0 0.104528 0.994522
    outer loop
      vertex -3 5 0
      vertex 12 3.96044 0.109262
      vertex 12 5 0
    endloop
  endfacet
  facet normal 0 0.104528 0.994522
    outer loop
      vertex 12 3.96044 0.109262
      vertex -3 5 0
      vertex -3 3.96044 0.109262
    endloop
  endfacet
  facet normal 0 0.809017 0.587785
    outer loop
      vertex 12 1.28428 1.65435
      vertex -3 0.669872 2.5
      vertex 12 0.669872 2.5
    endloop
  endfacet
  facet normal 0 0.809017 0.587785
    outer loop
      vertex -3 0.669872 2.5
      vertex 12 1.28428 1.65435
      vertex -3 1.28428 1.65435
    endloop
  endfacet
  facet normal -0 0.309017 0.951057
    outer loop
      vertex -3 3.96044 0.109262
      vertex 12 2.96632 0.432272
      vertex 12 3.96044 0.109262
    endloop
  endfacet
  facet normal 0 0.309017 0.951057
    outer loop
      vertex 12 2.96632 0.432272
      vertex -3 3.96044 0.109262
      vertex -3 2.96632 0.432272
    endloop
  endfacet
  facet normal 0 0.978148 0.207911
    outer loop
      vertex 12 0.244717 3.45491
      vertex -3 0.0273905 4.47736
      vertex 12 0.0273905 4.47736
    endloop
  endfacet
  facet normal 0 0.978148 0.207911
    outer loop
      vertex -3 0.0273905 4.47736
      vertex 12 0.244717 3.45491
      vertex -3 0.244717 3.45491
    endloop
  endfacet
  facet normal -0 0.669131 0.743145
    outer loop
      vertex -3 2.06107 0.954914
      vertex 12 1.28428 1.65435
      vertex 12 2.06107 0.954914
    endloop
  endfacet
  facet normal 0 0.669131 0.743145
    outer loop
      vertex 12 1.28428 1.65435
      vertex -3 2.06107 0.954914
      vertex -3 1.28428 1.65435
    endloop
  endfacet
  facet normal -0 0.5 0.866025
    outer loop
      vertex -3 2.96632 0.432272
      vertex 12 2.06107 0.954914
      vertex 12 2.96632 0.432272
    endloop
  endfacet
  facet normal 0 0.5 0.866025
    outer loop
      vertex 12 2.06107 0.954914
      vertex -3 2.96632 0.432272
      vertex -3 2.06107 0.954914
    endloop
  endfacet
  facet normal -0 0 1
    outer loop
      vertex -3 0 24.25
      vertex 12 -3 24.25
      vertex 12 0 24.25
    endloop
  endfacet
  facet normal 0 0 1
    outer loop
      vertex 12 -3 24.25
      vertex -3 0 24.25
      vertex -3 -3 24.25
    endloop
  endfacet
  facet normal 0 1 -0
    outer loop
      vertex 12 0 5
      vertex -3 0 24.25
      vertex 12 0 24.25
    endloop
  endfacet
  facet normal 0 1 0
    outer loop
      vertex -3 0 24.25
      vertex 12 0 5
      vertex -3 0 5
    endloop
  endfacet
  facet normal -1 0 0
    outer loop
      vertex 47.57 0.0273905 4.47736
      vertex 47.57 0 5
      vertex 47.57 0.0273905 5
    endloop
  endfacet
  facet normal -1 0 0
    outer loop
      vertex 47.57 -3 0
      vertex 47.57 3.96044 0.109262
      vertex 47.57 5 0
    endloop
  endfacet
  facet normal -1 0 0
    outer loop
      vertex 47.57 -3 0
      vertex 47.57 2.96632 0.432272
      vertex 47.57 3.96044 0.109262
    endloop
  endfacet
  facet normal -1 0 0
    outer loop
      vertex 47.57 -3 0
      vertex 47.57 2.06107 0.954914
      vertex 47.57 2.96632 0.432272
    endloop
  endfacet
  facet normal -1 0 0
    outer loop
      vertex 47.57 -3 0
      vertex 47.57 1.28428 1.65435
      vertex 47.57 2.06107 0.954914
    endloop
  endfacet
  facet normal -1 0 0
    outer loop
      vertex 47.57 -3 0
      vertex 47.57 0.669872 2.5
      vertex 47.57 1.28428 1.65435
    endloop
  endfacet
  facet normal -1 0 0
    outer loop
      vertex 47.57 -3 0
      vertex 47.57 0.244717 3.45491
      vertex 47.57 0.669872 2.5
    endloop
  endfacet
  facet normal -1 0 0
    outer loop
      vertex 47.57 -3 0
      vertex 47.57 0.0273905 4.47736
      vertex 47.57 0.244717 3.45491
    endloop
  endfacet
  facet normal -1 0 0
    outer loop
      vertex 47.57 -3 0
      vertex 47.57 0 5
      vertex 47.57 0.0273905 4.47736
    endloop
  endfacet
  facet normal -1 0 0
    outer loop
      vertex 47.57 -3 24.25
      vertex 47.57 0 5
      vertex 47.57 -3 0
    endloop
  endfacet
  facet normal -1 0 0
    outer loop
      vertex 47.57 0 5
      vertex 47.57 -3 24.25
      vertex 47.57 0 24.25
    endloop
  endfacet
  facet normal -0 0 1
    outer loop
      vertex 47.57 0.0273905 5
      vertex 62.57 0 5
      vertex 62.57 0.0273905 5
    endloop
  endfacet
  facet normal 0 0 1
    outer loop
      vertex 62.57 0 5
      vertex 47.57 0.0273905 5
      vertex 47.57 0 5
    endloop
  endfacet
  facet normal 1 0 0
    outer loop
      vertex 62.57 0 24.25
      vertex 62.57 -3 24.25
      vertex 62.57 0 5
    endloop
  endfacet
  facet normal 1 0 0
    outer loop
      vertex 62.57 0.0273905 5
      vertex 62.57 0 5
      vertex 62.57 0.0273905 4.47736
    endloop
  endfacet
  facet normal 1 0 0
    outer loop
      vertex 62.57 -3 0
      vertex 62.57 0 5
      vertex 62.57 -3 24.25
    endloop
  endfacet
  facet normal 1 0 0
    outer loop
      vertex 62.57 3.96044 0.109262
      vertex 62.57 -3 0
      vertex 62.57 5 0
    endloop
  endfacet
  facet normal 1 0 0
    outer loop
      vertex 62.57 2.96632 0.432272
      vertex 62.57 -3 0
      vertex 62.57 3.96044 0.109262
    endloop
  endfacet
  facet normal 1 0 0
    outer loop
      vertex 62.57 2.06107 0.954914
      vertex 62.57 -3 0
      vertex 62.57 2.96632 0.432272
    endloop
  endfacet
  facet normal 1 0 0
    outer loop
      vertex 62.57 1.28428 1.65435
      vertex 62.57 -3 0
      vertex 62.57 2.06107 0.954914
    endloop
  endfacet
  facet normal 1 0 0
    outer loop
      vertex 62.57 0.669872 2.5
      vertex 62.57 -3 0
      vertex 62.57 1.28428 1.65435
    endloop
  endfacet
  facet normal 1 0 0
    outer loop
      vertex 62.57 0.244717 3.45491
      vertex 62.57 -3 0
      vertex 62.57 0.669872 2.5
    endloop
  endfacet
  facet normal 1 0 0
    outer loop
      vertex 62.57 0.0273905 4.47736
      vertex 62.57 -3 0
      vertex 62.57 0.244717 3.45491
    endloop
  endfacet
  facet normal 1 0 0
    outer loop
      vertex 62.57 0 5
      vertex 62.57 -3 0
      vertex 62.57 0.0273905 4.47736
    endloop
  endfacet
  facet normal 0 1 -0
    outer loop
      vertex 62.57 0.0273905 4.47736
      vertex 47.57 0.0273905 5
      vertex 62.57 0.0273905 5
    endloop
  endfacet
  facet normal 0 1 0
    outer loop
      vertex 47.57 0.0273905 5
      vertex 62.57 0.0273905 4.47736
      vertex 47.57 0.0273905 4.47736
    endloop
  endfacet
  facet normal 0 0.913545 0.406737
    outer loop
      vertex 62.57 0.669872 2.5
      vertex 47.57 0.244717 3.45491
      vertex 62.57 0.244717 3.45491
    endloop
  endfacet
  facet normal 0 0.913545 0.406737
    outer loop
      vertex 47.57 0.244717 3.45491
      vertex 62.57 0.669872 2.5
      vertex 47.57 0.669872 2.5
    endloop
  endfacet
  facet normal -0 0.104528 0.994522
    outer loop
      vertex 47.57 5 0
      vertex 62.57 3.96044 0.109262
      vertex 62.57 5 0
    endloop
  endfacet
  facet normal 0 0.104528 0.994522
    outer loop
      vertex 62.57 3.96044 0.109262
      vertex 47.57 5 0
      vertex 47.57 3.96044 0.109262
    endloop
  endfacet
  facet normal 0 0.809017 0.587785
    outer loop
      vertex 62.57 1.28428 1.65435
      vertex 47.57 0.669872 2.5
      vertex 62.57 0.669872 2.5
    endloop
  endfacet
  facet normal 0 0.809017 0.587785
    outer loop
      vertex 47.57 0.669872 2.5
      vertex 62.57 1.28428 1.65435
      vertex 47.57 1.28428 1.65435
    endloop
  endfacet
  facet normal -0 0.309017 0.951057
    outer loop
      vertex 47.57 3.96044 0.109262
      vertex 62.57 2.96632 0.432272
      vertex 62.57 3.96044 0.109262
    endloop
  endfacet
  facet normal 0 0.309017 0.951057
    outer loop
      vertex 62.57 2.96632 0.432272
      vertex 47.57 3.96044 0.109262
      vertex 47.57 2.96632 0.432272
    endloop
  endfacet
  facet normal 0 0.978148 0.207911
    outer loop
      vertex 62.57 0.244717 3.45491
      vertex 47.57 0.0273905 4.47736
      vertex 62.57 0.0273905 4.47736
    endloop
  endfacet
  facet normal 0 0.978148 0.207911
    outer loop
      vertex 47.57 0.0273905 4.47736
      vertex 62.57 0.244717 3.45491
      vertex 47.57 0.244717 3.45491
    endloop
  endfacet
  facet normal -0 0.669131 0.743145
    outer loop
      vertex 47.57 2.06107 0.954914
      vertex 62.57 1.28428 1.65435
      vertex 62.57 2.06107 0.954914
    endloop
  endfacet
  facet normal 0 0.669131 0.743145
    outer loop
      vertex 62.57 1.28428 1.65435
      vertex 47.57 2.06107 0.954914
      vertex 47.57 1.28428 1.65435
    endloop
  endfacet
  facet normal -0 0.5 0.866025
    outer loop
      vertex 47.57 2.96632 0.432272
      vertex 62.57 2.06107 0.954914
      vertex 62.57 2.96632 0.432272
    endloop
  endfacet
  facet normal 0 0.5 0.866025
    outer loop
      vertex 62.57 2.06107 0.954914
      vertex 47.57 2.96632 0.432272
      vertex 47.57 2.06107 0.954914
    endloop
  endfacet
  facet normal -0 0 1
    outer loop
      vertex 47.57 0 24.25
      vertex 62.57 -3 24.25
      vertex 62.57 0 24.25
    endloop
  endfacet
  facet normal 0 0 1
    outer loop
      vertex 62.57 -3 24.25
      vertex 47.57 0 24.25
      vertex 47.57 -3 24.25
    endloop
  endfacet
  facet normal 0 1 -0
    outer loop
      vertex 62.57 0 5
      vertex 47.57 0 24.25
      vertex 62.57 0 24.25
    endloop
  endfacet
  facet normal 0 1 0
    outer loop
      vertex 47.57 0 24.25
      vertex 62.57 0 5
      vertex 47.57 0 5
    endloop
  endfacet
  facet normal -1 0 0
    outer loop
      vertex 98.14 0.0273905 4.47736
      vertex 98.14 0 5
      vertex 98.14 0.0273905 5
    endloop
  endfacet
  facet normal -1 0 0
    outer loop
      vertex 98.14 -3 0
      vertex 98.14 3.96044 0.109262
      vertex 98.14 5 0
    endloop
  endfacet
  facet normal -1 0 0
    outer loop
      vertex 98.14 -3 0
      vertex 98.14 2.96632 0.432272
      vertex 98.14 3.96044 0.109262
    endloop
  endfacet
  facet normal -1 0 0
    outer loop
      vertex 98.14 -3 0
      vertex 98.14 2.06107 0.954914
      vertex 98.14 2.96632 0.432272
    endloop
  endfacet
  facet normal -1 0 0
    outer loop
      vertex 98.14 -3 0
      vertex 98.14 1.28428 1.65435
      vertex 98.14 2.06107 0.954914
    endloop
  endfacet
  facet normal -1 0 0
    outer loop
      vertex 98.14 -3 0
      vertex 98.14 0.669872 2.5
      vertex 98.14 1.28428 1.65435
    endloop
  endfacet
  facet normal -1 0 0
    outer loop
      vertex 98.14 -3 0
      vertex 98.14 0.244717 3.45491
      vertex 98.14 0.669872 2.5
    endloop
  endfacet
  facet normal -1 0 0
    outer loop
      vertex 98.14 -3 0
      vertex 98.14 0.0273905 4.47736
      vertex 98.14 0.244717 3.45491
    endloop
  endfacet
  facet normal -1 0 0
    outer loop
      vertex 98.14 -3 0
      vertex 98.14 0 5
      vertex 98.14 0.0273905 4.47736
    endloop
  endfacet
  facet normal -1 0 0
    outer loop
      vertex 98.14 -3 24.25
      vertex 98.14 0 5
      vertex 98.14 -3 0
    endloop
  endfacet
  facet normal -1 0 0
    outer loop
      vertex 98.14 0 5
      vertex 98.14 -3 24.25
      vertex 98.14 0 24.25
    endloop
  endfacet
  facet normal -0 0 1
    outer loop
      vertex 98.14 0.0273905 5
      vertex 113.14 0 5
      vertex 113.14 0.0273905 5
    endloop
  endfacet
  facet normal 0 0 1
    outer loop
      vertex 113.14 0 5
      vertex 98.14 0.0273905 5
      vertex 98.14 0 5
    endloop
  endfacet
  facet normal 1 0 0
    outer loop
      vertex 113.14 0 24.25
      vertex 113.14 -3 24.25
      vertex 113.14 0 5
    endloop
  endfacet
  facet normal 1 0 0
    outer loop
      vertex 113.14 0.0273905 5
      vertex 113.14 0 5
      vertex 113.14 0.0273905 4.47736
    endloop
  endfacet
  facet normal 1 0 0
    outer loop
      vertex 113.14 3.96044 0.109262
      vertex 113.14 5 -3
      vertex 113.14 5 0
    endloop
  endfacet
  facet normal 1 0 0
    outer loop
      vertex 113.14 2.96632 0.432272
      vertex 113.14 5 -3
      vertex 113.14 3.96044 0.109262
    endloop
  endfacet
  facet normal 1 0 0
    outer loop
      vertex 113.14 -3 -3
      vertex 113.14 2.96632 0.432272
      vertex 113.14 2.06107 0.954914
    endloop
  endfacet
  facet normal 1 0 0
    outer loop
      vertex 113.14 -3 -3
      vertex 113.14 2.06107 0.954914
      vertex 113.14 1.28428 1.65435
    endloop
  endfacet
  facet normal 1 0 0
    outer loop
      vertex 113.14 -3 -3
      vertex 113.14 0 5
      vertex 113.14 -3 24.25
    endloop
  endfacet
  facet normal 1 0 0
    outer loop
      vertex 113.14 2.96632 0.432272
      vertex 113.14 -3 -3
      vertex 113.14 5 -3
    endloop
  endfacet
  facet normal 1 0 0
    outer loop
      vertex 113.14 0.669872 2.5
      vertex 113.14 -3 -3
      vertex 113.14 1.28428 1.65435
    endloop
  endfacet
  facet normal 1 0 0
    outer loop
      vertex 113.14 0.244717 3.45491
      vertex 113.14 -3 -3
      vertex 113.14 0.669872 2.5
    endloop
  endfacet
  facet normal 1 0 0
    outer loop
      vertex 113.14 0.0273905 4.47736
      vertex 113.14 -3 -3
      vertex 113.14 0.244717 3.45491
    endloop
  endfacet
  facet normal 1 0 0
    outer loop
      vertex 113.14 0 5
      vertex 113.14 -3 -3
      vertex 113.14 0.0273905 4.47736
    endloop
  endfacet
  facet normal 0 1 -0
    outer loop
      vertex 113.14 0.0273905 4.47736
      vertex 98.14 0.0273905 5
      vertex 113.14 0.0273905 5
    endloop
  endfacet
  facet normal 0 1 0
    outer loop
      vertex 98.14 0.0273905 5
      vertex 113.14 0.0273905 4.47736
      vertex 98.14 0.0273905 4.47736
    endloop
  endfacet
  facet normal 0 0.913545 0.406737
    outer loop
      vertex 113.14 0.669872 2.5
      vertex 98.14 0.244717 3.45491
      vertex 113.14 0.244717 3.45491
    endloop
  endfacet
  facet normal 0 0.913545 0.406737
    outer loop
      vertex 98.14 0.244717 3.45491
      vertex 113.14 0.669872 2.5
      vertex 98.14 0.669872 2.5
    endloop
  endfacet
  facet normal -0 0.104528 0.994522
    outer loop
      vertex 98.14 5 0
      vertex 113.14 3.96044 0.109262
      vertex 113.14 5 0
    endloop
  endfacet
  facet normal 0 0.104528 0.994522
    outer loop
      vertex 113.14 3.96044 0.109262
      vertex 98.14 5 0
      vertex 98.14 3.96044 0.109262
    endloop
  endfacet
  facet normal 0 0.809017 0.587785
    outer loop
      vertex 113.14 1.28428 1.65435
      vertex 98.14 0.669872 2.5
      vertex 113.14 0.669872 2.5
    endloop
  endfacet
  facet normal 0 0.809017 0.587785
    outer loop
      vertex 98.14 0.669872 2.5
      vertex 113.14 1.28428 1.65435
      vertex 98.14 1.28428 1.65435
    endloop
  endfacet
  facet normal -0 0.309017 0.951057
    outer loop
      vertex 98.14 3.96044 0.109262
      vertex 113.14 2.96632 0.432272
      vertex 113.14 3.96044 0.109262
    endloop
  endfacet
  facet normal 0 0.309017 0.951057
    outer loop
      vertex 113.14 2.96632 0.432272
      vertex 98.14 3.96044 0.109262
      vertex 98.14 2.96632 0.432272
    endloop
  endfacet
  facet normal 0 0.978148 0.207911
    outer loop
      vertex 113.14 0.244717 3.45491
      vertex 98.14 0.0273905 4.47736
      vertex 113.14 0.0273905 4.47736
    endloop
  endfacet
  facet normal 0 0.978148 0.207911
    outer loop
      vertex 98.14 0.0273905 4.47736
      vertex 113.14 0.244717 3.45491
      vertex 98.14 0.244717 3.45491
    endloop
  endfacet
  facet normal -0 0.669131 0.743145
    outer loop
      vertex 98.14 2.06107 0.954914
      vertex 113.14 1.28428 1.65435
      vertex 113.14 2.06107 0.954914
    endloop
  endfacet
  facet normal 0 0.669131 0.743145
    outer loop
      vertex 113.14 1.28428 1.65435
      vertex 98.14 2.06107 0.954914
      vertex 98.14 1.28428 1.65435
    endloop
  endfacet
  facet normal -0 0.5 0.866025
    outer loop
      vertex 98.14 2.96632 0.432272
      vertex 113.14 2.06107 0.954914
      vertex 113.14 2.96632 0.432272
    endloop
  endfacet
  facet normal 0 0.5 0.866025
    outer loop
      vertex 113.14 2.06107 0.954914
      vertex 98.14 2.96632 0.432272
      vertex 98.14 2.06107 0.954914
    endloop
  endfacet
  facet normal -0 0 1
    outer loop
      vertex 98.14 0 24.25
      vertex 113.14 -3 24.25
      vertex 113.14 0 24.25
    endloop
  endfacet
  facet normal 0 0 1
    outer loop
      vertex 113.14 -3 24.25
      vertex 98.14 0 24.25
      vertex 98.14 -3 24.25
    endloop
  endfacet
  facet normal 0 1 -0
    outer loop
      vertex 113.14 0 5
      vertex 98.14 0 24.25
      vertex 113.14 0 24.25
    endloop
  endfacet
  facet normal 0 1 0
    outer loop
      vertex 98.14 0 24.25
      vertex 113.14 0 5
      vertex 98.14 0 5
    endloop
  endfacet
  facet normal 1 0 0
    outer loop
      vertex 113.14 79.2 5
      vertex 113.14 82.2 24.25
      vertex 113.14 79.2 24.25
    endloop
  endfacet
  facet normal 1 0 0
    outer loop
      vertex 113.14 82.2 24.25
      vertex 113.14 79.2 5
      vertex 113.14 82.2 -3
    endloop
  endfacet
  facet normal 1 0 0
    outer loop
      vertex 113.14 79.1726 4.47736
      vertex 113.14 79.2 5
      vertex 113.14 79.1726 5
    endloop
  endfacet
  facet normal 1 0 0
    outer loop
      vertex 113.14 79.2 5
      vertex 113.14 79.1726 4.47736
      vertex 113.14 82.2 -3
    endloop
  endfacet
  facet normal 1 -0 0
    outer loop
      vertex 113.14 78.9553 3.45491
      vertex 113.14 82.2 -3
      vertex 113.14 79.1726 4.47736
    endloop
  endfacet
  facet normal 1 -0 0
    outer loop
      vertex 113.14 78.5301 2.5
      vertex 113.14 82.2 -3
      vertex 113.14 78.9553 3.45491
    endloop
  endfacet
  facet normal 1 -0 0
    outer loop
      vertex 113.14 77.9157 1.65435
      vertex 113.14 82.2 -3
      vertex 113.14 78.5301 2.5
    endloop
  endfacet
  facet normal 1 -0 0
    outer loop
      vertex 113.14 77.1389 0.954914
      vertex 113.14 82.2 -3
      vertex 113.14 77.9157 1.65435
    endloop
  endfacet
  facet normal 1 -0 0
    outer loop
      vertex 113.14 76.2337 0.432272
      vertex 113.14 82.2 -3
      vertex 113.14 77.1389 0.954914
    endloop
  endfacet
  facet normal 1 0 0
    outer loop
      vertex 113.14 74.2 -3
      vertex 113.14 76.2337 0.432272
      vertex 113.14 75.2396 0.109262
    endloop
  endfacet
  facet normal 1 0 0
    outer loop
      vertex 113.14 74.2 -3
      vertex 113.14 75.2396 0.109262
      vertex 113.14 74.2 0
    endloop
  endfacet
  facet normal 1 0 0
    outer loop
      vertex 113.14 76.2337 0.432272
      vertex 113.14 74.2 -3
      vertex 113.14 82.2 -3
    endloop
  endfacet
  facet normal -0 0 1
    outer loop
      vertex 98.14 79.2 5
      vertex 113.14 79.1726 5
      vertex 113.14 79.2 5
    endloop
  endfacet
  facet normal 0 0 1
    outer loop
      vertex 113.14 79.1726 5
      vertex 98.14 79.2 5
      vertex 98.14 79.1726 5
    endloop
  endfacet
  facet normal -1 0 0
    outer loop
      vertex 98.14 82.2 0
      vertex 98.14 79.2 5
      vertex 98.14 82.2 24.25
    endloop
  endfacet
  facet normal -1 0 0
    outer loop
      vertex 98.14 82.2 0
      vertex 98.14 79.1726 4.47736
      vertex 98.14 79.2 5
    endloop
  endfacet
  facet normal -1 0 0
    outer loop
      vertex 98.14 82.2 0
      vertex 98.14 78.9553 3.45491
      vertex 98.14 79.1726 4.47736
    endloop
  endfacet
  facet normal -1 0 0
    outer loop
      vertex 98.14 82.2 0
      vertex 98.14 78.5301 2.5
      vertex 98.14 78.9553 3.45491
    endloop
  endfacet
  facet normal -1 0 0
    outer loop
      vertex 98.14 82.2 0
      vertex 98.14 77.9157 1.65435
      vertex 98.14 78.5301 2.5
    endloop
  endfacet
  facet normal -1 0 0
    outer loop
      vertex 98.14 82.2 0
      vertex 98.14 77.1389 0.954914
      vertex 98.14 77.9157 1.65435
    endloop
  endfacet
  facet normal -1 0 0
    outer loop
      vertex 98.14 82.2 0
      vertex 98.14 76.2337 0.432272
      vertex 98.14 77.1389 0.954914
    endloop
  endfacet
  facet normal -1 0 0
    outer loop
      vertex 98.14 82.2 0
      vertex 98.14 75.2396 0.109262
      vertex 98.14 76.2337 0.432272
    endloop
  endfacet
  facet normal -1 0 -0
    outer loop
      vertex 98.14 75.2396 0.109262
      vertex 98.14 82.2 0
      vertex 98.14 74.2 0
    endloop
  endfacet
  facet normal -1 -0 0
    outer loop
      vertex 98.14 82.2 24.25
      vertex 98.14 79.2 5
      vertex 98.14 79.2 24.25
    endloop
  endfacet
  facet normal -1 -0 0
    outer loop
      vertex 98.14 79.2 5
      vertex 98.14 79.1726 4.47736
      vertex 98.14 79.1726 5
    endloop
  endfacet
  facet normal 0 0 0
    outer loop
      vertex 98.14 82.2 -3
      vertex 98.14 82.2 0
      vertex 98.14 82.2 24.25
    endloop
  endfacet
  facet normal 0 1 -0
    outer loop
      vertex 113.14 82.2 -3
      vertex 98.14 82.2 24.25
      vertex 113.14 82.2 24.25
    endloop
  endfacet
  facet normal 0 1 0
    outer loop
      vertex 98.14 82.2 24.25
      vertex 113.14 82.2 -3
      vertex 98.14 82.2 -3
    endloop
  endfacet
  facet normal 0 -1 0
    outer loop
      vertex 98.14 79.1726 4.47736
      vertex 113.14 79.1726 5
      vertex 98.14 79.1726 5
    endloop
  endfacet
  facet normal 0 -1 -0
    outer loop
      vertex 113.14 79.1726 5
      vertex 98.14 79.1726 4.47736
      vertex 113.14 79.1726 4.47736
    endloop
  endfacet
  facet normal 0 -0.913545 0.406737
    outer loop
      vertex 98.14 78.5301 2.5
      vertex 113.14 78.9553 3.45491
      vertex 98.14 78.9553 3.45491
    endloop
  endfacet
  facet normal 0 -0.913545 0.406737
    outer loop
      vertex 113.14 78.9553 3.45491
      vertex 98.14 78.5301 2.5
      vertex 113.14 78.5301 2.5
    endloop
  endfacet
  facet normal 0 -0.104527 0.994522
    outer loop
      vertex 98.14 75.2396 0.109262
      vertex 113.14 74.2 0
      vertex 113.14 75.2396 0.109262
    endloop
  endfacet
  facet normal 0 -0.104527 0.994522
    outer loop
      vertex 113.14 74.2 0
      vertex 98.14 75.2396 0.109262
      vertex 98.14 74.2 0
    endloop
  endfacet
  facet normal 0 -0.809017 0.587785
    outer loop
      vertex 98.14 77.9157 1.65435
      vertex 113.14 78.5301 2.5
      vertex 98.14 78.5301 2.5
    endloop
  endfacet
  facet normal 0 -0.809017 0.587785
    outer loop
      vertex 113.14 78.5301 2.5
      vertex 98.14 77.9157 1.65435
      vertex 113.14 77.9157 1.65435
    endloop
  endfacet
  facet normal 0 -0.309019 0.951056
    outer loop
      vertex 98.14 76.2337 0.432272
      vertex 113.14 75.2396 0.109262
      vertex 113.14 76.2337 0.432272
    endloop
  endfacet
  facet normal 0 -0.309019 0.951056
    outer loop
      vertex 113.14 75.2396 0.109262
      vertex 98.14 76.2337 0.432272
      vertex 98.14 75.2396 0.109262
    endloop
  endfacet
  facet normal 0 -0.978148 0.207908
    outer loop
      vertex 98.14 78.9553 3.45491
      vertex 113.14 79.1726 4.47736
      vertex 98.14 79.1726 4.47736
    endloop
  endfacet
  facet normal 0 -0.978148 0.207908
    outer loop
      vertex 113.14 79.1726 4.47736
      vertex 98.14 78.9553 3.45491
      vertex 113.14 78.9553 3.45491
    endloop
  endfacet
  facet normal 0 -0.669129 0.743146
    outer loop
      vertex 98.14 77.9157 1.65435
      vertex 113.14 77.1389 0.954914
      vertex 113.14 77.9157 1.65435
    endloop
  endfacet
  facet normal 0 -0.669129 0.743146
    outer loop
      vertex 113.14 77.1389 0.954914
      vertex 98.14 77.9157 1.65435
      vertex 98.14 77.1389 0.954914
    endloop
  endfacet
  facet normal 0 -0.5 0.866025
    outer loop
      vertex 98.14 77.1389 0.954914
      vertex 113.14 76.2337 0.432272
      vertex 113.14 77.1389 0.954914
    endloop
  endfacet
  facet normal 0 -0.5 0.866025
    outer loop
      vertex 113.14 76.2337 0.432272
      vertex 98.14 77.1389 0.954914
      vertex 98.14 76.2337 0.432272
    endloop
  endfacet
  facet normal -0 0 1
    outer loop
      vertex 98.14 82.2 24.25
      vertex 113.14 79.2 24.25
      vertex 113.14 82.2 24.25
    endloop
  endfacet
  facet normal 0 0 1
    outer loop
      vertex 113.14 79.2 24.25
      vertex 98.14 82.2 24.25
      vertex 98.14 79.2 24.25
    endloop
  endfacet
  facet normal 0 -1 0
    outer loop
      vertex 98.14 79.2 5
      vertex 113.14 79.2 24.25
      vertex 98.14 79.2 24.25
    endloop
  endfacet
  facet normal 0 -1 -0
    outer loop
      vertex 113.14 79.2 24.25
      vertex 98.14 79.2 5
      vertex 113.14 79.2 5
    endloop
  endfacet
  facet normal 1 0 0
    outer loop
      vertex 62.57 79.2 5
      vertex 62.57 82.2 24.25
      vertex 62.57 79.2 24.25
    endloop
  endfacet
  facet normal 1 0 0
    outer loop
      vertex 62.57 82.2 24.25
      vertex 62.57 79.2 5
      vertex 62.57 82.2 0
    endloop
  endfacet
  facet normal 1 0 0
    outer loop
      vertex 62.57 79.1726 4.47736
      vertex 62.57 79.2 5
      vertex 62.57 79.1726 5
    endloop
  endfacet
  facet normal 1 0 0
    outer loop
      vertex 62.57 79.2 5
      vertex 62.57 79.1726 4.47736
      vertex 62.57 82.2 0
    endloop
  endfacet
  facet normal 1 -0 0
    outer loop
      vertex 62.57 78.9553 3.45491
      vertex 62.57 82.2 0
      vertex 62.57 79.1726 4.47736
    endloop
  endfacet
  facet normal 1 -0 0
    outer loop
      vertex 62.57 78.5301 2.5
      vertex 62.57 82.2 0
      vertex 62.57 78.9553 3.45491
    endloop
  endfacet
  facet normal 1 -0 0
    outer loop
      vertex 62.57 77.9157 1.65435
      vertex 62.57 82.2 0
      vertex 62.57 78.5301 2.5
    endloop
  endfacet
  facet normal 1 -0 0
    outer loop
      vertex 62.57 77.1389 0.954914
      vertex 62.57 82.2 0
      vertex 62.57 77.9157 1.65435
    endloop
  endfacet
  facet normal 1 -0 0
    outer loop
      vertex 62.57 76.2337 0.432272
      vertex 62.57 82.2 0
      vertex 62.57 77.1389 0.954914
    endloop
  endfacet
  facet normal 1 -0 0
    outer loop
      vertex 62.57 75.2396 0.109262
      vertex 62.57 82.2 0
      vertex 62.57 76.2337 0.432272
    endloop
  endfacet
  facet normal 1 0 0
    outer loop
      vertex 62.57 82.2 0
      vertex 62.57 75.2396 0.109262
      vertex 62.57 74.2 0
    endloop
  endfacet
  facet normal 0 0 0
    outer loop
      vertex 62.57 82.2 24.25
      vertex 62.57 82.2 0
      vertex 62.57 82.2 -3
    endloop
  endfacet
  facet normal -0 0 1
    outer loop
      vertex 47.57 79.2 5
      vertex 62.57 79.1726 5
      vertex 62.57 79.2 5
    endloop
  endfacet
  facet normal 0 0 1
    outer loop
      vertex 62.57 79.1726 5
      vertex 47.57 79.2 5
      vertex 47.57 79.1726 5
    endloop
  endfacet
  facet normal -1 0 0
    outer loop
      vertex 47.57 82.2 0
      vertex 47.57 79.2 5
      vertex 47.57 82.2 24.25
    endloop
  endfacet
  facet normal -1 0 0
    outer loop
      vertex 47.57 82.2 0
      vertex 47.57 79.1726 4.47736
      vertex 47.57 79.2 5
    endloop
  endfacet
  facet normal -1 0 0
    outer loop
      vertex 47.57 82.2 0
      vertex 47.57 78.9553 3.45491
      vertex 47.57 79.1726 4.47736
    endloop
  endfacet
  facet normal -1 0 0
    outer loop
      vertex 47.57 82.2 0
      vertex 47.57 78.5301 2.5
      vertex 47.57 78.9553 3.45491
    endloop
  endfacet
  facet normal -1 0 0
    outer loop
      vertex 47.57 82.2 0
      vertex 47.57 77.9157 1.65435
      vertex 47.57 78.5301 2.5
    endloop
  endfacet
  facet normal -1 0 0
    outer loop
      vertex 47.57 82.2 0
      vertex 47.57 77.1389 0.954914
      vertex 47.57 77.9157 1.65435
    endloop
  endfacet
  facet normal -1 0 0
    outer loop
      vertex 47.57 82.2 0
      vertex 47.57 76.2337 0.432272
      vertex 47.57 77.1389 0.954914
    endloop
  endfacet
  facet normal -1 0 0
    outer loop
      vertex 47.57 82.2 0
      vertex 47.57 75.2396 0.109262
      vertex 47.57 76.2337 0.432272
    endloop
  endfacet
  facet normal -1 0 -0
    outer loop
      vertex 47.57 75.2396 0.109262
      vertex 47.57 82.2 0
      vertex 47.57 74.2 0
    endloop
  endfacet
  facet normal -1 -0 0
    outer loop
      vertex 47.57 82.2 24.25
      vertex 47.57 79.2 5
      vertex 47.57 79.2 24.25
    endloop
  endfacet
  facet normal -1 -0 0
    outer loop
      vertex 47.57 79.2 5
      vertex 47.57 79.1726 4.47736
      vertex 47.57 79.1726 5
    endloop
  endfacet
  facet normal 0 0 0
    outer loop
      vertex 47.57 82.2 24.25
      vertex 47.57 82.2 -3
      vertex 47.57 82.2 0
    endloop
  endfacet
  facet normal 0 1 -0
    outer loop
      vertex 62.57 82.2 -3
      vertex 47.57 82.2 24.25
      vertex 62.57 82.2 24.25
    endloop
  endfacet
  facet normal 0 1 0
    outer loop
      vertex 47.57 82.2 24.25
      vertex 62.57 82.2 -3
      vertex 47.57 82.2 -3
    endloop
  endfacet
  facet normal 0 -1 0
    outer loop
      vertex 47.57 79.1726 4.47736
      vertex 62.57 79.1726 5
      vertex 47.57 79.1726 5
    endloop
  endfacet
  facet normal 0 -1 -0
    outer loop
      vertex 62.57 79.1726 5
      vertex 47.57 79.1726 4.47736
      vertex 62.57 79.1726 4.47736
    endloop
  endfacet
  facet normal 0 -0.913545 0.406737
    outer loop
      vertex 47.57 78.5301 2.5
      vertex 62.57 78.9553 3.45491
      vertex 47.57 78.9553 3.45491
    endloop
  endfacet
  facet normal 0 -0.913545 0.406737
    outer loop
      vertex 62.57 78.9553 3.45491
      vertex 47.57 78.5301 2.5
      vertex 62.57 78.5301 2.5
    endloop
  endfacet
  facet normal 0 -0.104527 0.994522
    outer loop
      vertex 47.57 75.2396 0.109262
      vertex 62.57 74.2 0
      vertex 62.57 75.2396 0.109262
    endloop
  endfacet
  facet normal 0 -0.104527 0.994522
    outer loop
      vertex 62.57 74.2 0
      vertex 47.57 75.2396 0.109262
      vertex 47.57 74.2 0
    endloop
  endfacet
  facet normal 0 -0.809017 0.587785
    outer loop
      vertex 47.57 77.9157 1.65435
      vertex 62.57 78.5301 2.5
      vertex 47.57 78.5301 2.5
    endloop
  endfacet
  facet normal 0 -0.809017 0.587785
    outer loop
      vertex 62.57 78.5301 2.5
      vertex 47.57 77.9157 1.65435
      vertex 62.57 77.9157 1.65435
    endloop
  endfacet
  facet normal 0 -0.309019 0.951056
    outer loop
      vertex 47.57 76.2337 0.432272
      vertex 62.57 75.2396 0.109262
      vertex 62.57 76.2337 0.432272
    endloop
  endfacet
  facet normal 0 -0.309019 0.951056
    outer loop
      vertex 62.57 75.2396 0.109262
      vertex 47.57 76.2337 0.432272
      vertex 47.57 75.2396 0.109262
    endloop
  endfacet
  facet normal 0 -0.978148 0.207908
    outer loop
      vertex 47.57 78.9553 3.45491
      vertex 62.57 79.1726 4.47736
      vertex 47.57 79.1726 4.47736
    endloop
  endfacet
  facet normal 0 -0.978148 0.207908
    outer loop
      vertex 62.57 79.1726 4.47736
      vertex 47.57 78.9553 3.45491
      vertex 62.57 78.9553 3.45491
    endloop
  endfacet
  facet normal 0 -0.669129 0.743146
    outer loop
      vertex 47.57 77.9157 1.65435
      vertex 62.57 77.1389 0.954914
      vertex 62.57 77.9157 1.65435
    endloop
  endfacet
  facet normal 0 -0.669129 0.743146
    outer loop
      vertex 62.57 77.1389 0.954914
      vertex 47.57 77.9157 1.65435
      vertex 47.57 77.1389 0.954914
    endloop
  endfacet
  facet normal 0 -0.5 0.866025
    outer loop
      vertex 47.57 77.1389 0.954914
      vertex 62.57 76.2337 0.432272
      vertex 62.57 77.1389 0.954914
    endloop
  endfacet
  facet normal 0 -0.5 0.866025
    outer loop
      vertex 62.57 76.2337 0.432272
      vertex 47.57 77.1389 0.954914
      vertex 47.57 76.2337 0.432272
    endloop
  endfacet
  facet normal -0 0 1
    outer loop
      vertex 47.57 82.2 24.25
      vertex 62.57 79.2 24.25
      vertex 62.57 82.2 24.25
    endloop
  endfacet
  facet normal 0 0 1
    outer loop
      vertex 62.57 79.2 24.25
      vertex 47.57 82.2 24.25
      vertex 47.57 79.2 24.25
    endloop
  endfacet
  facet normal 0 -1 0
    outer loop
      vertex 47.57 79.2 5
      vertex 62.57 79.2 24.25
      vertex 47.57 79.2 24.25
    endloop
  endfacet
  facet normal 0 -1 -0
    outer loop
      vertex 62.57 79.2 24.25
      vertex 47.57 79.2 5
      vertex 62.57 79.2 5
    endloop
  endfacet
  facet normal 1 0 0
    outer loop
      vertex 12 79.2 5
      vertex 12 82.2 24.25
      vertex 12 79.2 24.25
    endloop
  endfacet
  facet normal 1 0 0
    outer loop
      vertex 12 82.2 24.25
      vertex 12 79.2 5
      vertex 12 82.2 0
    endloop
  endfacet
  facet normal 1 0 0
    outer loop
      vertex 12 79.1726 4.47736
      vertex 12 79.2 5
      vertex 12 79.1726 5
    endloop
  endfacet
  facet normal 1 0 0
    outer loop
      vertex 12 79.2 5
      vertex 12 79.1726 4.47736
      vertex 12 82.2 0
    endloop
  endfacet
  facet normal 1 -0 0
    outer loop
      vertex 12 78.9553 3.45491
      vertex 12 82.2 0
      vertex 12 79.1726 4.47736
    endloop
  endfacet
  facet normal 1 -0 0
    outer loop
      vertex 12 78.5301 2.5
      vertex 12 82.2 0
      vertex 12 78.9553 3.45491
    endloop
  endfacet
  facet normal 1 -0 0
    outer loop
      vertex 12 77.9157 1.65435
      vertex 12 82.2 0
      vertex 12 78.5301 2.5
    endloop
  endfacet
  facet normal 1 -0 0
    outer loop
      vertex 12 77.1389 0.954914
      vertex 12 82.2 0
      vertex 12 77.9157 1.65435
    endloop
  endfacet
  facet normal 1 -0 0
    outer loop
      vertex 12 76.2337 0.432272
      vertex 12 82.2 0
      vertex 12 77.1389 0.954914
    endloop
  endfacet
  facet normal 1 -0 0
    outer loop
      vertex 12 75.2396 0.109262
      vertex 12 82.2 0
      vertex 12 76.2337 0.432272
    endloop
  endfacet
  facet normal 1 0 0
    outer loop
      vertex 12 82.2 0
      vertex 12 75.2396 0.109262
      vertex 12 74.2 0
    endloop
  endfacet
  facet normal 0 0 0
    outer loop
      vertex 12 82.2 24.25
      vertex 12 82.2 0
      vertex 12 82.2 -3
    endloop
  endfacet
  facet normal -0 0 1
    outer loop
      vertex -3 79.2 5
      vertex 12 79.1726 5
      vertex 12 79.2 5
    endloop
  endfacet
  facet normal 0 0 1
    outer loop
      vertex 12 79.1726 5
      vertex -3 79.2 5
      vertex -3 79.1726 5
    endloop
  endfacet
  facet normal -1 0 0
    outer loop
      vertex -3 82.2 -3
      vertex -3 79.2 5
      vertex -3 82.2 24.25
    endloop
  endfacet
  facet normal -1 0 0
    outer loop
      vertex -3 82.2 -3
      vertex -3 79.1726 4.47736
      vertex -3 79.2 5
    endloop
  endfacet
  facet normal -1 0 0
    outer loop
      vertex -3 82.2 -3
      vertex -3 78.9553 3.45491
      vertex -3 79.1726 4.47736
    endloop
  endfacet
  facet normal -1 0 0
    outer loop
      vertex -3 82.2 -3
      vertex -3 78.5301 2.5
      vertex -3 78.9553 3.45491
    endloop
  endfacet
  facet normal -1 0 0
    outer loop
      vertex -3 82.2 -3
      vertex -3 77.9157 1.65435
      vertex -3 78.5301 2.5
    endloop
  endfacet
  facet normal -1 0 0
    outer loop
      vertex -3 82.2 -3
      vertex -3 77.1389 0.954914
      vertex -3 77.9157 1.65435
    endloop
  endfacet
  facet normal -1 0 0
    outer loop
      vertex -3 82.2 -3
      vertex -3 76.2337 0.432272
      vertex -3 77.1389 0.954914
    endloop
  endfacet
  facet normal -1 0 0
    outer loop
      vertex -3 74.2 -3
      vertex -3 76.2337 0.432272
      vertex -3 82.2 -3
    endloop
  endfacet
  facet normal -1 0 0
    outer loop
      vertex -3 76.2337 0.432272
      vertex -3 74.2 -3
      vertex -3 75.2396 0.109262
    endloop
  endfacet
  facet normal -1 0 0
    outer loop
      vertex -3 75.2396 0.109262
      vertex -3 74.2 -3
      vertex -3 74.2 0
    endloop
  endfacet
  facet normal -1 -0 0
    outer loop
      vertex -3 82.2 24.25
      vertex -3 79.2 5
      vertex -3 79.2 24.25
    endloop
  endfacet
  facet normal -1 -0 0
    outer loop
      vertex -3 79.2 5
      vertex -3 79.1726 4.47736
      vertex -3 79.1726 5
    endloop
  endfacet
  facet normal 0 1 -0
    outer loop
      vertex 12 82.2 -3
      vertex -3 82.2 24.25
      vertex 12 82.2 24.25
    endloop
  endfacet
  facet normal 0 1 0
    outer loop
      vertex -3 82.2 24.25
      vertex 12 82.2 -3
      vertex -3 82.2 -3
    endloop
  endfacet
  facet normal 0 -1 0
    outer loop
      vertex -3 79.1726 4.47736
      vertex 12 79.1726 5
      vertex -3 79.1726 5
    endloop
  endfacet
  facet normal 0 -1 -0
    outer loop
      vertex 12 79.1726 5
      vertex -3 79.1726 4.47736
      vertex 12 79.1726 4.47736
    endloop
  endfacet
  facet normal 0 -0.913545 0.406737
    outer loop
      vertex -3 78.5301 2.5
      vertex 12 78.9553 3.45491
      vertex -3 78.9553 3.45491
    endloop
  endfacet
  facet normal 0 -0.913545 0.406737
    outer loop
      vertex 12 78.9553 3.45491
      vertex -3 78.5301 2.5
      vertex 12 78.5301 2.5
    endloop
  endfacet
  facet normal 0 -0.104527 0.994522
    outer loop
      vertex -3 75.2396 0.109262
      vertex 12 74.2 0
      vertex 12 75.2396 0.109262
    endloop
  endfacet
  facet normal 0 -0.104527 0.994522
    outer loop
      vertex 12 74.2 0
      vertex -3 75.2396 0.109262
      vertex -3 74.2 0
    endloop
  endfacet
  facet normal 0 -0.809017 0.587785
    outer loop
      vertex -3 77.9157 1.65435
      vertex 12 78.5301 2.5
      vertex -3 78.5301 2.5
    endloop
  endfacet
  facet normal 0 -0.809017 0.587785
    outer loop
      vertex 12 78.5301 2.5
      vertex -3 77.9157 1.65435
      vertex 12 77.9157 1.65435
    endloop
  endfacet
  facet normal 0 -0.309019 0.951056
    outer loop
      vertex -3 76.2337 0.432272
      vertex 12 75.2396 0.109262
      vertex 12 76.2337 0.432272
    endloop
  endfacet
  facet normal 0 -0.309019 0.951056
    outer loop
      vertex 12 75.2396 0.109262
      vertex -3 76.2337 0.432272
      vertex -3 75.2396 0.109262
    endloop
  endfacet
  facet normal 0 -0.978148 0.207908
    outer loop
      vertex -3 78.9553 3.45491
      vertex 12 79.1726 4.47736
      vertex -3 79.1726 4.47736
    endloop
  endfacet
  facet normal 0 -0.978148 0.207908
    outer loop
      vertex 12 79.1726 4.47736
      vertex -3 78.9553 3.45491
      vertex 12 78.9553 3.45491
    endloop
  endfacet
  facet normal 0 -0.669129 0.743146
    outer loop
      vertex -3 77.9157 1.65435
      vertex 12 77.1389 0.954914
      vertex 12 77.9157 1.65435
    endloop
  endfacet
  facet normal 0 -0.669129 0.743146
    outer loop
      vertex 12 77.1389 0.954914
      vertex -3 77.9157 1.65435
      vertex -3 77.1389 0.954914
    endloop
  endfacet
  facet normal 0 -0.5 0.866025
    outer loop
      vertex -3 77.1389 0.954914
      vertex 12 76.2337 0.432272
      vertex 12 77.1389 0.954914
    endloop
  endfacet
  facet normal 0 -0.5 0.866025
    outer loop
      vertex 12 76.2337 0.432272
      vertex -3 77.1389 0.954914
      vertex -3 76.2337 0.432272
    endloop
  endfacet
  facet normal -0 0 1
    outer loop
      vertex -3 82.2 24.25
      vertex 12 79.2 24.25
      vertex 12 82.2 24.25
    endloop
  endfacet
  facet normal 0 0 1
    outer loop
      vertex 12 79.2 24.25
      vertex -3 82.2 24.25
      vertex -3 79.2 24.25
    endloop
  endfacet
  facet normal 0 -1 0
    outer loop
      vertex -3 79.2 5
      vertex 12 79.2 24.25
      vertex -3 79.2 24.25
    endloop
  endfacet
  facet normal 0 -1 -0
    outer loop
      vertex 12 79.2 24.25
      vertex -3 79.2 5
      vertex 12 79.2 5
    endloop
  endfacet
  facet normal -0 0 1
    outer loop
      vertex -3 47.1 5
      vertex 0 32.1 5
      vertex 0 47.1 5
    endloop
  endfacet
  facet normal 0 0 1
    outer loop
      vertex 0 32.1 5
      vertex -3 47.1 5
      vertex -3 32.1 5
    endloop
  endfacet
  facet normal 1 -0 0
    outer loop
      vertex 0 32.1 5
      vertex 0 47.1 0
      vertex 0 47.1 5
    endloop
  endfacet
  facet normal 1 0 0
    outer loop
      vertex 0 47.1 0
      vertex 0 32.1 5
      vertex 0 32.1 0
    endloop
  endfacet
  facet normal 0 1 -0
    outer loop
      vertex 0 47.1 0
      vertex -3 47.1 5
      vertex 0 47.1 5
    endloop
  endfacet
  facet normal 0 1 0
    outer loop
      vertex -3 47.1 5
      vertex 0 47.1 0
      vertex -3 47.1 0
    endloop
  endfacet
  facet normal 0 -1 0
    outer loop
      vertex -3 32.1 0
      vertex 0 32.1 5
      vertex -3 32.1 5
    endloop
  endfacet
  facet normal 0 -1 -0
    outer loop
      vertex 0 32.1 5
      vertex -3 32.1 0
      vertex 0 32.1 0
    endloop
  endfacet
  facet normal -1 0 0
    outer loop
      vertex 110.14 32.1 0
      vertex 110.14 47.1 10.625
      vertex 110.14 47.1 0
    endloop
  endfacet
  facet normal -1 -0 0
    outer loop
      vertex 110.14 47.1 10.625
      vertex 110.14 32.1 0
      vertex 110.14 32.1 10.625
    endloop
  endfacet
  facet normal -0 0 1
    outer loop
      vertex 110.14 47.1 10.625
      vertex 113.14 32.1 10.625
      vertex 113.14 47.1 10.625
    endloop
  endfacet
  facet normal 0 0 1
    outer loop
      vertex 113.14 32.1 10.625
      vertex 110.14 47.1 10.625
      vertex 110.14 32.1 10.625
    endloop
  endfacet
  facet normal 0 1 -0
    outer loop
      vertex 113.14 47.1 0
      vertex 110.14 47.1 10.625
      vertex 113.14 47.1 10.625
    endloop
  endfacet
  facet normal 0 1 0
    outer loop
      vertex 110.14 47.1 10.625
      vertex 113.14 47.1 0
      vertex 110.14 47.1 0
    endloop
  endfacet
  facet normal 0 -1 0
    outer loop
      vertex 110.14 32.1 0
      vertex 113.14 32.1 10.625
      vertex 110.14 32.1 10.625
    endloop
  endfacet
  facet normal 0 -1 -0
    outer loop
      vertex 113.14 32.1 10.625
      vertex 110.14 32.1 0
      vertex 113.14 32.1 0
    endloop
  endfacet
endsolid OpenSCAD_Model
