solid OpenSCAD_Model
  facet normal -1 0 0
    outer loop
      vertex -20.6 17.05 0
      vertex -20.6 32.05 18
      vertex -20.6 32.05 0
    endloop
  endfacet
  facet normal -1 -0 0
    outer loop
      vertex -20.6 32.05 18
      vertex -20.6 17.05 0
      vertex -20.6 17.05 18
    endloop
  endfacet
  facet normal -0 0 1
    outer loop
      vertex -17.6 32.05 2
      vertex 0 17.05 2
      vertex 0 32.05 2
    endloop
  endfacet
  facet normal 0 0 1
    outer loop
      vertex 0 17.05 2
      vertex -17.6 32.05 2
      vertex -17.6 17.05 2
    endloop
  endfacet
  facet normal 0 0 1
    outer loop
      vertex 13.8886 10.9206 2
      vertex 6.42658 5.51353 2
      vertex 6.5 5.05 2
    endloop
  endfacet
  facet normal 0 0 1
    outer loop
      vertex 8.37061 16.4386 2
      vertex 6.21352 5.93168 2
      vertex 6.42658 5.51353 2
    endloop
  endfacet
  facet normal 0 0 1
    outer loop
      vertex 8.37061 16.4386 2
      vertex 5.88168 6.26353 2
      vertex 6.21352 5.93168 2
    endloop
  endfacet
  facet normal 0 0 1
    outer loop
      vertex 8.37061 16.4386 2
      vertex 5.46352 6.47658 2
      vertex 5.88168 6.26353 2
    endloop
  endfacet
  facet normal 0 0 1
    outer loop
      vertex 0 17.05 2
      vertex 6.52241 19.8963 2
      vertex 5.38429 23.6482 2
    endloop
  endfacet
  facet normal 0 0 1
    outer loop
      vertex 0 32.05 2
      vertex 5.38429 23.6482 2
      vertex 5 27.55 2
    endloop
  endfacet
  facet normal 0 0 1
    outer loop
      vertex 8.37061 16.4386 2
      vertex 0 17.05 2
      vertex 5 6.55 2
    endloop
  endfacet
  facet normal -0 0 1
    outer loop
      vertex 5.88168 48.8365 2
      vertex 10.8579 41.6921 2
      vertex 6.21352 49.1683 2
    endloop
  endfacet
  facet normal -0 0 1
    outer loop
      vertex 5.46352 48.6234 2
      vertex 10.8579 41.6921 2
      vertex 5.88168 48.8365 2
    endloop
  endfacet
  facet normal -0 0 1
    outer loop
      vertex 5 48.55 2
      vertex 10.8579 41.6921 2
      vertex 5.46352 48.6234 2
    endloop
  endfacet
  facet normal 0 0 1
    outer loop
      vertex 10.8579 41.6921 2
      vertex 5 48.55 2
      vertex 8.37061 38.6614 2
    endloop
  endfacet
  facet normal 0 0 1
    outer loop
      vertex 4.53648 48.6234 2
      vertex 8.37061 38.6614 2
      vertex 5 48.55 2
    endloop
  endfacet
  facet normal 0 0 1
    outer loop
      vertex 4.11832 48.8365 2
      vertex 8.37061 38.6614 2
      vertex 4.53648 48.6234 2
    endloop
  endfacet
  facet normal 0 0 1
    outer loop
      vertex 6.52241 35.2037 2
      vertex 0 32.05 2
      vertex 5.38429 31.4518 2
    endloop
  endfacet
  facet normal 0 0 1
    outer loop
      vertex 5.38429 31.4518 2
      vertex 0 32.05 2
      vertex 5 27.55 2
    endloop
  endfacet
  facet normal 0 0 1
    outer loop
      vertex 8.37061 38.6614 2
      vertex 4.11832 48.8365 2
      vertex 6.52241 35.2037 2
    endloop
  endfacet
  facet normal 0 0 1
    outer loop
      vertex 5.38429 23.6482 2
      vertex 0 32.05 2
      vertex 0 17.05 2
    endloop
  endfacet
  facet normal 0 0 1
    outer loop
      vertex 6.52241 35.2037 2
      vertex 4.11832 48.8365 2
      vertex 0 32.05 2
    endloop
  endfacet
  facet normal 0 0 1
    outer loop
      vertex 8.37061 16.4386 2
      vertex 5 6.55 2
      vertex 5.46352 6.47658 2
    endloop
  endfacet
  facet normal 0 0 1
    outer loop
      vertex 0 32.05 2
      vertex 4.11832 48.8365 2
      vertex 3.78648 49.1683 2
    endloop
  endfacet
  facet normal 0 0 1
    outer loop
      vertex 5 6.55 2
      vertex 0 17.05 2
      vertex 4.53648 6.47658 2
    endloop
  endfacet
  facet normal 0 0 1
    outer loop
      vertex 0 32.05 2
      vertex 3.78648 49.1683 2
      vertex 3.57342 49.5865 2
    endloop
  endfacet
  facet normal 0 0 1
    outer loop
      vertex 4.53648 6.47658 2
      vertex 0 17.05 2
      vertex 4.11832 6.26353 2
    endloop
  endfacet
  facet normal 0 0 1
    outer loop
      vertex 0 55.1 2
      vertex 3.57342 49.5865 2
      vertex 3.5 50.05 2
    endloop
  endfacet
  facet normal 0 0 1
    outer loop
      vertex 4.11832 6.26353 2
      vertex 0 17.05 2
      vertex 3.78648 5.93168 2
    endloop
  endfacet
  facet normal 0 0 1
    outer loop
      vertex 50 32.05 2
      vertex 44.6157 31.4518 2
      vertex 45 27.55 2
    endloop
  endfacet
  facet normal 0 0 1
    outer loop
      vertex 39.1421 41.6921 2
      vertex 45 48.55 2
      vertex 44.5365 48.6234 2
    endloop
  endfacet
  facet normal 0 0 1
    outer loop
      vertex 39.1421 41.6921 2
      vertex 44.5365 48.6234 2
      vertex 44.1183 48.8365 2
    endloop
  endfacet
  facet normal 0 0 1
    outer loop
      vertex 39.1421 41.6921 2
      vertex 44.1183 48.8365 2
      vertex 43.7865 49.1683 2
    endloop
  endfacet
  facet normal 0 0 1
    outer loop
      vertex 36.1114 44.1794 2
      vertex 43.7865 49.1683 2
      vertex 43.5734 49.5865 2
    endloop
  endfacet
  facet normal 0 0 1
    outer loop
      vertex 36.1114 44.1794 2
      vertex 43.5734 49.5865 2
      vertex 43.5 50.05 2
    endloop
  endfacet
  facet normal 0 0 1
    outer loop
      vertex 50 32.05 2
      vertex 43.4776 35.2037 2
      vertex 44.6157 31.4518 2
    endloop
  endfacet
  facet normal -0 0 1
    outer loop
      vertex 46.2135 49.1683 2
      vertex 50 32.05 2
      vertex 46.4266 49.5865 2
    endloop
  endfacet
  facet normal 0 0 1
    outer loop
      vertex 44.6157 23.6482 2
      vertex 50 32.05 2
      vertex 45 27.55 2
    endloop
  endfacet
  facet normal -0 0 1
    outer loop
      vertex 45.8817 48.8365 2
      vertex 50 32.05 2
      vertex 46.2135 49.1683 2
    endloop
  endfacet
  facet normal 0 0 1
    outer loop
      vertex 50 32.05 2
      vertex 46.4266 5.51353 2
      vertex 46.5 5.05 2
    endloop
  endfacet
  facet normal 0 0 1
    outer loop
      vertex 43.4776 35.2037 2
      vertex 45.8817 48.8365 2
      vertex 45.4635 48.6234 2
    endloop
  endfacet
  facet normal 0 -0 1
    outer loop
      vertex 46.2135 5.93168 2
      vertex 50 32.05 2
      vertex 44.6157 23.6482 2
    endloop
  endfacet
  facet normal 0 0 1
    outer loop
      vertex 43.4776 35.2037 2
      vertex 45.4635 48.6234 2
      vertex 45 48.55 2
    endloop
  endfacet
  facet normal 0 0 1
    outer loop
      vertex 50 32.05 2
      vertex 46.2135 5.93168 2
      vertex 46.4266 5.51353 2
    endloop
  endfacet
  facet normal 0 0 1
    outer loop
      vertex 45.8817 48.8365 2
      vertex 43.4776 35.2037 2
      vertex 50 32.05 2
    endloop
  endfacet
  facet normal -0 0 1
    outer loop
      vertex 43.4776 19.8963 2
      vertex 46.2135 5.93168 2
      vertex 44.6157 23.6482 2
    endloop
  endfacet
  facet normal 0 0 1
    outer loop
      vertex 46.2135 5.93168 2
      vertex 43.4776 19.8963 2
      vertex 45.8817 6.26353 2
    endloop
  endfacet
  facet normal -0 0 1
    outer loop
      vertex 41.6294 16.4386 2
      vertex 45.8817 6.26353 2
      vertex 43.4776 19.8963 2
    endloop
  endfacet
  facet normal 0 0 1
    outer loop
      vertex 45.8817 6.26353 2
      vertex 41.6294 16.4386 2
      vertex 45.4635 6.47658 2
    endloop
  endfacet
  facet normal 0 0 1
    outer loop
      vertex 45.4635 6.47658 2
      vertex 41.6294 16.4386 2
      vertex 45 6.55 2
    endloop
  endfacet
  facet normal -0 0 1
    outer loop
      vertex 39.1421 13.4079 2
      vertex 45 6.55 2
      vertex 41.6294 16.4386 2
    endloop
  endfacet
  facet normal 0 0 1
    outer loop
      vertex 45 6.55 2
      vertex 39.1421 13.4079 2
      vertex 44.5365 6.47658 2
    endloop
  endfacet
  facet normal 0 0 1
    outer loop
      vertex 44.5365 6.47658 2
      vertex 39.1421 13.4079 2
      vertex 44.1183 6.26353 2
    endloop
  endfacet
  facet normal 0 0 1
    outer loop
      vertex 44.1183 6.26353 2
      vertex 39.1421 13.4079 2
      vertex 43.7865 5.93168 2
    endloop
  endfacet
  facet normal 0 0 1
    outer loop
      vertex 46.4266 49.5865 2
      vertex 50 55.1 2
      vertex 46.5 50.05 2
    endloop
  endfacet
  facet normal 0 0 1
    outer loop
      vertex 50 55.1 2
      vertex 46.4266 49.5865 2
      vertex 50 32.05 2
    endloop
  endfacet
  facet normal 0 0 1
    outer loop
      vertex 50 32.05 2
      vertex 46.5 5.05 2
      vertex 50 17.05 2
    endloop
  endfacet
  facet normal 0 0 1
    outer loop
      vertex 50 55.1 2
      vertex 46.4266 50.5135 2
      vertex 46.5 50.05 2
    endloop
  endfacet
  facet normal 0 0 1
    outer loop
      vertex 50 55.1 2
      vertex 46.2135 50.9317 2
      vertex 46.4266 50.5135 2
    endloop
  endfacet
  facet normal 0 0 1
    outer loop
      vertex 50 55.1 2
      vertex 45.8817 51.2635 2
      vertex 46.2135 50.9317 2
    endloop
  endfacet
  facet normal 0 0 1
    outer loop
      vertex 50 55.1 2
      vertex 45.4635 51.4766 2
      vertex 45.8817 51.2635 2
    endloop
  endfacet
  facet normal 0 0 1
    outer loop
      vertex 50 55.1 2
      vertex 45 51.55 2
      vertex 45.4635 51.4766 2
    endloop
  endfacet
  facet normal 0 0 1
    outer loop
      vertex 50 55.1 2
      vertex 44.5365 51.4766 2
      vertex 45 51.55 2
    endloop
  endfacet
  facet normal 0 0 1
    outer loop
      vertex 50 55.1 2
      vertex 44.1183 51.2635 2
      vertex 44.5365 51.4766 2
    endloop
  endfacet
  facet normal 0 0 1
    outer loop
      vertex 45 48.55 2
      vertex 41.6294 38.6614 2
      vertex 43.4776 35.2037 2
    endloop
  endfacet
  facet normal 0 0 1
    outer loop
      vertex 32.6537 46.0276 2
      vertex 43.5 50.05 2
      vertex 43.5734 50.5135 2
    endloop
  endfacet
  facet normal 0 0 1
    outer loop
      vertex 45 48.55 2
      vertex 39.1421 41.6921 2
      vertex 41.6294 38.6614 2
    endloop
  endfacet
  facet normal 0 0 1
    outer loop
      vertex 43.7865 49.1683 2
      vertex 36.1114 44.1794 2
      vertex 39.1421 41.6921 2
    endloop
  endfacet
  facet normal 0 0 1
    outer loop
      vertex 32.6537 46.0276 2
      vertex 43.5734 50.5135 2
      vertex 43.7865 50.9317 2
    endloop
  endfacet
  facet normal 0 0 1
    outer loop
      vertex 28.9018 47.1657 2
      vertex 43.7865 50.9317 2
      vertex 44.1183 51.2635 2
    endloop
  endfacet
  facet normal 0 0 1
    outer loop
      vertex 43.5 50.05 2
      vertex 32.6537 46.0276 2
      vertex 36.1114 44.1794 2
    endloop
  endfacet
  facet normal 0 0 1
    outer loop
      vertex 25 47.55 2
      vertex 44.1183 51.2635 2
      vertex 50 55.1 2
    endloop
  endfacet
  facet normal 0 0 1
    outer loop
      vertex 43.7865 50.9317 2
      vertex 28.9018 47.1657 2
      vertex 32.6537 46.0276 2
    endloop
  endfacet
  facet normal 0 0 1
    outer loop
      vertex 44.1183 51.2635 2
      vertex 25 47.55 2
      vertex 28.9018 47.1657 2
    endloop
  endfacet
  facet normal -0 0 1
    outer loop
      vertex 0 55.1 2
      vertex 25 47.55 2
      vertex 50 55.1 2
    endloop
  endfacet
  facet normal 0 0 1
    outer loop
      vertex 13.8886 44.1794 2
      vertex 6.21352 49.1683 2
      vertex 10.8579 41.6921 2
    endloop
  endfacet
  facet normal -0 0 1
    outer loop
      vertex 6.21352 49.1683 2
      vertex 13.8886 44.1794 2
      vertex 6.42658 49.5865 2
    endloop
  endfacet
  facet normal -0 0 1
    outer loop
      vertex 6.42658 49.5865 2
      vertex 13.8886 44.1794 2
      vertex 6.5 50.05 2
    endloop
  endfacet
  facet normal 0 0 1
    outer loop
      vertex 17.3463 46.0276 2
      vertex 6.5 50.05 2
      vertex 13.8886 44.1794 2
    endloop
  endfacet
  facet normal 0 0 1
    outer loop
      vertex 6.21352 50.9317 2
      vertex 17.3463 46.0276 2
      vertex 21.0982 47.1657 2
    endloop
  endfacet
  facet normal -0 -0 1
    outer loop
      vertex 5.88168 51.2635 2
      vertex 25 47.55 2
      vertex 0 55.1 2
    endloop
  endfacet
  facet normal 0 0 1
    outer loop
      vertex 17.3463 46.0276 2
      vertex 6.42658 50.5135 2
      vertex 6.5 50.05 2
    endloop
  endfacet
  facet normal 0 0 1
    outer loop
      vertex 17.3463 46.0276 2
      vertex 6.21352 50.9317 2
      vertex 6.42658 50.5135 2
    endloop
  endfacet
  facet normal 0 0 1
    outer loop
      vertex 21.0982 47.1657 2
      vertex 5.88168 51.2635 2
      vertex 6.21352 50.9317 2
    endloop
  endfacet
  facet normal 0 0 1
    outer loop
      vertex 25 47.55 2
      vertex 5.88168 51.2635 2
      vertex 21.0982 47.1657 2
    endloop
  endfacet
  facet normal 0 0 1
    outer loop
      vertex 5.88168 51.2635 2
      vertex 0 55.1 2
      vertex 5.46352 51.4766 2
    endloop
  endfacet
  facet normal 0 0 1
    outer loop
      vertex 3.57342 49.5865 2
      vertex 0 55.1 2
      vertex 0 32.05 2
    endloop
  endfacet
  facet normal 0 0 1
    outer loop
      vertex 3.57342 50.5135 2
      vertex 0 55.1 2
      vertex 3.5 50.05 2
    endloop
  endfacet
  facet normal 0 0 1
    outer loop
      vertex 3.78648 50.9317 2
      vertex 0 55.1 2
      vertex 3.57342 50.5135 2
    endloop
  endfacet
  facet normal 0 0 1
    outer loop
      vertex 4.11832 51.2635 2
      vertex 0 55.1 2
      vertex 3.78648 50.9317 2
    endloop
  endfacet
  facet normal 0 0 1
    outer loop
      vertex 4.53648 51.4766 2
      vertex 0 55.1 2
      vertex 4.11832 51.2635 2
    endloop
  endfacet
  facet normal 0 0 1
    outer loop
      vertex 5 51.55 2
      vertex 0 55.1 2
      vertex 4.53648 51.4766 2
    endloop
  endfacet
  facet normal 0 0 1
    outer loop
      vertex 5.46352 51.4766 2
      vertex 0 55.1 2
      vertex 5 51.55 2
    endloop
  endfacet
  facet normal -0 0 1
    outer loop
      vertex 50 32.05 2
      vertex 67.6 17.05 2
      vertex 67.6 32.05 2
    endloop
  endfacet
  facet normal 0 0 1
    outer loop
      vertex 67.6 17.05 2
      vertex 50 32.05 2
      vertex 50 17.05 2
    endloop
  endfacet
  facet normal 0 0 1
    outer loop
      vertex 50 17.05 2
      vertex 46.5 5.05 2
      vertex 50 0 2
    endloop
  endfacet
  facet normal -0 0 1
    outer loop
      vertex 46.4266 4.58648 2
      vertex 50 0 2
      vertex 46.5 5.05 2
    endloop
  endfacet
  facet normal -0 0 1
    outer loop
      vertex 46.2135 4.16832 2
      vertex 50 0 2
      vertex 46.4266 4.58648 2
    endloop
  endfacet
  facet normal -0 0 1
    outer loop
      vertex 45.8817 3.83648 2
      vertex 50 0 2
      vertex 46.2135 4.16832 2
    endloop
  endfacet
  facet normal -0 0 1
    outer loop
      vertex 45.4635 3.62342 2
      vertex 50 0 2
      vertex 45.8817 3.83648 2
    endloop
  endfacet
  facet normal -0 0 1
    outer loop
      vertex 45 3.55 2
      vertex 50 0 2
      vertex 45.4635 3.62342 2
    endloop
  endfacet
  facet normal 0 0 1
    outer loop
      vertex 44.5365 3.62342 2
      vertex 50 0 2
      vertex 45 3.55 2
    endloop
  endfacet
  facet normal 0 0 1
    outer loop
      vertex 44.1183 3.83648 2
      vertex 50 0 2
      vertex 44.5365 3.62342 2
    endloop
  endfacet
  facet normal -0 0 1
    outer loop
      vertex 36.1114 10.9206 2
      vertex 43.7865 5.93168 2
      vertex 39.1421 13.4079 2
    endloop
  endfacet
  facet normal 0 0 1
    outer loop
      vertex 43.7865 5.93168 2
      vertex 36.1114 10.9206 2
      vertex 43.5734 5.51353 2
    endloop
  endfacet
  facet normal 0 0 1
    outer loop
      vertex 43.5734 5.51353 2
      vertex 36.1114 10.9206 2
      vertex 43.5 5.05 2
    endloop
  endfacet
  facet normal -0 0 1
    outer loop
      vertex 32.6537 9.07241 2
      vertex 43.5 5.05 2
      vertex 36.1114 10.9206 2
    endloop
  endfacet
  facet normal 0 0 1
    outer loop
      vertex 43.5 5.05 2
      vertex 32.6537 9.07241 2
      vertex 43.5734 4.58648 2
    endloop
  endfacet
  facet normal 0 0 1
    outer loop
      vertex 43.5734 4.58648 2
      vertex 32.6537 9.07241 2
      vertex 43.7865 4.16832 2
    endloop
  endfacet
  facet normal -0 0 1
    outer loop
      vertex 28.9018 7.93429 2
      vertex 43.7865 4.16832 2
      vertex 32.6537 9.07241 2
    endloop
  endfacet
  facet normal 0 0 1
    outer loop
      vertex 43.7865 4.16832 2
      vertex 28.9018 7.93429 2
      vertex 44.1183 3.83648 2
    endloop
  endfacet
  facet normal -0 0 1
    outer loop
      vertex 25 7.55 2
      vertex 44.1183 3.83648 2
      vertex 28.9018 7.93429 2
    endloop
  endfacet
  facet normal 0 0 1
    outer loop
      vertex 44.1183 3.83648 2
      vertex 25 7.55 2
      vertex 50 0 2
    endloop
  endfacet
  facet normal 0 0 1
    outer loop
      vertex 5.88168 3.83648 2
      vertex 25 7.55 2
      vertex 21.0982 7.93429 2
    endloop
  endfacet
  facet normal -0 0 1
    outer loop
      vertex 0 17.05 2
      vertex 8.37061 16.4386 2
      vertex 6.52241 19.8963 2
    endloop
  endfacet
  facet normal 0 0 1
    outer loop
      vertex 6.42658 5.51353 2
      vertex 10.8579 13.4079 2
      vertex 8.37061 16.4386 2
    endloop
  endfacet
  facet normal 0 0 1
    outer loop
      vertex 6.42658 5.51353 2
      vertex 13.8886 10.9206 2
      vertex 10.8579 13.4079 2
    endloop
  endfacet
  facet normal 0 0 1
    outer loop
      vertex 6.5 5.05 2
      vertex 17.3463 9.07241 2
      vertex 13.8886 10.9206 2
    endloop
  endfacet
  facet normal 0 0 1
    outer loop
      vertex 6.42658 4.58648 2
      vertex 17.3463 9.07241 2
      vertex 6.5 5.05 2
    endloop
  endfacet
  facet normal 0 0 1
    outer loop
      vertex 6.21352 4.16832 2
      vertex 17.3463 9.07241 2
      vertex 6.42658 4.58648 2
    endloop
  endfacet
  facet normal 0 0 1
    outer loop
      vertex 17.3463 9.07241 2
      vertex 6.21352 4.16832 2
      vertex 21.0982 7.93429 2
    endloop
  endfacet
  facet normal 0 0 1
    outer loop
      vertex 5.88168 3.83648 2
      vertex 21.0982 7.93429 2
      vertex 6.21352 4.16832 2
    endloop
  endfacet
  facet normal 0 0 1
    outer loop
      vertex 25 7.55 2
      vertex 5.88168 3.83648 2
      vertex 0 0 2
    endloop
  endfacet
  facet normal 0 0 1
    outer loop
      vertex 0 0 2
      vertex 5.88168 3.83648 2
      vertex 5.46352 3.62342 2
    endloop
  endfacet
  facet normal 0 0 1
    outer loop
      vertex 0 0 2
      vertex 5.46352 3.62342 2
      vertex 5 3.55 2
    endloop
  endfacet
  facet normal 0 0 1
    outer loop
      vertex 3.78648 5.93168 2
      vertex 0 17.05 2
      vertex 3.57342 5.51353 2
    endloop
  endfacet
  facet normal 0 0 1
    outer loop
      vertex 0 0 2
      vertex 3.57342 5.51353 2
      vertex 0 17.05 2
    endloop
  endfacet
  facet normal 0 0 1
    outer loop
      vertex 3.57342 5.51353 2
      vertex 0 0 2
      vertex 3.5 5.05 2
    endloop
  endfacet
  facet normal 0 0 1
    outer loop
      vertex 25 7.55 2
      vertex 0 0 2
      vertex 50 0 2
    endloop
  endfacet
  facet normal 0 0 1
    outer loop
      vertex 4.53648 3.62342 2
      vertex 0 0 2
      vertex 5 3.55 2
    endloop
  endfacet
  facet normal 0 0 1
    outer loop
      vertex 4.11832 3.83648 2
      vertex 0 0 2
      vertex 4.53648 3.62342 2
    endloop
  endfacet
  facet normal 0 0 1
    outer loop
      vertex 3.78648 4.16832 2
      vertex 0 0 2
      vertex 4.11832 3.83648 2
    endloop
  endfacet
  facet normal 0 0 1
    outer loop
      vertex 3.57342 4.58648 2
      vertex 0 0 2
      vertex 3.78648 4.16832 2
    endloop
  endfacet
  facet normal 0 0 1
    outer loop
      vertex 3.5 5.05 2
      vertex 0 0 2
      vertex 3.57342 4.58648 2
    endloop
  endfacet
  facet normal 1 -0 0
    outer loop
      vertex 70.6 17.05 18
      vertex 70.6 32.05 0
      vertex 70.6 32.05 18
    endloop
  endfacet
  facet normal 1 0 0
    outer loop
      vertex 70.6 32.05 0
      vertex 70.6 17.05 18
      vertex 70.6 17.05 0
    endloop
  endfacet
  facet normal 0 1 0
    outer loop
      vertex 70.6 32.05 18
      vertex 67.6 32.05 2
      vertex 67.6 32.05 18
    endloop
  endfacet
  facet normal 0 1 -0
    outer loop
      vertex 70.6 32.05 0
      vertex 67.6 32.05 2
      vertex 70.6 32.05 18
    endloop
  endfacet
  facet normal 0 1 0
    outer loop
      vertex 50 32.05 0
      vertex 67.6 32.05 2
      vertex 70.6 32.05 0
    endloop
  endfacet
  facet normal 0 1 0
    outer loop
      vertex 67.6 32.05 2
      vertex 50 32.05 0
      vertex 50 32.05 2
    endloop
  endfacet
  facet normal 0 1 0
    outer loop
      vertex 0 32.05 2
      vertex 0 32.05 0
      vertex -17.6 32.05 2
    endloop
  endfacet
  facet normal 0 1 -0
    outer loop
      vertex -17.6 32.05 2
      vertex -20.6 32.05 18
      vertex -17.6 32.05 18
    endloop
  endfacet
  facet normal 0 1 0
    outer loop
      vertex -17.6 32.05 2
      vertex -20.6 32.05 0
      vertex -20.6 32.05 18
    endloop
  endfacet
  facet normal 0 1 0
    outer loop
      vertex -20.6 32.05 0
      vertex -17.6 32.05 2
      vertex 0 32.05 0
    endloop
  endfacet
  facet normal 0 0 -1
    outer loop
      vertex -20.6 17.05 0
      vertex 0 32.05 0
      vertex 0 17.05 0
    endloop
  endfacet
  facet normal -0 0 -1
    outer loop
      vertex 0 32.05 0
      vertex -20.6 17.05 0
      vertex -20.6 32.05 0
    endloop
  endfacet
  facet normal 0 0 -1
    outer loop
      vertex 13.8886 44.1794 0
      vertex 6.42658 49.5865 0
      vertex 6.5 50.05 0
    endloop
  endfacet
  facet normal 0 0 -1
    outer loop
      vertex 8.37061 38.6614 0
      vertex 6.21352 49.1683 0
      vertex 6.42658 49.5865 0
    endloop
  endfacet
  facet normal 0 0 -1
    outer loop
      vertex 8.37061 38.6614 0
      vertex 5.88168 48.8365 0
      vertex 6.21352 49.1683 0
    endloop
  endfacet
  facet normal 0 0 -1
    outer loop
      vertex 8.37061 38.6614 0
      vertex 5.46352 48.6234 0
      vertex 5.88168 48.8365 0
    endloop
  endfacet
  facet normal 0 0 -1
    outer loop
      vertex 0 32.05 0
      vertex 6.52241 35.2037 0
      vertex 5.38429 31.4518 0
    endloop
  endfacet
  facet normal 0 0 -1
    outer loop
      vertex 0 32.05 0
      vertex 5.38429 31.4518 0
      vertex 5 27.55 0
    endloop
  endfacet
  facet normal 0 -0 -1
    outer loop
      vertex 4.11832 48.8365 0
      vertex 6.52241 35.2037 0
      vertex 0 32.05 0
    endloop
  endfacet
  facet normal 0 0 -1
    outer loop
      vertex 5.88168 6.26353 0
      vertex 10.8579 13.4079 0
      vertex 6.21352 5.93168 0
    endloop
  endfacet
  facet normal 0 0 -1
    outer loop
      vertex 5.46352 6.47658 0
      vertex 10.8579 13.4079 0
      vertex 5.88168 6.26353 0
    endloop
  endfacet
  facet normal 0 0 -1
    outer loop
      vertex 5 6.55 0
      vertex 10.8579 13.4079 0
      vertex 5.46352 6.47658 0
    endloop
  endfacet
  facet normal -0 0 -1
    outer loop
      vertex 10.8579 13.4079 0
      vertex 5 6.55 0
      vertex 8.37061 16.4386 0
    endloop
  endfacet
  facet normal 0 0 -1
    outer loop
      vertex 0 17.05 0
      vertex 8.37061 16.4386 0
      vertex 5 6.55 0
    endloop
  endfacet
  facet normal 0 0 -1
    outer loop
      vertex 8.37061 16.4386 0
      vertex 0 17.05 0
      vertex 6.52241 19.8963 0
    endloop
  endfacet
  facet normal -0 0 -1
    outer loop
      vertex 6.52241 19.8963 0
      vertex 0 17.05 0
      vertex 5.38429 23.6482 0
    endloop
  endfacet
  facet normal 0 0 -1
    outer loop
      vertex 0 32.05 0
      vertex 5.38429 23.6482 0
      vertex 0 17.05 0
    endloop
  endfacet
  facet normal 0 0 -1
    outer loop
      vertex 0 17.05 0
      vertex 5 6.55 0
      vertex 4.53648 6.47658 0
    endloop
  endfacet
  facet normal 0 0 -1
    outer loop
      vertex 8.37061 38.6614 0
      vertex 5 48.55 0
      vertex 5.46352 48.6234 0
    endloop
  endfacet
  facet normal 0 0 -1
    outer loop
      vertex 0 17.05 0
      vertex 4.53648 6.47658 0
      vertex 4.11832 6.26353 0
    endloop
  endfacet
  facet normal 0 0 -1
    outer loop
      vertex 8.37061 38.6614 0
      vertex 4.53648 48.6234 0
      vertex 5 48.55 0
    endloop
  endfacet
  facet normal 0 0 -1
    outer loop
      vertex 0 17.05 0
      vertex 4.11832 6.26353 0
      vertex 3.78648 5.93168 0
    endloop
  endfacet
  facet normal 0 0 -1
    outer loop
      vertex 8.37061 38.6614 0
      vertex 4.11832 48.8365 0
      vertex 4.53648 48.6234 0
    endloop
  endfacet
  facet normal 0 0 -1
    outer loop
      vertex 0 17.05 0
      vertex 3.78648 5.93168 0
      vertex 3.57342 5.51353 0
    endloop
  endfacet
  facet normal -0 0 -1
    outer loop
      vertex 4.11832 48.8365 0
      vertex 0 32.05 0
      vertex 3.78648 49.1683 0
    endloop
  endfacet
  facet normal 0 0 -1
    outer loop
      vertex 0 0 0
      vertex 3.57342 5.51353 0
      vertex 3.5 5.05 0
    endloop
  endfacet
  facet normal -0 0 -1
    outer loop
      vertex 3.78648 49.1683 0
      vertex 0 32.05 0
      vertex 3.57342 49.5865 0
    endloop
  endfacet
  facet normal 0 0 -1
    outer loop
      vertex 50 32.05 0
      vertex 44.6157 23.6482 0
      vertex 45 27.55 0
    endloop
  endfacet
  facet normal 0 0 -1
    outer loop
      vertex 39.1421 13.4079 0
      vertex 45 6.55 0
      vertex 44.5365 6.47658 0
    endloop
  endfacet
  facet normal 0 0 -1
    outer loop
      vertex 39.1421 13.4079 0
      vertex 44.5365 6.47658 0
      vertex 44.1183 6.26353 0
    endloop
  endfacet
  facet normal 0 0 -1
    outer loop
      vertex 39.1421 13.4079 0
      vertex 44.1183 6.26353 0
      vertex 43.7865 5.93168 0
    endloop
  endfacet
  facet normal 0 0 -1
    outer loop
      vertex 36.1114 10.9206 0
      vertex 43.7865 5.93168 0
      vertex 43.5734 5.51353 0
    endloop
  endfacet
  facet normal 0 0 -1
    outer loop
      vertex 36.1114 10.9206 0
      vertex 43.5734 5.51353 0
      vertex 43.5 5.05 0
    endloop
  endfacet
  facet normal 0 0 -1
    outer loop
      vertex 50 17.05 0
      vertex 43.4776 19.8963 0
      vertex 44.6157 23.6482 0
    endloop
  endfacet
  facet normal 0 0 -1
    outer loop
      vertex 45.8817 6.26353 0
      vertex 50 17.05 0
      vertex 46.2135 5.93168 0
    endloop
  endfacet
  facet normal 0 0 -1
    outer loop
      vertex 44.6157 31.4518 0
      vertex 50 32.05 0
      vertex 45 27.55 0
    endloop
  endfacet
  facet normal 0 0 -1
    outer loop
      vertex 44.6157 23.6482 0
      vertex 50 32.05 0
      vertex 50 17.05 0
    endloop
  endfacet
  facet normal 0 0 -1
    outer loop
      vertex 50 32.05 0
      vertex 46.4266 49.5865 0
      vertex 46.5 50.05 0
    endloop
  endfacet
  facet normal 0 0 -1
    outer loop
      vertex 45.4635 6.47658 0
      vertex 50 17.05 0
      vertex 45.8817 6.26353 0
    endloop
  endfacet
  facet normal 0 0 -1
    outer loop
      vertex 43.4776 35.2037 0
      vertex 50 32.05 0
      vertex 44.6157 31.4518 0
    endloop
  endfacet
  facet normal 0 0 -1
    outer loop
      vertex 45 6.55 0
      vertex 50 17.05 0
      vertex 45.4635 6.47658 0
    endloop
  endfacet
  facet normal 0 0 -1
    outer loop
      vertex 50 32.05 0
      vertex 46.2135 49.1683 0
      vertex 46.4266 49.5865 0
    endloop
  endfacet
  facet normal 0 0 -1
    outer loop
      vertex 41.6294 16.4386 0
      vertex 50 17.05 0
      vertex 45 6.55 0
    endloop
  endfacet
  facet normal 0 -0 -1
    outer loop
      vertex 45.8817 48.8365 0
      vertex 50 32.05 0
      vertex 43.4776 35.2037 0
    endloop
  endfacet
  facet normal 0 0 -1
    outer loop
      vertex 50 32.05 0
      vertex 45.8817 48.8365 0
      vertex 46.2135 49.1683 0
    endloop
  endfacet
  facet normal 0 0 -1
    outer loop
      vertex 41.6294 38.6614 0
      vertex 45.8817 48.8365 0
      vertex 43.4776 35.2037 0
    endloop
  endfacet
  facet normal 0 0 -1
    outer loop
      vertex 45.8817 48.8365 0
      vertex 41.6294 38.6614 0
      vertex 45.4635 48.6234 0
    endloop
  endfacet
  facet normal 0 0 -1
    outer loop
      vertex 45.4635 48.6234 0
      vertex 41.6294 38.6614 0
      vertex 45 48.55 0
    endloop
  endfacet
  facet normal 0 0 -1
    outer loop
      vertex 39.1421 41.6921 0
      vertex 45 48.55 0
      vertex 41.6294 38.6614 0
    endloop
  endfacet
  facet normal -0 0 -1
    outer loop
      vertex 45 48.55 0
      vertex 39.1421 41.6921 0
      vertex 44.5365 48.6234 0
    endloop
  endfacet
  facet normal -0 0 -1
    outer loop
      vertex 44.5365 48.6234 0
      vertex 39.1421 41.6921 0
      vertex 44.1183 48.8365 0
    endloop
  endfacet
  facet normal -0 0 -1
    outer loop
      vertex 44.1183 48.8365 0
      vertex 39.1421 41.6921 0
      vertex 43.7865 49.1683 0
    endloop
  endfacet
  facet normal 0 0 -1
    outer loop
      vertex 46.4266 5.51353 0
      vertex 50 0 0
      vertex 46.5 5.05 0
    endloop
  endfacet
  facet normal 0 0 -1
    outer loop
      vertex 50 0 0
      vertex 46.4266 5.51353 0
      vertex 50 17.05 0
    endloop
  endfacet
  facet normal 0 0 -1
    outer loop
      vertex 46.2135 5.93168 0
      vertex 50 17.05 0
      vertex 46.4266 5.51353 0
    endloop
  endfacet
  facet normal 0 0 -1
    outer loop
      vertex 50 0 0
      vertex 46.4266 4.58648 0
      vertex 46.5 5.05 0
    endloop
  endfacet
  facet normal 0 0 -1
    outer loop
      vertex 50 0 0
      vertex 46.2135 4.16832 0
      vertex 46.4266 4.58648 0
    endloop
  endfacet
  facet normal 0 0 -1
    outer loop
      vertex 50 0 0
      vertex 45.8817 3.83648 0
      vertex 46.2135 4.16832 0
    endloop
  endfacet
  facet normal 0 0 -1
    outer loop
      vertex 50 0 0
      vertex 45.4635 3.62342 0
      vertex 45.8817 3.83648 0
    endloop
  endfacet
  facet normal 0 0 -1
    outer loop
      vertex 50 0 0
      vertex 45 3.55 0
      vertex 45.4635 3.62342 0
    endloop
  endfacet
  facet normal 0 0 -1
    outer loop
      vertex 50 0 0
      vertex 44.5365 3.62342 0
      vertex 45 3.55 0
    endloop
  endfacet
  facet normal 0 0 -1
    outer loop
      vertex 50 0 0
      vertex 44.1183 3.83648 0
      vertex 44.5365 3.62342 0
    endloop
  endfacet
  facet normal -0 0 -1
    outer loop
      vertex 50 17.05 0
      vertex 41.6294 16.4386 0
      vertex 43.4776 19.8963 0
    endloop
  endfacet
  facet normal 0 0 -1
    outer loop
      vertex 32.6537 9.07241 0
      vertex 43.5 5.05 0
      vertex 43.5734 4.58648 0
    endloop
  endfacet
  facet normal 0 0 -1
    outer loop
      vertex 45 6.55 0
      vertex 39.1421 13.4079 0
      vertex 41.6294 16.4386 0
    endloop
  endfacet
  facet normal 0 0 -1
    outer loop
      vertex 43.7865 5.93168 0
      vertex 36.1114 10.9206 0
      vertex 39.1421 13.4079 0
    endloop
  endfacet
  facet normal 0 0 -1
    outer loop
      vertex 32.6537 9.07241 0
      vertex 43.5734 4.58648 0
      vertex 43.7865 4.16832 0
    endloop
  endfacet
  facet normal 0 0 -1
    outer loop
      vertex 28.9018 7.93429 0
      vertex 43.7865 4.16832 0
      vertex 44.1183 3.83648 0
    endloop
  endfacet
  facet normal 0 0 -1
    outer loop
      vertex 43.5 5.05 0
      vertex 32.6537 9.07241 0
      vertex 36.1114 10.9206 0
    endloop
  endfacet
  facet normal 0 0 -1
    outer loop
      vertex 25 7.55 0
      vertex 44.1183 3.83648 0
      vertex 50 0 0
    endloop
  endfacet
  facet normal 0 0 -1
    outer loop
      vertex 43.7865 4.16832 0
      vertex 28.9018 7.93429 0
      vertex 32.6537 9.07241 0
    endloop
  endfacet
  facet normal 0 0 -1
    outer loop
      vertex 44.1183 3.83648 0
      vertex 25 7.55 0
      vertex 28.9018 7.93429 0
    endloop
  endfacet
  facet normal 0 0 -1
    outer loop
      vertex 0 0 0
      vertex 25 7.55 0
      vertex 50 0 0
    endloop
  endfacet
  facet normal -0 0 -1
    outer loop
      vertex 13.8886 10.9206 0
      vertex 6.21352 5.93168 0
      vertex 10.8579 13.4079 0
    endloop
  endfacet
  facet normal 0 0 -1
    outer loop
      vertex 6.21352 5.93168 0
      vertex 13.8886 10.9206 0
      vertex 6.42658 5.51353 0
    endloop
  endfacet
  facet normal 0 0 -1
    outer loop
      vertex 6.42658 5.51353 0
      vertex 13.8886 10.9206 0
      vertex 6.5 5.05 0
    endloop
  endfacet
  facet normal -0 0 -1
    outer loop
      vertex 17.3463 9.07241 0
      vertex 6.5 5.05 0
      vertex 13.8886 10.9206 0
    endloop
  endfacet
  facet normal 0 0 -1
    outer loop
      vertex 6.21352 4.16832 0
      vertex 17.3463 9.07241 0
      vertex 21.0982 7.93429 0
    endloop
  endfacet
  facet normal 0 -0 -1
    outer loop
      vertex 5.88168 3.83648 0
      vertex 25 7.55 0
      vertex 0 0 0
    endloop
  endfacet
  facet normal 0 0 -1
    outer loop
      vertex 17.3463 9.07241 0
      vertex 6.42658 4.58648 0
      vertex 6.5 5.05 0
    endloop
  endfacet
  facet normal 0 0 -1
    outer loop
      vertex 17.3463 9.07241 0
      vertex 6.21352 4.16832 0
      vertex 6.42658 4.58648 0
    endloop
  endfacet
  facet normal 0 0 -1
    outer loop
      vertex 21.0982 7.93429 0
      vertex 5.88168 3.83648 0
      vertex 6.21352 4.16832 0
    endloop
  endfacet
  facet normal -0 0 -1
    outer loop
      vertex 25 7.55 0
      vertex 5.88168 3.83648 0
      vertex 21.0982 7.93429 0
    endloop
  endfacet
  facet normal 0 0 -1
    outer loop
      vertex 5.88168 3.83648 0
      vertex 0 0 0
      vertex 5.46352 3.62342 0
    endloop
  endfacet
  facet normal -0 0 -1
    outer loop
      vertex 3.57342 5.51353 0
      vertex 0 0 0
      vertex 0 17.05 0
    endloop
  endfacet
  facet normal -0 0 -1
    outer loop
      vertex 3.57342 4.58648 0
      vertex 0 0 0
      vertex 3.5 5.05 0
    endloop
  endfacet
  facet normal -0 0 -1
    outer loop
      vertex 3.78648 4.16832 0
      vertex 0 0 0
      vertex 3.57342 4.58648 0
    endloop
  endfacet
  facet normal -0 0 -1
    outer loop
      vertex 4.11832 3.83648 0
      vertex 0 0 0
      vertex 3.78648 4.16832 0
    endloop
  endfacet
  facet normal -0 0 -1
    outer loop
      vertex 4.53648 3.62342 0
      vertex 0 0 0
      vertex 4.11832 3.83648 0
    endloop
  endfacet
  facet normal -0 0 -1
    outer loop
      vertex 5 3.55 0
      vertex 0 0 0
      vertex 4.53648 3.62342 0
    endloop
  endfacet
  facet normal 0 0 -1
    outer loop
      vertex 5.46352 3.62342 0
      vertex 0 0 0
      vertex 5 3.55 0
    endloop
  endfacet
  facet normal 0 0 -1
    outer loop
      vertex 50 17.05 0
      vertex 70.6 32.05 0
      vertex 70.6 17.05 0
    endloop
  endfacet
  facet normal -0 0 -1
    outer loop
      vertex 70.6 32.05 0
      vertex 50 17.05 0
      vertex 50 32.05 0
    endloop
  endfacet
  facet normal 0 0 -1
    outer loop
      vertex 50 32.05 0
      vertex 46.5 50.05 0
      vertex 50 55.1 0
    endloop
  endfacet
  facet normal 0 0 -1
    outer loop
      vertex 46.4266 50.5135 0
      vertex 50 55.1 0
      vertex 46.5 50.05 0
    endloop
  endfacet
  facet normal 0 0 -1
    outer loop
      vertex 46.2135 50.9317 0
      vertex 50 55.1 0
      vertex 46.4266 50.5135 0
    endloop
  endfacet
  facet normal 0 0 -1
    outer loop
      vertex 45.8817 51.2635 0
      vertex 50 55.1 0
      vertex 46.2135 50.9317 0
    endloop
  endfacet
  facet normal 0 0 -1
    outer loop
      vertex 45.4635 51.4766 0
      vertex 50 55.1 0
      vertex 45.8817 51.2635 0
    endloop
  endfacet
  facet normal 0 0 -1
    outer loop
      vertex 45 51.55 0
      vertex 50 55.1 0
      vertex 45.4635 51.4766 0
    endloop
  endfacet
  facet normal 0 0 -1
    outer loop
      vertex 44.5365 51.4766 0
      vertex 50 55.1 0
      vertex 45 51.55 0
    endloop
  endfacet
  facet normal 0 0 -1
    outer loop
      vertex 44.1183 51.2635 0
      vertex 50 55.1 0
      vertex 44.5365 51.4766 0
    endloop
  endfacet
  facet normal 0 0 -1
    outer loop
      vertex 36.1114 44.1794 0
      vertex 43.7865 49.1683 0
      vertex 39.1421 41.6921 0
    endloop
  endfacet
  facet normal -0 0 -1
    outer loop
      vertex 43.7865 49.1683 0
      vertex 36.1114 44.1794 0
      vertex 43.5734 49.5865 0
    endloop
  endfacet
  facet normal -0 0 -1
    outer loop
      vertex 43.5734 49.5865 0
      vertex 36.1114 44.1794 0
      vertex 43.5 50.05 0
    endloop
  endfacet
  facet normal 0 0 -1
    outer loop
      vertex 32.6537 46.0276 0
      vertex 43.5 50.05 0
      vertex 36.1114 44.1794 0
    endloop
  endfacet
  facet normal -0 0 -1
    outer loop
      vertex 43.5 50.05 0
      vertex 32.6537 46.0276 0
      vertex 43.5734 50.5135 0
    endloop
  endfacet
  facet normal -0 0 -1
    outer loop
      vertex 43.5734 50.5135 0
      vertex 32.6537 46.0276 0
      vertex 43.7865 50.9317 0
    endloop
  endfacet
  facet normal 0 0 -1
    outer loop
      vertex 28.9018 47.1657 0
      vertex 43.7865 50.9317 0
      vertex 32.6537 46.0276 0
    endloop
  endfacet
  facet normal -0 0 -1
    outer loop
      vertex 43.7865 50.9317 0
      vertex 28.9018 47.1657 0
      vertex 44.1183 51.2635 0
    endloop
  endfacet
  facet normal 0 0 -1
    outer loop
      vertex 25 47.55 0
      vertex 44.1183 51.2635 0
      vertex 28.9018 47.1657 0
    endloop
  endfacet
  facet normal -0 0 -1
    outer loop
      vertex 44.1183 51.2635 0
      vertex 25 47.55 0
      vertex 50 55.1 0
    endloop
  endfacet
  facet normal 0 0 -1
    outer loop
      vertex 5.88168 51.2635 0
      vertex 25 47.55 0
      vertex 21.0982 47.1657 0
    endloop
  endfacet
  facet normal 0 0 -1
    outer loop
      vertex 4.11832 48.8365 0
      vertex 8.37061 38.6614 0
      vertex 6.52241 35.2037 0
    endloop
  endfacet
  facet normal 0 0 -1
    outer loop
      vertex 6.42658 49.5865 0
      vertex 10.8579 41.6921 0
      vertex 8.37061 38.6614 0
    endloop
  endfacet
  facet normal 0 0 -1
    outer loop
      vertex 6.42658 49.5865 0
      vertex 13.8886 44.1794 0
      vertex 10.8579 41.6921 0
    endloop
  endfacet
  facet normal 0 0 -1
    outer loop
      vertex 6.5 50.05 0
      vertex 17.3463 46.0276 0
      vertex 13.8886 44.1794 0
    endloop
  endfacet
  facet normal 0 0 -1
    outer loop
      vertex 6.42658 50.5135 0
      vertex 17.3463 46.0276 0
      vertex 6.5 50.05 0
    endloop
  endfacet
  facet normal 0 0 -1
    outer loop
      vertex 6.21352 50.9317 0
      vertex 17.3463 46.0276 0
      vertex 6.42658 50.5135 0
    endloop
  endfacet
  facet normal 0 0 -1
    outer loop
      vertex 17.3463 46.0276 0
      vertex 6.21352 50.9317 0
      vertex 21.0982 47.1657 0
    endloop
  endfacet
  facet normal 0 0 -1
    outer loop
      vertex 5.88168 51.2635 0
      vertex 21.0982 47.1657 0
      vertex 6.21352 50.9317 0
    endloop
  endfacet
  facet normal 0 0 -1
    outer loop
      vertex 25 47.55 0
      vertex 5.88168 51.2635 0
      vertex 0 55.1 0
    endloop
  endfacet
  facet normal 0 0 -1
    outer loop
      vertex 0 55.1 0
      vertex 5.88168 51.2635 0
      vertex 5.46352 51.4766 0
    endloop
  endfacet
  facet normal 0 0 -1
    outer loop
      vertex 0 55.1 0
      vertex 5.46352 51.4766 0
      vertex 5 51.55 0
    endloop
  endfacet
  facet normal 0 0 -1
    outer loop
      vertex 5.38429 23.6482 0
      vertex 0 32.05 0
      vertex 5 27.55 0
    endloop
  endfacet
  facet normal 0 0 -1
    outer loop
      vertex 0 55.1 0
      vertex 3.57342 49.5865 0
      vertex 0 32.05 0
    endloop
  endfacet
  facet normal 0 0 -1
    outer loop
      vertex 3.57342 49.5865 0
      vertex 0 55.1 0
      vertex 3.5 50.05 0
    endloop
  endfacet
  facet normal 0 0 -1
    outer loop
      vertex 25 47.55 0
      vertex 0 55.1 0
      vertex 50 55.1 0
    endloop
  endfacet
  facet normal 0 0 -1
    outer loop
      vertex 4.53648 51.4766 0
      vertex 0 55.1 0
      vertex 5 51.55 0
    endloop
  endfacet
  facet normal 0 0 -1
    outer loop
      vertex 4.11832 51.2635 0
      vertex 0 55.1 0
      vertex 4.53648 51.4766 0
    endloop
  endfacet
  facet normal 0 0 -1
    outer loop
      vertex 3.78648 50.9317 0
      vertex 0 55.1 0
      vertex 4.11832 51.2635 0
    endloop
  endfacet
  facet normal 0 0 -1
    outer loop
      vertex 3.57342 50.5135 0
      vertex 0 55.1 0
      vertex 3.78648 50.9317 0
    endloop
  endfacet
  facet normal 0 0 -1
    outer loop
      vertex 3.5 50.05 0
      vertex 0 55.1 0
      vertex 3.57342 50.5135 0
    endloop
  endfacet
  facet normal 0 -1 0
    outer loop
      vertex 50 17.05 2
      vertex 50 17.05 0
      vertex 67.6 17.05 2
    endloop
  endfacet
  facet normal 0 -1 0
    outer loop
      vertex 67.6 17.05 2
      vertex 70.6 17.05 18
      vertex 67.6 17.05 18
    endloop
  endfacet
  facet normal 0 -1 0
    outer loop
      vertex 67.6 17.05 2
      vertex 70.6 17.05 0
      vertex 70.6 17.05 18
    endloop
  endfacet
  facet normal 0 -1 0
    outer loop
      vertex 70.6 17.05 0
      vertex 67.6 17.05 2
      vertex 50 17.05 0
    endloop
  endfacet
  facet normal 0 -1 0
    outer loop
      vertex -20.6 17.05 18
      vertex -17.6 17.05 2
      vertex -17.6 17.05 18
    endloop
  endfacet
  facet normal 0 -1 0
    outer loop
      vertex -20.6 17.05 0
      vertex -17.6 17.05 2
      vertex -20.6 17.05 18
    endloop
  endfacet
  facet normal 0 -1 0
    outer loop
      vertex 0 17.05 0
      vertex -17.6 17.05 2
      vertex -20.6 17.05 0
    endloop
  endfacet
  facet normal 0 -1 0
    outer loop
      vertex -17.6 17.05 2
      vertex 0 17.05 0
      vertex 0 17.05 2
    endloop
  endfacet
  facet normal -0 0 1
    outer loop
      vertex -20.6 32.05 18
      vertex -17.6 17.05 18
      vertex -17.6 32.05 18
    endloop
  endfacet
  facet normal 0 0 1
    outer loop
      vertex -17.6 17.05 18
      vertex -20.6 32.05 18
      vertex -20.6 17.05 18
    endloop
  endfacet
  facet normal 1 -0 0
    outer loop
      vertex -17.6 17.05 18
      vertex -17.6 32.05 2
      vertex -17.6 32.05 18
    endloop
  endfacet
  facet normal 1 0 0
    outer loop
      vertex -17.6 32.05 2
      vertex -17.6 17.05 18
      vertex -17.6 17.05 2
    endloop
  endfacet
  facet normal -1 0 0
    outer loop
      vertex 67.6 17.05 2
      vertex 67.6 32.05 18
      vertex 67.6 32.05 2
    endloop
  endfacet
  facet normal -1 -0 0
    outer loop
      vertex 67.6 32.05 18
      vertex 67.6 17.05 2
      vertex 67.6 17.05 18
    endloop
  endfacet
  facet normal -0 0 1
    outer loop
      vertex 67.6 32.05 18
      vertex 70.6 17.05 18
      vertex 70.6 32.05 18
    endloop
  endfacet
  facet normal 0 0 1
    outer loop
      vertex 70.6 17.05 18
      vertex 67.6 32.05 18
      vertex 67.6 17.05 18
    endloop
  endfacet
  facet normal -1 0 0
    outer loop
      vertex 0 0 0
      vertex 0 17.05 2
      vertex 0 17.05 0
    endloop
  endfacet
  facet normal -1 -0 0
    outer loop
      vertex 0 17.05 2
      vertex 0 0 0
      vertex 0 0 2
    endloop
  endfacet
  facet normal -1 0 0
    outer loop
      vertex 0 32.05 0
      vertex 0 55.1 2
      vertex 0 55.1 0
    endloop
  endfacet
  facet normal -1 -0 0
    outer loop
      vertex 0 55.1 2
      vertex 0 32.05 0
      vertex 0 32.05 2
    endloop
  endfacet
  facet normal 1 -0 0
    outer loop
      vertex 50 0 2
      vertex 50 17.05 0
      vertex 50 17.05 2
    endloop
  endfacet
  facet normal 1 0 0
    outer loop
      vertex 50 17.05 0
      vertex 50 0 2
      vertex 50 0 0
    endloop
  endfacet
  facet normal 1 -0 0
    outer loop
      vertex 50 32.05 2
      vertex 50 55.1 0
      vertex 50 55.1 2
    endloop
  endfacet
  facet normal 1 0 0
    outer loop
      vertex 50 55.1 0
      vertex 50 32.05 2
      vertex 50 32.05 0
    endloop
  endfacet
  facet normal 0 1 -0
    outer loop
      vertex 50 55.1 0
      vertex 0 55.1 2
      vertex 50 55.1 2
    endloop
  endfacet
  facet normal 0 1 0
    outer loop
      vertex 0 55.1 2
      vertex 50 55.1 0
      vertex 0 55.1 0
    endloop
  endfacet
  facet normal 0 -1 0
    outer loop
      vertex 0 0 0
      vertex 50 0 2
      vertex 0 0 2
    endloop
  endfacet
  facet normal 0 -1 -0
    outer loop
      vertex 50 0 2
      vertex 0 0 0
      vertex 50 0 0
    endloop
  endfacet
  facet normal -0.987688 -0.156436 0
    outer loop
      vertex 6.5 5.05 0
      vertex 6.42658 5.51353 2
      vertex 6.42658 5.51353 0
    endloop
  endfacet
  facet normal -0.987688 -0.156436 0
    outer loop
      vertex 6.42658 5.51353 2
      vertex 6.5 5.05 0
      vertex 6.5 5.05 2
    endloop
  endfacet
  facet normal -0.45399 -0.891007 0
    outer loop
      vertex 5.46352 6.47658 0
      vertex 5.88168 6.26353 2
      vertex 5.46352 6.47658 2
    endloop
  endfacet
  facet normal -0.45399 -0.891007 -0
    outer loop
      vertex 5.88168 6.26353 2
      vertex 5.46352 6.47658 0
      vertex 5.88168 6.26353 0
    endloop
  endfacet
  facet normal 0.45399 0.891007 -0
    outer loop
      vertex 4.53648 3.62342 0
      vertex 4.11832 3.83648 2
      vertex 4.53648 3.62342 2
    endloop
  endfacet
  facet normal 0.45399 0.891007 0
    outer loop
      vertex 4.11832 3.83648 2
      vertex 4.53648 3.62342 0
      vertex 4.11832 3.83648 0
    endloop
  endfacet
  facet normal -0.707107 -0.707107 0
    outer loop
      vertex 6.21352 5.93168 0
      vertex 5.88168 6.26353 2
      vertex 5.88168 6.26353 0
    endloop
  endfacet
  facet normal -0.707107 -0.707107 0
    outer loop
      vertex 5.88168 6.26353 2
      vertex 6.21352 5.93168 0
      vertex 6.21352 5.93168 2
    endloop
  endfacet
  facet normal -0.891007 -0.45399 0
    outer loop
      vertex 6.42658 5.51353 0
      vertex 6.21352 5.93168 2
      vertex 6.21352 5.93168 0
    endloop
  endfacet
  facet normal -0.891007 -0.45399 0
    outer loop
      vertex 6.21352 5.93168 2
      vertex 6.42658 5.51353 0
      vertex 6.42658 5.51353 2
    endloop
  endfacet
  facet normal -0.156436 -0.987688 0
    outer loop
      vertex 5 6.55 0
      vertex 5.46352 6.47658 2
      vertex 5 6.55 2
    endloop
  endfacet
  facet normal -0.156436 -0.987688 -0
    outer loop
      vertex 5.46352 6.47658 2
      vertex 5 6.55 0
      vertex 5.46352 6.47658 0
    endloop
  endfacet
  facet normal 0.156436 -0.987688 0
    outer loop
      vertex 4.53648 6.47658 0
      vertex 5 6.55 2
      vertex 4.53648 6.47658 2
    endloop
  endfacet
  facet normal 0.156436 -0.987688 0
    outer loop
      vertex 5 6.55 2
      vertex 4.53648 6.47658 0
      vertex 5 6.55 0
    endloop
  endfacet
  facet normal 0.45399 -0.891007 0
    outer loop
      vertex 4.11832 6.26353 0
      vertex 4.53648 6.47658 2
      vertex 4.11832 6.26353 2
    endloop
  endfacet
  facet normal 0.45399 -0.891007 0
    outer loop
      vertex 4.53648 6.47658 2
      vertex 4.11832 6.26353 0
      vertex 4.53648 6.47658 0
    endloop
  endfacet
  facet normal -0.707107 0.707107 0
    outer loop
      vertex 5.88168 3.83648 0
      vertex 6.21352 4.16832 2
      vertex 6.21352 4.16832 0
    endloop
  endfacet
  facet normal -0.707107 0.707107 0
    outer loop
      vertex 6.21352 4.16832 2
      vertex 5.88168 3.83648 0
      vertex 5.88168 3.83648 2
    endloop
  endfacet
  facet normal 0.987688 0.156436 0
    outer loop
      vertex 3.57342 4.58648 2
      vertex 3.5 5.05 0
      vertex 3.5 5.05 2
    endloop
  endfacet
  facet normal 0.987688 0.156436 0
    outer loop
      vertex 3.5 5.05 0
      vertex 3.57342 4.58648 2
      vertex 3.57342 4.58648 0
    endloop
  endfacet
  facet normal 0.707107 0.707107 0
    outer loop
      vertex 4.11832 3.83648 2
      vertex 3.78648 4.16832 0
      vertex 3.78648 4.16832 2
    endloop
  endfacet
  facet normal 0.707107 0.707107 0
    outer loop
      vertex 3.78648 4.16832 0
      vertex 4.11832 3.83648 2
      vertex 4.11832 3.83648 0
    endloop
  endfacet
  facet normal 0.891007 0.45399 0
    outer loop
      vertex 3.78648 4.16832 2
      vertex 3.57342 4.58648 0
      vertex 3.57342 4.58648 2
    endloop
  endfacet
  facet normal 0.891007 0.45399 0
    outer loop
      vertex 3.57342 4.58648 0
      vertex 3.78648 4.16832 2
      vertex 3.78648 4.16832 0
    endloop
  endfacet
  facet normal 0.987688 -0.156436 0
    outer loop
      vertex 3.5 5.05 2
      vertex 3.57342 5.51353 0
      vertex 3.57342 5.51353 2
    endloop
  endfacet
  facet normal 0.987688 -0.156436 0
    outer loop
      vertex 3.57342 5.51353 0
      vertex 3.5 5.05 2
      vertex 3.5 5.05 0
    endloop
  endfacet
  facet normal 0.707107 -0.707107 0
    outer loop
      vertex 3.78648 5.93168 2
      vertex 4.11832 6.26353 0
      vertex 4.11832 6.26353 2
    endloop
  endfacet
  facet normal 0.707107 -0.707107 0
    outer loop
      vertex 4.11832 6.26353 0
      vertex 3.78648 5.93168 2
      vertex 3.78648 5.93168 0
    endloop
  endfacet
  facet normal -0.891007 0.45399 0
    outer loop
      vertex 6.21352 4.16832 0
      vertex 6.42658 4.58648 2
      vertex 6.42658 4.58648 0
    endloop
  endfacet
  facet normal -0.891007 0.45399 0
    outer loop
      vertex 6.42658 4.58648 2
      vertex 6.21352 4.16832 0
      vertex 6.21352 4.16832 2
    endloop
  endfacet
  facet normal -0.156436 0.987688 0
    outer loop
      vertex 5.46352 3.62342 0
      vertex 5 3.55 2
      vertex 5.46352 3.62342 2
    endloop
  endfacet
  facet normal -0.156436 0.987688 0
    outer loop
      vertex 5 3.55 2
      vertex 5.46352 3.62342 0
      vertex 5 3.55 0
    endloop
  endfacet
  facet normal -0.45399 0.891007 0
    outer loop
      vertex 5.88168 3.83648 0
      vertex 5.46352 3.62342 2
      vertex 5.88168 3.83648 2
    endloop
  endfacet
  facet normal -0.45399 0.891007 0
    outer loop
      vertex 5.46352 3.62342 2
      vertex 5.88168 3.83648 0
      vertex 5.46352 3.62342 0
    endloop
  endfacet
  facet normal 0.156436 0.987688 -0
    outer loop
      vertex 5 3.55 0
      vertex 4.53648 3.62342 2
      vertex 5 3.55 2
    endloop
  endfacet
  facet normal 0.156436 0.987688 0
    outer loop
      vertex 4.53648 3.62342 2
      vertex 5 3.55 0
      vertex 4.53648 3.62342 0
    endloop
  endfacet
  facet normal 0.891007 -0.45399 0
    outer loop
      vertex 3.57342 5.51353 2
      vertex 3.78648 5.93168 0
      vertex 3.78648 5.93168 2
    endloop
  endfacet
  facet normal 0.891007 -0.45399 0
    outer loop
      vertex 3.78648 5.93168 0
      vertex 3.57342 5.51353 2
      vertex 3.57342 5.51353 0
    endloop
  endfacet
  facet normal -0.987688 0.156436 0
    outer loop
      vertex 6.42658 4.58648 0
      vertex 6.5 5.05 2
      vertex 6.5 5.05 0
    endloop
  endfacet
  facet normal -0.987688 0.156436 0
    outer loop
      vertex 6.5 5.05 2
      vertex 6.42658 4.58648 0
      vertex 6.42658 4.58648 2
    endloop
  endfacet
  facet normal -0.987688 -0.15644 0
    outer loop
      vertex 46.5 5.05 0
      vertex 46.4266 5.51353 2
      vertex 46.4266 5.51353 0
    endloop
  endfacet
  facet normal -0.987688 -0.15644 0
    outer loop
      vertex 46.4266 5.51353 2
      vertex 46.5 5.05 0
      vertex 46.5 5.05 2
    endloop
  endfacet
  facet normal 0.891004 0.453995 0
    outer loop
      vertex 43.7865 4.16832 2
      vertex 43.5734 4.58648 0
      vertex 43.5734 4.58648 2
    endloop
  endfacet
  facet normal 0.891004 0.453995 0
    outer loop
      vertex 43.5734 4.58648 0
      vertex 43.7865 4.16832 2
      vertex 43.7865 4.16832 0
    endloop
  endfacet
  facet normal 0.156436 -0.987688 0
    outer loop
      vertex 44.5365 6.47658 0
      vertex 45 6.55 2
      vertex 44.5365 6.47658 2
    endloop
  endfacet
  facet normal 0.156436 -0.987688 0
    outer loop
      vertex 45 6.55 2
      vertex 44.5365 6.47658 0
      vertex 45 6.55 0
    endloop
  endfacet
  facet normal 0.987689 -0.156432 0
    outer loop
      vertex 43.5 5.05 2
      vertex 43.5734 5.51353 0
      vertex 43.5734 5.51353 2
    endloop
  endfacet
  facet normal 0.987689 -0.156432 0
    outer loop
      vertex 43.5734 5.51353 0
      vertex 43.5 5.05 2
      vertex 43.5 5.05 0
    endloop
  endfacet
  facet normal -0.707106 -0.707108 0
    outer loop
      vertex 45.8817 6.26353 0
      vertex 46.2135 5.93168 2
      vertex 45.8817 6.26353 2
    endloop
  endfacet
  facet normal -0.707106 -0.707108 -0
    outer loop
      vertex 46.2135 5.93168 2
      vertex 45.8817 6.26353 0
      vertex 46.2135 5.93168 0
    endloop
  endfacet
  facet normal -0.891007 -0.453989 0
    outer loop
      vertex 46.4266 5.51353 0
      vertex 46.2135 5.93168 2
      vertex 46.2135 5.93168 0
    endloop
  endfacet
  facet normal -0.891007 -0.453989 0
    outer loop
      vertex 46.2135 5.93168 2
      vertex 46.4266 5.51353 0
      vertex 46.4266 5.51353 2
    endloop
  endfacet
  facet normal -0.156436 -0.987688 0
    outer loop
      vertex 45 6.55 0
      vertex 45.4635 6.47658 2
      vertex 45 6.55 2
    endloop
  endfacet
  facet normal -0.156436 -0.987688 -0
    outer loop
      vertex 45.4635 6.47658 2
      vertex 45 6.55 0
      vertex 45.4635 6.47658 0
    endloop
  endfacet
  facet normal 0.453988 -0.891008 0
    outer loop
      vertex 44.1183 6.26353 0
      vertex 44.5365 6.47658 2
      vertex 44.1183 6.26353 2
    endloop
  endfacet
  facet normal 0.453988 -0.891008 0
    outer loop
      vertex 44.5365 6.47658 2
      vertex 44.1183 6.26353 0
      vertex 44.5365 6.47658 0
    endloop
  endfacet
  facet normal 0.891004 -0.453995 0
    outer loop
      vertex 43.5734 5.51353 2
      vertex 43.7865 5.93168 0
      vertex 43.7865 5.93168 2
    endloop
  endfacet
  facet normal 0.891004 -0.453995 0
    outer loop
      vertex 43.7865 5.93168 0
      vertex 43.5734 5.51353 2
      vertex 43.5734 5.51353 0
    endloop
  endfacet
  facet normal 0.70711 -0.707104 0
    outer loop
      vertex 43.7865 5.93168 2
      vertex 44.1183 6.26353 0
      vertex 44.1183 6.26353 2
    endloop
  endfacet
  facet normal 0.70711 -0.707104 0
    outer loop
      vertex 44.1183 6.26353 0
      vertex 43.7865 5.93168 2
      vertex 43.7865 5.93168 0
    endloop
  endfacet
  facet normal -0.453991 -0.891006 0
    outer loop
      vertex 45.4635 6.47658 0
      vertex 45.8817 6.26353 2
      vertex 45.4635 6.47658 2
    endloop
  endfacet
  facet normal -0.453991 -0.891006 -0
    outer loop
      vertex 45.8817 6.26353 2
      vertex 45.4635 6.47658 0
      vertex 45.8817 6.26353 0
    endloop
  endfacet
  facet normal 0.987689 0.156432 0
    outer loop
      vertex 43.5734 4.58648 2
      vertex 43.5 5.05 0
      vertex 43.5 5.05 2
    endloop
  endfacet
  facet normal 0.987689 0.156432 0
    outer loop
      vertex 43.5 5.05 0
      vertex 43.5734 4.58648 2
      vertex 43.5734 4.58648 0
    endloop
  endfacet
  facet normal -0.891007 0.453989 0
    outer loop
      vertex 46.2135 4.16832 0
      vertex 46.4266 4.58648 2
      vertex 46.4266 4.58648 0
    endloop
  endfacet
  facet normal -0.891007 0.453989 0
    outer loop
      vertex 46.4266 4.58648 2
      vertex 46.2135 4.16832 0
      vertex 46.2135 4.16832 2
    endloop
  endfacet
  facet normal 0.70711 0.707103 0
    outer loop
      vertex 44.1183 3.83648 2
      vertex 43.7865 4.16832 0
      vertex 43.7865 4.16832 2
    endloop
  endfacet
  facet normal 0.70711 0.707103 0
    outer loop
      vertex 43.7865 4.16832 0
      vertex 44.1183 3.83648 2
      vertex 44.1183 3.83648 0
    endloop
  endfacet
  facet normal -0.453991 0.891006 0
    outer loop
      vertex 45.8817 3.83648 0
      vertex 45.4635 3.62342 2
      vertex 45.8817 3.83648 2
    endloop
  endfacet
  facet normal -0.453991 0.891006 0
    outer loop
      vertex 45.4635 3.62342 2
      vertex 45.8817 3.83648 0
      vertex 45.4635 3.62342 0
    endloop
  endfacet
  facet normal -0.707106 0.707108 0
    outer loop
      vertex 46.2135 4.16832 0
      vertex 45.8817 3.83648 2
      vertex 46.2135 4.16832 2
    endloop
  endfacet
  facet normal -0.707106 0.707108 0
    outer loop
      vertex 45.8817 3.83648 2
      vertex 46.2135 4.16832 0
      vertex 45.8817 3.83648 0
    endloop
  endfacet
  facet normal -0.987688 0.15644 0
    outer loop
      vertex 46.4266 4.58648 0
      vertex 46.5 5.05 2
      vertex 46.5 5.05 0
    endloop
  endfacet
  facet normal -0.987688 0.15644 0
    outer loop
      vertex 46.5 5.05 2
      vertex 46.4266 4.58648 0
      vertex 46.4266 4.58648 2
    endloop
  endfacet
  facet normal -0.156436 0.987688 0
    outer loop
      vertex 45.4635 3.62342 0
      vertex 45 3.55 2
      vertex 45.4635 3.62342 2
    endloop
  endfacet
  facet normal -0.156436 0.987688 0
    outer loop
      vertex 45 3.55 2
      vertex 45.4635 3.62342 0
      vertex 45 3.55 0
    endloop
  endfacet
  facet normal 0.156436 0.987688 -0
    outer loop
      vertex 45 3.55 0
      vertex 44.5365 3.62342 2
      vertex 45 3.55 2
    endloop
  endfacet
  facet normal 0.156436 0.987688 0
    outer loop
      vertex 44.5365 3.62342 2
      vertex 45 3.55 0
      vertex 44.5365 3.62342 0
    endloop
  endfacet
  facet normal 0.453988 0.891008 -0
    outer loop
      vertex 44.5365 3.62342 0
      vertex 44.1183 3.83648 2
      vertex 44.5365 3.62342 2
    endloop
  endfacet
  facet normal 0.453988 0.891008 0
    outer loop
      vertex 44.1183 3.83648 2
      vertex 44.5365 3.62342 0
      vertex 44.1183 3.83648 0
    endloop
  endfacet
  facet normal -0.987688 -0.156436 0
    outer loop
      vertex 6.5 50.05 0
      vertex 6.42658 50.5135 2
      vertex 6.42658 50.5135 0
    endloop
  endfacet
  facet normal -0.987688 -0.156436 0
    outer loop
      vertex 6.42658 50.5135 2
      vertex 6.5 50.05 0
      vertex 6.5 50.05 2
    endloop
  endfacet
  facet normal -0.453995 -0.891004 0
    outer loop
      vertex 5.46352 51.4766 0
      vertex 5.88168 51.2635 2
      vertex 5.46352 51.4766 2
    endloop
  endfacet
  facet normal -0.453995 -0.891004 -0
    outer loop
      vertex 5.88168 51.2635 2
      vertex 5.46352 51.4766 0
      vertex 5.88168 51.2635 0
    endloop
  endfacet
  facet normal 0.987688 0.156436 0
    outer loop
      vertex 3.57342 49.5865 2
      vertex 3.5 50.05 0
      vertex 3.5 50.05 2
    endloop
  endfacet
  facet normal 0.987688 0.156436 0
    outer loop
      vertex 3.5 50.05 0
      vertex 3.57342 49.5865 2
      vertex 3.57342 49.5865 0
    endloop
  endfacet
  facet normal 0.156432 0.987689 -0
    outer loop
      vertex 5 48.55 0
      vertex 4.53648 48.6234 2
      vertex 5 48.55 2
    endloop
  endfacet
  facet normal 0.156432 0.987689 0
    outer loop
      vertex 4.53648 48.6234 2
      vertex 5 48.55 0
      vertex 4.53648 48.6234 0
    endloop
  endfacet
  facet normal -0.707104 -0.70711 0
    outer loop
      vertex 5.88168 51.2635 0
      vertex 6.21352 50.9317 2
      vertex 5.88168 51.2635 2
    endloop
  endfacet
  facet normal -0.707104 -0.70711 -0
    outer loop
      vertex 6.21352 50.9317 2
      vertex 5.88168 51.2635 0
      vertex 6.21352 50.9317 0
    endloop
  endfacet
  facet normal -0.891008 -0.453988 0
    outer loop
      vertex 6.42658 50.5135 0
      vertex 6.21352 50.9317 2
      vertex 6.21352 50.9317 0
    endloop
  endfacet
  facet normal -0.891008 -0.453988 0
    outer loop
      vertex 6.21352 50.9317 2
      vertex 6.42658 50.5135 0
      vertex 6.42658 50.5135 2
    endloop
  endfacet
  facet normal 0.156432 -0.987689 0
    outer loop
      vertex 4.53648 51.4766 0
      vertex 5 51.55 2
      vertex 4.53648 51.4766 2
    endloop
  endfacet
  facet normal 0.156432 -0.987689 0
    outer loop
      vertex 5 51.55 2
      vertex 4.53648 51.4766 0
      vertex 5 51.55 0
    endloop
  endfacet
  facet normal 0.453995 -0.891004 0
    outer loop
      vertex 4.11832 51.2635 0
      vertex 4.53648 51.4766 2
      vertex 4.11832 51.2635 2
    endloop
  endfacet
  facet normal 0.453995 -0.891004 0
    outer loop
      vertex 4.53648 51.4766 2
      vertex 4.11832 51.2635 0
      vertex 4.53648 51.4766 0
    endloop
  endfacet
  facet normal 0.987688 -0.156436 0
    outer loop
      vertex 3.5 50.05 2
      vertex 3.57342 50.5135 0
      vertex 3.57342 50.5135 2
    endloop
  endfacet
  facet normal 0.987688 -0.156436 0
    outer loop
      vertex 3.57342 50.5135 0
      vertex 3.5 50.05 2
      vertex 3.5 50.05 0
    endloop
  endfacet
  facet normal 0.707104 -0.70711 0
    outer loop
      vertex 3.78648 50.9317 0
      vertex 4.11832 51.2635 2
      vertex 3.78648 50.9317 2
    endloop
  endfacet
  facet normal 0.707104 -0.70711 0
    outer loop
      vertex 4.11832 51.2635 2
      vertex 3.78648 50.9317 0
      vertex 4.11832 51.2635 0
    endloop
  endfacet
  facet normal -0.453995 0.891004 0
    outer loop
      vertex 5.88168 48.8365 0
      vertex 5.46352 48.6234 2
      vertex 5.88168 48.8365 2
    endloop
  endfacet
  facet normal -0.453995 0.891004 0
    outer loop
      vertex 5.46352 48.6234 2
      vertex 5.88168 48.8365 0
      vertex 5.46352 48.6234 0
    endloop
  endfacet
  facet normal -0.707104 0.70711 0
    outer loop
      vertex 6.21352 49.1683 0
      vertex 5.88168 48.8365 2
      vertex 6.21352 49.1683 2
    endloop
  endfacet
  facet normal -0.707104 0.70711 0
    outer loop
      vertex 5.88168 48.8365 2
      vertex 6.21352 49.1683 0
      vertex 5.88168 48.8365 0
    endloop
  endfacet
  facet normal 0.891008 0.453988 0
    outer loop
      vertex 3.78648 49.1683 2
      vertex 3.57342 49.5865 0
      vertex 3.57342 49.5865 2
    endloop
  endfacet
  facet normal 0.891008 0.453988 0
    outer loop
      vertex 3.57342 49.5865 0
      vertex 3.78648 49.1683 2
      vertex 3.78648 49.1683 0
    endloop
  endfacet
  facet normal 0.453995 0.891004 -0
    outer loop
      vertex 4.53648 48.6234 0
      vertex 4.11832 48.8365 2
      vertex 4.53648 48.6234 2
    endloop
  endfacet
  facet normal 0.453995 0.891004 0
    outer loop
      vertex 4.11832 48.8365 2
      vertex 4.53648 48.6234 0
      vertex 4.11832 48.8365 0
    endloop
  endfacet
  facet normal 0.707104 0.70711 -0
    outer loop
      vertex 4.11832 48.8365 0
      vertex 3.78648 49.1683 2
      vertex 4.11832 48.8365 2
    endloop
  endfacet
  facet normal 0.707104 0.70711 0
    outer loop
      vertex 3.78648 49.1683 2
      vertex 4.11832 48.8365 0
      vertex 3.78648 49.1683 0
    endloop
  endfacet
  facet normal -0.156432 -0.987689 0
    outer loop
      vertex 5 51.55 0
      vertex 5.46352 51.4766 2
      vertex 5 51.55 2
    endloop
  endfacet
  facet normal -0.156432 -0.987689 -0
    outer loop
      vertex 5.46352 51.4766 2
      vertex 5 51.55 0
      vertex 5.46352 51.4766 0
    endloop
  endfacet
  facet normal 0.891008 -0.453988 0
    outer loop
      vertex 3.57342 50.5135 2
      vertex 3.78648 50.9317 0
      vertex 3.78648 50.9317 2
    endloop
  endfacet
  facet normal 0.891008 -0.453988 0
    outer loop
      vertex 3.78648 50.9317 0
      vertex 3.57342 50.5135 2
      vertex 3.57342 50.5135 0
    endloop
  endfacet
  facet normal -0.891008 0.453988 0
    outer loop
      vertex 6.21352 49.1683 0
      vertex 6.42658 49.5865 2
      vertex 6.42658 49.5865 0
    endloop
  endfacet
  facet normal -0.891008 0.453988 0
    outer loop
      vertex 6.42658 49.5865 2
      vertex 6.21352 49.1683 0
      vertex 6.21352 49.1683 2
    endloop
  endfacet
  facet normal -0.156432 0.987689 0
    outer loop
      vertex 5.46352 48.6234 0
      vertex 5 48.55 2
      vertex 5.46352 48.6234 2
    endloop
  endfacet
  facet normal -0.156432 0.987689 0
    outer loop
      vertex 5 48.55 2
      vertex 5.46352 48.6234 0
      vertex 5 48.55 0
    endloop
  endfacet
  facet normal -0.987688 0.156436 0
    outer loop
      vertex 6.42658 49.5865 0
      vertex 6.5 50.05 2
      vertex 6.5 50.05 0
    endloop
  endfacet
  facet normal -0.987688 0.156436 0
    outer loop
      vertex 6.5 50.05 2
      vertex 6.42658 49.5865 0
      vertex 6.42658 49.5865 2
    endloop
  endfacet
  facet normal -0.987687 -0.15644 0
    outer loop
      vertex 46.5 50.05 0
      vertex 46.4266 50.5135 2
      vertex 46.4266 50.5135 0
    endloop
  endfacet
  facet normal -0.987687 -0.15644 0
    outer loop
      vertex 46.4266 50.5135 2
      vertex 46.5 50.05 0
      vertex 46.5 50.05 2
    endloop
  endfacet
  facet normal -0.453996 -0.891004 0
    outer loop
      vertex 45.4635 51.4766 0
      vertex 45.8817 51.2635 2
      vertex 45.4635 51.4766 2
    endloop
  endfacet
  facet normal -0.453996 -0.891004 -0
    outer loop
      vertex 45.8817 51.2635 2
      vertex 45.4635 51.4766 0
      vertex 45.8817 51.2635 0
    endloop
  endfacet
  facet normal 0.156432 0.987689 -0
    outer loop
      vertex 45 48.55 0
      vertex 44.5365 48.6234 2
      vertex 45 48.55 2
    endloop
  endfacet
  facet normal 0.156432 0.987689 0
    outer loop
      vertex 44.5365 48.6234 2
      vertex 45 48.55 0
      vertex 44.5365 48.6234 0
    endloop
  endfacet
  facet normal -0.707103 -0.707111 0
    outer loop
      vertex 45.8817 51.2635 0
      vertex 46.2135 50.9317 2
      vertex 45.8817 51.2635 2
    endloop
  endfacet
  facet normal -0.707103 -0.707111 -0
    outer loop
      vertex 46.2135 50.9317 2
      vertex 45.8817 51.2635 0
      vertex 46.2135 50.9317 0
    endloop
  endfacet
  facet normal -0.891009 -0.453986 0
    outer loop
      vertex 46.4266 50.5135 0
      vertex 46.2135 50.9317 2
      vertex 46.2135 50.9317 0
    endloop
  endfacet
  facet normal -0.891009 -0.453986 0
    outer loop
      vertex 46.2135 50.9317 2
      vertex 46.4266 50.5135 0
      vertex 46.4266 50.5135 2
    endloop
  endfacet
  facet normal 0.156432 -0.987689 0
    outer loop
      vertex 44.5365 51.4766 0
      vertex 45 51.55 2
      vertex 44.5365 51.4766 2
    endloop
  endfacet
  facet normal 0.156432 -0.987689 0
    outer loop
      vertex 45 51.55 2
      vertex 44.5365 51.4766 0
      vertex 45 51.55 0
    endloop
  endfacet
  facet normal 0.453993 -0.891005 0
    outer loop
      vertex 44.1183 51.2635 0
      vertex 44.5365 51.4766 2
      vertex 44.1183 51.2635 2
    endloop
  endfacet
  facet normal 0.453993 -0.891005 0
    outer loop
      vertex 44.5365 51.4766 2
      vertex 44.1183 51.2635 0
      vertex 44.5365 51.4766 0
    endloop
  endfacet
  facet normal 0.707107 -0.707107 0
    outer loop
      vertex 43.7865 50.9317 2
      vertex 44.1183 51.2635 0
      vertex 44.1183 51.2635 2
    endloop
  endfacet
  facet normal 0.707107 -0.707107 0
    outer loop
      vertex 44.1183 51.2635 0
      vertex 43.7865 50.9317 2
      vertex 43.7865 50.9317 0
    endloop
  endfacet
  facet normal -0.453996 0.891004 0
    outer loop
      vertex 45.8817 48.8365 0
      vertex 45.4635 48.6234 2
      vertex 45.8817 48.8365 2
    endloop
  endfacet
  facet normal -0.453996 0.891004 0
    outer loop
      vertex 45.4635 48.6234 2
      vertex 45.8817 48.8365 0
      vertex 45.4635 48.6234 0
    endloop
  endfacet
  facet normal -0.707103 0.707111 0
    outer loop
      vertex 46.2135 49.1683 0
      vertex 45.8817 48.8365 2
      vertex 46.2135 49.1683 2
    endloop
  endfacet
  facet normal -0.707103 0.707111 0
    outer loop
      vertex 45.8817 48.8365 2
      vertex 46.2135 49.1683 0
      vertex 45.8817 48.8365 0
    endloop
  endfacet
  facet normal 0.891005 0.453993 0
    outer loop
      vertex 43.7865 49.1683 2
      vertex 43.5734 49.5865 0
      vertex 43.5734 49.5865 2
    endloop
  endfacet
  facet normal 0.891005 0.453993 0
    outer loop
      vertex 43.5734 49.5865 0
      vertex 43.7865 49.1683 2
      vertex 43.7865 49.1683 0
    endloop
  endfacet
  facet normal 0.453993 0.891005 -0
    outer loop
      vertex 44.5365 48.6234 0
      vertex 44.1183 48.8365 2
      vertex 44.5365 48.6234 2
    endloop
  endfacet
  facet normal 0.453993 0.891005 0
    outer loop
      vertex 44.1183 48.8365 2
      vertex 44.5365 48.6234 0
      vertex 44.1183 48.8365 0
    endloop
  endfacet
  facet normal -0.156432 -0.987689 0
    outer loop
      vertex 45 51.55 0
      vertex 45.4635 51.4766 2
      vertex 45 51.55 2
    endloop
  endfacet
  facet normal -0.156432 -0.987689 -0
    outer loop
      vertex 45.4635 51.4766 2
      vertex 45 51.55 0
      vertex 45.4635 51.4766 0
    endloop
  endfacet
  facet normal 0.987689 0.156432 0
    outer loop
      vertex 43.5734 49.5865 2
      vertex 43.5 50.05 0
      vertex 43.5 50.05 2
    endloop
  endfacet
  facet normal 0.987689 0.156432 0
    outer loop
      vertex 43.5 50.05 0
      vertex 43.5734 49.5865 2
      vertex 43.5734 49.5865 0
    endloop
  endfacet
  facet normal 0.891005 -0.453993 0
    outer loop
      vertex 43.5734 50.5135 2
      vertex 43.7865 50.9317 0
      vertex 43.7865 50.9317 2
    endloop
  endfacet
  facet normal 0.891005 -0.453993 0
    outer loop
      vertex 43.7865 50.9317 0
      vertex 43.5734 50.5135 2
      vertex 43.5734 50.5135 0
    endloop
  endfacet
  facet normal -0.891009 0.453986 0
    outer loop
      vertex 46.2135 49.1683 0
      vertex 46.4266 49.5865 2
      vertex 46.4266 49.5865 0
    endloop
  endfacet
  facet normal -0.891009 0.453986 0
    outer loop
      vertex 46.4266 49.5865 2
      vertex 46.2135 49.1683 0
      vertex 46.2135 49.1683 2
    endloop
  endfacet
  facet normal -0.156432 0.987689 0
    outer loop
      vertex 45.4635 48.6234 0
      vertex 45 48.55 2
      vertex 45.4635 48.6234 2
    endloop
  endfacet
  facet normal -0.156432 0.987689 0
    outer loop
      vertex 45 48.55 2
      vertex 45.4635 48.6234 0
      vertex 45 48.55 0
    endloop
  endfacet
  facet normal 0.707107 0.707107 0
    outer loop
      vertex 44.1183 48.8365 2
      vertex 43.7865 49.1683 0
      vertex 43.7865 49.1683 2
    endloop
  endfacet
  facet normal 0.707107 0.707107 0
    outer loop
      vertex 43.7865 49.1683 0
      vertex 44.1183 48.8365 2
      vertex 44.1183 48.8365 0
    endloop
  endfacet
  facet normal 0.987689 -0.156432 0
    outer loop
      vertex 43.5 50.05 2
      vertex 43.5734 50.5135 0
      vertex 43.5734 50.5135 2
    endloop
  endfacet
  facet normal 0.987689 -0.156432 0
    outer loop
      vertex 43.5734 50.5135 0
      vertex 43.5 50.05 2
      vertex 43.5 50.05 0
    endloop
  endfacet
  facet normal -0.987687 0.15644 0
    outer loop
      vertex 46.4266 49.5865 0
      vertex 46.5 50.05 2
      vertex 46.5 50.05 0
    endloop
  endfacet
  facet normal -0.987687 0.15644 0
    outer loop
      vertex 46.5 50.05 2
      vertex 46.4266 49.5865 0
      vertex 46.4266 49.5865 2
    endloop
  endfacet
  facet normal -0.995185 -0.0980167 0
    outer loop
      vertex 45 27.55 0
      vertex 44.6157 31.4518 2
      vertex 44.6157 31.4518 0
    endloop
  endfacet
  facet normal -0.995185 -0.0980167 0
    outer loop
      vertex 44.6157 31.4518 2
      vertex 45 27.55 0
      vertex 45 27.55 2
    endloop
  endfacet
  facet normal 0.995185 0.0980169 0
    outer loop
      vertex 5.38429 23.6482 2
      vertex 5 27.55 0
      vertex 5 27.55 2
    endloop
  endfacet
  facet normal 0.995185 0.0980169 0
    outer loop
      vertex 5 27.55 0
      vertex 5.38429 23.6482 2
      vertex 5.38429 23.6482 0
    endloop
  endfacet
  facet normal 0.0980177 -0.995185 0
    outer loop
      vertex 21.0982 47.1657 0
      vertex 25 47.55 2
      vertex 21.0982 47.1657 2
    endloop
  endfacet
  facet normal 0.0980177 -0.995185 0
    outer loop
      vertex 25 47.55 2
      vertex 21.0982 47.1657 0
      vertex 25 47.55 0
    endloop
  endfacet
  facet normal -0.0980172 0.995185 0
    outer loop
      vertex 28.9018 7.93429 0
      vertex 25 7.55 2
      vertex 28.9018 7.93429 2
    endloop
  endfacet
  facet normal -0.0980172 0.995185 0
    outer loop
      vertex 25 7.55 2
      vertex 28.9018 7.93429 0
      vertex 25 7.55 0
    endloop
  endfacet
  facet normal -0.634393 -0.773011 0
    outer loop
      vertex 36.1114 44.1794 0
      vertex 39.1421 41.6921 2
      vertex 36.1114 44.1794 2
    endloop
  endfacet
  facet normal -0.634393 -0.773011 -0
    outer loop
      vertex 39.1421 41.6921 2
      vertex 36.1114 44.1794 0
      vertex 39.1421 41.6921 0
    endloop
  endfacet
  facet normal 0.773011 -0.634393 0
    outer loop
      vertex 8.37061 38.6614 2
      vertex 10.8579 41.6921 0
      vertex 10.8579 41.6921 2
    endloop
  endfacet
  facet normal 0.773011 -0.634393 0
    outer loop
      vertex 10.8579 41.6921 0
      vertex 8.37061 38.6614 2
      vertex 8.37061 38.6614 0
    endloop
  endfacet
  facet normal 0.471397 -0.881921 0
    outer loop
      vertex 13.8886 44.1794 0
      vertex 17.3463 46.0276 2
      vertex 13.8886 44.1794 2
    endloop
  endfacet
  facet normal 0.471397 -0.881921 0
    outer loop
      vertex 17.3463 46.0276 2
      vertex 13.8886 44.1794 0
      vertex 17.3463 46.0276 0
    endloop
  endfacet
  facet normal -0.881921 0.471397 0
    outer loop
      vertex 41.6294 16.4386 0
      vertex 43.4776 19.8963 2
      vertex 43.4776 19.8963 0
    endloop
  endfacet
  facet normal -0.881921 0.471397 0
    outer loop
      vertex 43.4776 19.8963 2
      vertex 41.6294 16.4386 0
      vertex 41.6294 16.4386 2
    endloop
  endfacet
  facet normal -0.881921 -0.471397 0
    outer loop
      vertex 43.4776 35.2037 0
      vertex 41.6294 38.6614 2
      vertex 41.6294 38.6614 0
    endloop
  endfacet
  facet normal -0.881921 -0.471397 0
    outer loop
      vertex 41.6294 38.6614 2
      vertex 43.4776 35.2037 0
      vertex 43.4776 35.2037 2
    endloop
  endfacet
  facet normal -0.95694 -0.290285 0
    outer loop
      vertex 44.6157 31.4518 0
      vertex 43.4776 35.2037 2
      vertex 43.4776 35.2037 0
    endloop
  endfacet
  facet normal -0.95694 -0.290285 0
    outer loop
      vertex 43.4776 35.2037 2
      vertex 44.6157 31.4518 0
      vertex 44.6157 31.4518 2
    endloop
  endfacet
  facet normal -0.773011 -0.634393 0
    outer loop
      vertex 41.6294 38.6614 0
      vertex 39.1421 41.6921 2
      vertex 39.1421 41.6921 0
    endloop
  endfacet
  facet normal -0.773011 -0.634393 0
    outer loop
      vertex 39.1421 41.6921 2
      vertex 41.6294 38.6614 0
      vertex 41.6294 38.6614 2
    endloop
  endfacet
  facet normal -0.290285 -0.95694 0
    outer loop
      vertex 28.9018 47.1657 0
      vertex 32.6537 46.0276 2
      vertex 28.9018 47.1657 2
    endloop
  endfacet
  facet normal -0.290285 -0.95694 -0
    outer loop
      vertex 32.6537 46.0276 2
      vertex 28.9018 47.1657 0
      vertex 32.6537 46.0276 0
    endloop
  endfacet
  facet normal -0.0980177 -0.995185 0
    outer loop
      vertex 25 47.55 0
      vertex 28.9018 47.1657 2
      vertex 25 47.55 2
    endloop
  endfacet
  facet normal -0.0980177 -0.995185 -0
    outer loop
      vertex 28.9018 47.1657 2
      vertex 25 47.55 0
      vertex 28.9018 47.1657 0
    endloop
  endfacet
  facet normal -0.471397 -0.881921 0
    outer loop
      vertex 32.6537 46.0276 0
      vertex 36.1114 44.1794 2
      vertex 32.6537 46.0276 2
    endloop
  endfacet
  facet normal -0.471397 -0.881921 -0
    outer loop
      vertex 36.1114 44.1794 2
      vertex 32.6537 46.0276 0
      vertex 36.1114 44.1794 0
    endloop
  endfacet
  facet normal 0.95694 -0.290285 0
    outer loop
      vertex 5.38429 31.4518 2
      vertex 6.52241 35.2037 0
      vertex 6.52241 35.2037 2
    endloop
  endfacet
  facet normal 0.95694 -0.290285 0
    outer loop
      vertex 6.52241 35.2037 0
      vertex 5.38429 31.4518 2
      vertex 5.38429 31.4518 0
    endloop
  endfacet
  facet normal 0.881921 -0.471397 0
    outer loop
      vertex 6.52241 35.2037 2
      vertex 8.37061 38.6614 0
      vertex 8.37061 38.6614 2
    endloop
  endfacet
  facet normal 0.881921 -0.471397 0
    outer loop
      vertex 8.37061 38.6614 0
      vertex 6.52241 35.2037 2
      vertex 6.52241 35.2037 0
    endloop
  endfacet
  facet normal 0.995185 -0.0980169 0
    outer loop
      vertex 5 27.55 2
      vertex 5.38429 31.4518 0
      vertex 5.38429 31.4518 2
    endloop
  endfacet
  facet normal 0.995185 -0.0980169 0
    outer loop
      vertex 5.38429 31.4518 0
      vertex 5 27.55 2
      vertex 5 27.55 0
    endloop
  endfacet
  facet normal 0.634393 -0.773011 0
    outer loop
      vertex 10.8579 41.6921 0
      vertex 13.8886 44.1794 2
      vertex 10.8579 41.6921 2
    endloop
  endfacet
  facet normal 0.634393 -0.773011 0
    outer loop
      vertex 13.8886 44.1794 2
      vertex 10.8579 41.6921 0
      vertex 13.8886 44.1794 0
    endloop
  endfacet
  facet normal 0.290285 -0.95694 0
    outer loop
      vertex 17.3463 46.0276 0
      vertex 21.0982 47.1657 2
      vertex 17.3463 46.0276 2
    endloop
  endfacet
  facet normal 0.290285 -0.95694 0
    outer loop
      vertex 21.0982 47.1657 2
      vertex 17.3463 46.0276 0
      vertex 21.0982 47.1657 0
    endloop
  endfacet
  facet normal -0.995185 0.0980167 0
    outer loop
      vertex 44.6157 23.6482 0
      vertex 45 27.55 2
      vertex 45 27.55 0
    endloop
  endfacet
  facet normal -0.995185 0.0980167 0
    outer loop
      vertex 45 27.55 2
      vertex 44.6157 23.6482 0
      vertex 44.6157 23.6482 2
    endloop
  endfacet
  facet normal -0.290285 0.95694 0
    outer loop
      vertex 32.6537 9.07241 0
      vertex 28.9018 7.93429 2
      vertex 32.6537 9.07241 2
    endloop
  endfacet
  facet normal -0.290285 0.95694 0
    outer loop
      vertex 28.9018 7.93429 2
      vertex 32.6537 9.07241 0
      vertex 28.9018 7.93429 0
    endloop
  endfacet
  facet normal -0.634393 0.773011 0
    outer loop
      vertex 39.1421 13.4079 0
      vertex 36.1114 10.9206 2
      vertex 39.1421 13.4079 2
    endloop
  endfacet
  facet normal -0.634393 0.773011 0
    outer loop
      vertex 36.1114 10.9206 2
      vertex 39.1421 13.4079 0
      vertex 36.1114 10.9206 0
    endloop
  endfacet
  facet normal -0.773011 0.634393 0
    outer loop
      vertex 39.1421 13.4079 0
      vertex 41.6294 16.4386 2
      vertex 41.6294 16.4386 0
    endloop
  endfacet
  facet normal -0.773011 0.634393 0
    outer loop
      vertex 41.6294 16.4386 2
      vertex 39.1421 13.4079 0
      vertex 39.1421 13.4079 2
    endloop
  endfacet
  facet normal -0.95694 0.290285 0
    outer loop
      vertex 43.4776 19.8963 0
      vertex 44.6157 23.6482 2
      vertex 44.6157 23.6482 0
    endloop
  endfacet
  facet normal -0.95694 0.290285 0
    outer loop
      vertex 44.6157 23.6482 2
      vertex 43.4776 19.8963 0
      vertex 43.4776 19.8963 2
    endloop
  endfacet
  facet normal 0.773011 0.634393 0
    outer loop
      vertex 10.8579 13.4079 2
      vertex 8.37061 16.4386 0
      vertex 8.37061 16.4386 2
    endloop
  endfacet
  facet normal 0.773011 0.634393 0
    outer loop
      vertex 8.37061 16.4386 0
      vertex 10.8579 13.4079 2
      vertex 10.8579 13.4079 0
    endloop
  endfacet
  facet normal -0.471397 0.881921 0
    outer loop
      vertex 36.1114 10.9206 0
      vertex 32.6537 9.07241 2
      vertex 36.1114 10.9206 2
    endloop
  endfacet
  facet normal -0.471397 0.881921 0
    outer loop
      vertex 32.6537 9.07241 2
      vertex 36.1114 10.9206 0
      vertex 32.6537 9.07241 0
    endloop
  endfacet
  facet normal 0.0980172 0.995185 -0
    outer loop
      vertex 25 7.55 0
      vertex 21.0982 7.93429 2
      vertex 25 7.55 2
    endloop
  endfacet
  facet normal 0.0980172 0.995185 0
    outer loop
      vertex 21.0982 7.93429 2
      vertex 25 7.55 0
      vertex 21.0982 7.93429 0
    endloop
  endfacet
  facet normal 0.290285 0.95694 -0
    outer loop
      vertex 21.0982 7.93429 0
      vertex 17.3463 9.07241 2
      vertex 21.0982 7.93429 2
    endloop
  endfacet
  facet normal 0.290285 0.95694 0
    outer loop
      vertex 17.3463 9.07241 2
      vertex 21.0982 7.93429 0
      vertex 17.3463 9.07241 0
    endloop
  endfacet
  facet normal 0.634393 0.773011 -0
    outer loop
      vertex 13.8886 10.9206 0
      vertex 10.8579 13.4079 2
      vertex 13.8886 10.9206 2
    endloop
  endfacet
  facet normal 0.634393 0.773011 0
    outer loop
      vertex 10.8579 13.4079 2
      vertex 13.8886 10.9206 0
      vertex 10.8579 13.4079 0
    endloop
  endfacet
  facet normal 0.881921 0.471397 0
    outer loop
      vertex 8.37061 16.4386 2
      vertex 6.52241 19.8963 0
      vertex 6.52241 19.8963 2
    endloop
  endfacet
  facet normal 0.881921 0.471397 0
    outer loop
      vertex 6.52241 19.8963 0
      vertex 8.37061 16.4386 2
      vertex 8.37061 16.4386 0
    endloop
  endfacet
  facet normal 0.95694 0.290285 0
    outer loop
      vertex 6.52241 19.8963 2
      vertex 5.38429 23.6482 0
      vertex 5.38429 23.6482 2
    endloop
  endfacet
  facet normal 0.95694 0.290285 0
    outer loop
      vertex 5.38429 23.6482 0
      vertex 6.52241 19.8963 2
      vertex 6.52241 19.8963 0
    endloop
  endfacet
  facet normal 0.471397 0.881921 -0
    outer loop
      vertex 17.3463 9.07241 0
      vertex 13.8886 10.9206 2
      vertex 17.3463 9.07241 2
    endloop
  endfacet
  facet normal 0.471397 0.881921 0
    outer loop
      vertex 13.8886 10.9206 2
      vertex 17.3463 9.07241 0
      vertex 13.8886 10.9206 0
    endloop
  endfacet
endsolid OpenSCAD_Model
